<?xml version="1.0" encoding="utf-8" standalone="no"?>
<!DOCTYPE svg PUBLIC "-//W3C//DTD SVG 1.1//EN"
  "http://www.w3.org/Graphics/SVG/1.1/DTD/svg11.dtd">
<svg xmlns:xlink="http://www.w3.org/1999/xlink" width="460.8pt" height="345.6pt" viewBox="0 0 460.8 345.6" xmlns="http://www.w3.org/2000/svg" version="1.1">
 <metadata>
  <rdf:RDF xmlns:dc="http://purl.org/dc/elements/1.1/" xmlns:cc="http://creativecommons.org/ns#" xmlns:rdf="http://www.w3.org/1999/02/22-rdf-syntax-ns#">
   <cc:Work>
    <dc:type rdf:resource="http://purl.org/dc/dcmitype/StillImage"/>
    <dc:date>1980-01-01T00:00:00+00:00</dc:date>
    <dc:format>image/svg+xml</dc:format>
    <dc:creator>
     <cc:Agent>
      <dc:title>Matplotlib v3.10.8, https://matplotlib.org/</dc:title>
     </cc:Agent>
    </dc:creator>
   </cc:Work>
  </rdf:RDF>
 </metadata>
 <defs>
  <style type="text/css">*{stroke-linejoin: round; stroke-linecap: butt}</style>
 </defs>
 <g id="figure_1">
  <g id="patch_1">
   <path d="M 0 345.6 
L 460.8 345.6 
L 460.8 0 
L 0 0 
z
" style="fill: #ffffff"/>
  </g>
  <g id="axes_1">
   <g id="patch_2">
    <path d="M 92.91 275.82 
L 441.36 275.82 
L 441.36 19.44 
L 92.91 19.44 
z
" style="fill: #ffffff"/>
   </g>
   <g id="matplotlib.axis_1">
    <g id="xtick_1">
     <g id="line2d_1">
      <defs>
       <path id="meb07265b88" d="M 0 0 
L 0 9 
" style="stroke: #262626; stroke-width: 1.875"/>
      </defs>
      <g>
       <use xlink:href="#meb07265b88" x="108.748636" y="275.82" style="fill: #262626; stroke: #262626; stroke-width: 1.875"/>
      </g>
     </g>
     <g id="text_1">
      <!-- 0 -->
      <g style="fill: #262626" transform="translate(103.499574 300.857422) scale(0.165 -0.165)">
       <defs>
        <path id="DejaVuSans-30" d="M 2034 4250 
Q 1547 4250 1301 3770 
Q 1056 3291 1056 2328 
Q 1056 1369 1301 889 
Q 1547 409 2034 409 
Q 2525 409 2770 889 
Q 3016 1369 3016 2328 
Q 3016 3291 2770 3770 
Q 2525 4250 2034 4250 
z
M 2034 4750 
Q 2819 4750 3233 4129 
Q 3647 3509 3647 2328 
Q 3647 1150 3233 529 
Q 2819 -91 2034 -91 
Q 1250 -91 836 529 
Q 422 1150 422 2328 
Q 422 3509 836 4129 
Q 1250 4750 2034 4750 
z
" transform="scale(0.015625)"/>
       </defs>
       <use xlink:href="#DejaVuSans-30"/>
      </g>
     </g>
    </g>
    <g id="xtick_2">
     <g id="line2d_2">
      <g>
       <use xlink:href="#meb07265b88" x="171.538077" y="275.82" style="fill: #262626; stroke: #262626; stroke-width: 1.875"/>
      </g>
     </g>
     <g id="text_2">
      <!-- 100 -->
      <g style="fill: #262626" transform="translate(155.790889 300.857422) scale(0.165 -0.165)">
       <defs>
        <path id="DejaVuSans-31" d="M 794 531 
L 1825 531 
L 1825 4091 
L 703 3866 
L 703 4441 
L 1819 4666 
L 2450 4666 
L 2450 531 
L 3481 531 
L 3481 0 
L 794 0 
L 794 531 
z
" transform="scale(0.015625)"/>
       </defs>
       <use xlink:href="#DejaVuSans-31"/>
       <use xlink:href="#DejaVuSans-30" transform="translate(63.623047 0)"/>
       <use xlink:href="#DejaVuSans-30" transform="translate(127.246094 0)"/>
      </g>
     </g>
    </g>
    <g id="xtick_3">
     <g id="line2d_3">
      <g>
       <use xlink:href="#meb07265b88" x="234.327517" y="275.82" style="fill: #262626; stroke: #262626; stroke-width: 1.875"/>
      </g>
     </g>
     <g id="text_3">
      <!-- 200 -->
      <g style="fill: #262626" transform="translate(218.58033 300.857422) scale(0.165 -0.165)">
       <defs>
        <path id="DejaVuSans-32" d="M 1228 531 
L 3431 531 
L 3431 0 
L 469 0 
L 469 531 
Q 828 903 1448 1529 
Q 2069 2156 2228 2338 
Q 2531 2678 2651 2914 
Q 2772 3150 2772 3378 
Q 2772 3750 2511 3984 
Q 2250 4219 1831 4219 
Q 1534 4219 1204 4116 
Q 875 4013 500 3803 
L 500 4441 
Q 881 4594 1212 4672 
Q 1544 4750 1819 4750 
Q 2544 4750 2975 4387 
Q 3406 4025 3406 3419 
Q 3406 3131 3298 2873 
Q 3191 2616 2906 2266 
Q 2828 2175 2409 1742 
Q 1991 1309 1228 531 
z
" transform="scale(0.015625)"/>
       </defs>
       <use xlink:href="#DejaVuSans-32"/>
       <use xlink:href="#DejaVuSans-30" transform="translate(63.623047 0)"/>
       <use xlink:href="#DejaVuSans-30" transform="translate(127.246094 0)"/>
      </g>
     </g>
    </g>
    <g id="xtick_4">
     <g id="line2d_4">
      <g>
       <use xlink:href="#meb07265b88" x="297.116958" y="275.82" style="fill: #262626; stroke: #262626; stroke-width: 1.875"/>
      </g>
     </g>
     <g id="text_4">
      <!-- 300 -->
      <g style="fill: #262626" transform="translate(281.36977 300.857422) scale(0.165 -0.165)">
       <defs>
        <path id="DejaVuSans-33" d="M 2597 2516 
Q 3050 2419 3304 2112 
Q 3559 1806 3559 1356 
Q 3559 666 3084 287 
Q 2609 -91 1734 -91 
Q 1441 -91 1130 -33 
Q 819 25 488 141 
L 488 750 
Q 750 597 1062 519 
Q 1375 441 1716 441 
Q 2309 441 2620 675 
Q 2931 909 2931 1356 
Q 2931 1769 2642 2001 
Q 2353 2234 1838 2234 
L 1294 2234 
L 1294 2753 
L 1863 2753 
Q 2328 2753 2575 2939 
Q 2822 3125 2822 3475 
Q 2822 3834 2567 4026 
Q 2313 4219 1838 4219 
Q 1578 4219 1281 4162 
Q 984 4106 628 3988 
L 628 4550 
Q 988 4650 1302 4700 
Q 1616 4750 1894 4750 
Q 2613 4750 3031 4423 
Q 3450 4097 3450 3541 
Q 3450 3153 3228 2886 
Q 3006 2619 2597 2516 
z
" transform="scale(0.015625)"/>
       </defs>
       <use xlink:href="#DejaVuSans-33"/>
       <use xlink:href="#DejaVuSans-30" transform="translate(63.623047 0)"/>
       <use xlink:href="#DejaVuSans-30" transform="translate(127.246094 0)"/>
      </g>
     </g>
    </g>
    <g id="xtick_5">
     <g id="line2d_5">
      <g>
       <use xlink:href="#meb07265b88" x="359.906398" y="275.82" style="fill: #262626; stroke: #262626; stroke-width: 1.875"/>
      </g>
     </g>
     <g id="text_5">
      <!-- 400 -->
      <g style="fill: #262626" transform="translate(344.159211 300.857422) scale(0.165 -0.165)">
       <defs>
        <path id="DejaVuSans-34" d="M 2419 4116 
L 825 1625 
L 2419 1625 
L 2419 4116 
z
M 2253 4666 
L 3047 4666 
L 3047 1625 
L 3713 1625 
L 3713 1100 
L 3047 1100 
L 3047 0 
L 2419 0 
L 2419 1100 
L 313 1100 
L 313 1709 
L 2253 4666 
z
" transform="scale(0.015625)"/>
       </defs>
       <use xlink:href="#DejaVuSans-34"/>
       <use xlink:href="#DejaVuSans-30" transform="translate(63.623047 0)"/>
       <use xlink:href="#DejaVuSans-30" transform="translate(127.246094 0)"/>
      </g>
     </g>
    </g>
    <g id="xtick_6">
     <g id="line2d_6">
      <g>
       <use xlink:href="#meb07265b88" x="422.695839" y="275.82" style="fill: #262626; stroke: #262626; stroke-width: 1.875"/>
      </g>
     </g>
     <g id="text_6">
      <!-- 500 -->
      <g style="fill: #262626" transform="translate(406.948651 300.857422) scale(0.165 -0.165)">
       <defs>
        <path id="DejaVuSans-35" d="M 691 4666 
L 3169 4666 
L 3169 4134 
L 1269 4134 
L 1269 2991 
Q 1406 3038 1543 3061 
Q 1681 3084 1819 3084 
Q 2600 3084 3056 2656 
Q 3513 2228 3513 1497 
Q 3513 744 3044 326 
Q 2575 -91 1722 -91 
Q 1428 -91 1123 -41 
Q 819 9 494 109 
L 494 744 
Q 775 591 1075 516 
Q 1375 441 1709 441 
Q 2250 441 2565 725 
Q 2881 1009 2881 1497 
Q 2881 1984 2565 2268 
Q 2250 2553 1709 2553 
Q 1456 2553 1204 2497 
Q 953 2441 691 2322 
L 691 4666 
z
" transform="scale(0.015625)"/>
       </defs>
       <use xlink:href="#DejaVuSans-35"/>
       <use xlink:href="#DejaVuSans-30" transform="translate(63.623047 0)"/>
       <use xlink:href="#DejaVuSans-30" transform="translate(127.246094 0)"/>
      </g>
     </g>
    </g>
    <g id="text_7">
     <!-- Time (hr) -->
     <g style="fill: #262626" transform="translate(225.827812 321.966094) scale(0.18 -0.18)">
      <defs>
       <path id="DejaVuSans-54" d="M -19 4666 
L 3928 4666 
L 3928 4134 
L 2272 4134 
L 2272 0 
L 1638 0 
L 1638 4134 
L -19 4134 
L -19 4666 
z
" transform="scale(0.015625)"/>
       <path id="DejaVuSans-69" d="M 603 3500 
L 1178 3500 
L 1178 0 
L 603 0 
L 603 3500 
z
M 603 4863 
L 1178 4863 
L 1178 4134 
L 603 4134 
L 603 4863 
z
" transform="scale(0.015625)"/>
       <path id="DejaVuSans-6d" d="M 3328 2828 
Q 3544 3216 3844 3400 
Q 4144 3584 4550 3584 
Q 5097 3584 5394 3201 
Q 5691 2819 5691 2113 
L 5691 0 
L 5113 0 
L 5113 2094 
Q 5113 2597 4934 2840 
Q 4756 3084 4391 3084 
Q 3944 3084 3684 2787 
Q 3425 2491 3425 1978 
L 3425 0 
L 2847 0 
L 2847 2094 
Q 2847 2600 2669 2842 
Q 2491 3084 2119 3084 
Q 1678 3084 1418 2786 
Q 1159 2488 1159 1978 
L 1159 0 
L 581 0 
L 581 3500 
L 1159 3500 
L 1159 2956 
Q 1356 3278 1631 3431 
Q 1906 3584 2284 3584 
Q 2666 3584 2933 3390 
Q 3200 3197 3328 2828 
z
" transform="scale(0.015625)"/>
       <path id="DejaVuSans-65" d="M 3597 1894 
L 3597 1613 
L 953 1613 
Q 991 1019 1311 708 
Q 1631 397 2203 397 
Q 2534 397 2845 478 
Q 3156 559 3463 722 
L 3463 178 
Q 3153 47 2828 -22 
Q 2503 -91 2169 -91 
Q 1331 -91 842 396 
Q 353 884 353 1716 
Q 353 2575 817 3079 
Q 1281 3584 2069 3584 
Q 2775 3584 3186 3129 
Q 3597 2675 3597 1894 
z
M 3022 2063 
Q 3016 2534 2758 2815 
Q 2500 3097 2075 3097 
Q 1594 3097 1305 2825 
Q 1016 2553 972 2059 
L 3022 2063 
z
" transform="scale(0.015625)"/>
       <path id="DejaVuSans-20" transform="scale(0.015625)"/>
       <path id="DejaVuSans-28" d="M 1984 4856 
Q 1566 4138 1362 3434 
Q 1159 2731 1159 2009 
Q 1159 1288 1364 580 
Q 1569 -128 1984 -844 
L 1484 -844 
Q 1016 -109 783 600 
Q 550 1309 550 2009 
Q 550 2706 781 3412 
Q 1013 4119 1484 4856 
L 1984 4856 
z
" transform="scale(0.015625)"/>
       <path id="DejaVuSans-68" d="M 3513 2113 
L 3513 0 
L 2938 0 
L 2938 2094 
Q 2938 2591 2744 2837 
Q 2550 3084 2163 3084 
Q 1697 3084 1428 2787 
Q 1159 2491 1159 1978 
L 1159 0 
L 581 0 
L 581 4863 
L 1159 4863 
L 1159 2956 
Q 1366 3272 1645 3428 
Q 1925 3584 2291 3584 
Q 2894 3584 3203 3211 
Q 3513 2838 3513 2113 
z
" transform="scale(0.015625)"/>
       <path id="DejaVuSans-72" d="M 2631 2963 
Q 2534 3019 2420 3045 
Q 2306 3072 2169 3072 
Q 1681 3072 1420 2755 
Q 1159 2438 1159 1844 
L 1159 0 
L 581 0 
L 581 3500 
L 1159 3500 
L 1159 2956 
Q 1341 3275 1631 3429 
Q 1922 3584 2338 3584 
Q 2397 3584 2469 3576 
Q 2541 3569 2628 3553 
L 2631 2963 
z
" transform="scale(0.015625)"/>
       <path id="DejaVuSans-29" d="M 513 4856 
L 1013 4856 
Q 1481 4119 1714 3412 
Q 1947 2706 1947 2009 
Q 1947 1309 1714 600 
Q 1481 -109 1013 -844 
L 513 -844 
Q 928 -128 1133 580 
Q 1338 1288 1338 2009 
Q 1338 2731 1133 3434 
Q 928 4138 513 4856 
z
" transform="scale(0.015625)"/>
      </defs>
      <use xlink:href="#DejaVuSans-54"/>
      <use xlink:href="#DejaVuSans-69" transform="translate(57.958984 0)"/>
      <use xlink:href="#DejaVuSans-6d" transform="translate(85.742188 0)"/>
      <use xlink:href="#DejaVuSans-65" transform="translate(183.154297 0)"/>
      <use xlink:href="#DejaVuSans-20" transform="translate(244.677734 0)"/>
      <use xlink:href="#DejaVuSans-28" transform="translate(276.464844 0)"/>
      <use xlink:href="#DejaVuSans-68" transform="translate(315.478516 0)"/>
      <use xlink:href="#DejaVuSans-72" transform="translate(378.857422 0)"/>
      <use xlink:href="#DejaVuSans-29" transform="translate(419.970703 0)"/>
     </g>
    </g>
   </g>
   <g id="matplotlib.axis_2">
    <g id="ytick_1">
     <g id="line2d_7">
      <defs>
       <path id="m189228b779" d="M 0 0 
L -9 0 
" style="stroke: #262626; stroke-width: 1.875"/>
      </defs>
      <g>
       <use xlink:href="#m189228b779" x="92.91" y="264.166364" style="fill: #262626; stroke: #262626; stroke-width: 1.875"/>
      </g>
     </g>
     <g id="text_8">
      <!-- 0.0 -->
      <g style="fill: #262626" transform="translate(54.169844 270.435075) scale(0.165 -0.165)">
       <defs>
        <path id="DejaVuSans-2e" d="M 684 794 
L 1344 794 
L 1344 0 
L 684 0 
L 684 794 
z
" transform="scale(0.015625)"/>
       </defs>
       <use xlink:href="#DejaVuSans-30"/>
       <use xlink:href="#DejaVuSans-2e" transform="translate(63.623047 0)"/>
       <use xlink:href="#DejaVuSans-30" transform="translate(95.410156 0)"/>
      </g>
     </g>
    </g>
    <g id="ytick_2">
     <g id="line2d_8">
      <g>
       <use xlink:href="#m189228b779" x="92.91" y="193.440744" style="fill: #262626; stroke: #262626; stroke-width: 1.875"/>
      </g>
     </g>
     <g id="text_9">
      <!-- 0.1 -->
      <g style="fill: #262626" transform="translate(54.169844 199.709455) scale(0.165 -0.165)">
       <use xlink:href="#DejaVuSans-30"/>
       <use xlink:href="#DejaVuSans-2e" transform="translate(63.623047 0)"/>
       <use xlink:href="#DejaVuSans-31" transform="translate(95.410156 0)"/>
      </g>
     </g>
    </g>
    <g id="ytick_3">
     <g id="line2d_9">
      <g>
       <use xlink:href="#m189228b779" x="92.91" y="122.715124" style="fill: #262626; stroke: #262626; stroke-width: 1.875"/>
      </g>
     </g>
     <g id="text_10">
      <!-- 0.2 -->
      <g style="fill: #262626" transform="translate(54.169844 128.983835) scale(0.165 -0.165)">
       <use xlink:href="#DejaVuSans-30"/>
       <use xlink:href="#DejaVuSans-2e" transform="translate(63.623047 0)"/>
       <use xlink:href="#DejaVuSans-32" transform="translate(95.410156 0)"/>
      </g>
     </g>
    </g>
    <g id="ytick_4">
     <g id="line2d_10">
      <g>
       <use xlink:href="#m189228b779" x="92.91" y="51.989504" style="fill: #262626; stroke: #262626; stroke-width: 1.875"/>
      </g>
     </g>
     <g id="text_11">
      <!-- 0.3 -->
      <g style="fill: #262626" transform="translate(54.169844 58.258215) scale(0.165 -0.165)">
       <use xlink:href="#DejaVuSans-30"/>
       <use xlink:href="#DejaVuSans-2e" transform="translate(63.623047 0)"/>
       <use xlink:href="#DejaVuSans-33" transform="translate(95.410156 0)"/>
      </g>
     </g>
    </g>
    <g id="text_12">
     <!-- Std. Morris Sensitivity, $\sigma$ -->
     <g style="fill: #262626" transform="translate(46.389844 257.34) rotate(-90) scale(0.18 -0.18)">
      <defs>
       <path id="DejaVuSans-53" d="M 3425 4513 
L 3425 3897 
Q 3066 4069 2747 4153 
Q 2428 4238 2131 4238 
Q 1616 4238 1336 4038 
Q 1056 3838 1056 3469 
Q 1056 3159 1242 3001 
Q 1428 2844 1947 2747 
L 2328 2669 
Q 3034 2534 3370 2195 
Q 3706 1856 3706 1288 
Q 3706 609 3251 259 
Q 2797 -91 1919 -91 
Q 1588 -91 1214 -16 
Q 841 59 441 206 
L 441 856 
Q 825 641 1194 531 
Q 1563 422 1919 422 
Q 2459 422 2753 634 
Q 3047 847 3047 1241 
Q 3047 1584 2836 1778 
Q 2625 1972 2144 2069 
L 1759 2144 
Q 1053 2284 737 2584 
Q 422 2884 422 3419 
Q 422 4038 858 4394 
Q 1294 4750 2059 4750 
Q 2388 4750 2728 4690 
Q 3069 4631 3425 4513 
z
" transform="scale(0.015625)"/>
       <path id="DejaVuSans-74" d="M 1172 4494 
L 1172 3500 
L 2356 3500 
L 2356 3053 
L 1172 3053 
L 1172 1153 
Q 1172 725 1289 603 
Q 1406 481 1766 481 
L 2356 481 
L 2356 0 
L 1766 0 
Q 1100 0 847 248 
Q 594 497 594 1153 
L 594 3053 
L 172 3053 
L 172 3500 
L 594 3500 
L 594 4494 
L 1172 4494 
z
" transform="scale(0.015625)"/>
       <path id="DejaVuSans-64" d="M 2906 2969 
L 2906 4863 
L 3481 4863 
L 3481 0 
L 2906 0 
L 2906 525 
Q 2725 213 2448 61 
Q 2172 -91 1784 -91 
Q 1150 -91 751 415 
Q 353 922 353 1747 
Q 353 2572 751 3078 
Q 1150 3584 1784 3584 
Q 2172 3584 2448 3432 
Q 2725 3281 2906 2969 
z
M 947 1747 
Q 947 1113 1208 752 
Q 1469 391 1925 391 
Q 2381 391 2643 752 
Q 2906 1113 2906 1747 
Q 2906 2381 2643 2742 
Q 2381 3103 1925 3103 
Q 1469 3103 1208 2742 
Q 947 2381 947 1747 
z
" transform="scale(0.015625)"/>
       <path id="DejaVuSans-4d" d="M 628 4666 
L 1569 4666 
L 2759 1491 
L 3956 4666 
L 4897 4666 
L 4897 0 
L 4281 0 
L 4281 4097 
L 3078 897 
L 2444 897 
L 1241 4097 
L 1241 0 
L 628 0 
L 628 4666 
z
" transform="scale(0.015625)"/>
       <path id="DejaVuSans-6f" d="M 1959 3097 
Q 1497 3097 1228 2736 
Q 959 2375 959 1747 
Q 959 1119 1226 758 
Q 1494 397 1959 397 
Q 2419 397 2687 759 
Q 2956 1122 2956 1747 
Q 2956 2369 2687 2733 
Q 2419 3097 1959 3097 
z
M 1959 3584 
Q 2709 3584 3137 3096 
Q 3566 2609 3566 1747 
Q 3566 888 3137 398 
Q 2709 -91 1959 -91 
Q 1206 -91 779 398 
Q 353 888 353 1747 
Q 353 2609 779 3096 
Q 1206 3584 1959 3584 
z
" transform="scale(0.015625)"/>
       <path id="DejaVuSans-73" d="M 2834 3397 
L 2834 2853 
Q 2591 2978 2328 3040 
Q 2066 3103 1784 3103 
Q 1356 3103 1142 2972 
Q 928 2841 928 2578 
Q 928 2378 1081 2264 
Q 1234 2150 1697 2047 
L 1894 2003 
Q 2506 1872 2764 1633 
Q 3022 1394 3022 966 
Q 3022 478 2636 193 
Q 2250 -91 1575 -91 
Q 1294 -91 989 -36 
Q 684 19 347 128 
L 347 722 
Q 666 556 975 473 
Q 1284 391 1588 391 
Q 1994 391 2212 530 
Q 2431 669 2431 922 
Q 2431 1156 2273 1281 
Q 2116 1406 1581 1522 
L 1381 1569 
Q 847 1681 609 1914 
Q 372 2147 372 2553 
Q 372 3047 722 3315 
Q 1072 3584 1716 3584 
Q 2034 3584 2315 3537 
Q 2597 3491 2834 3397 
z
" transform="scale(0.015625)"/>
       <path id="DejaVuSans-6e" d="M 3513 2113 
L 3513 0 
L 2938 0 
L 2938 2094 
Q 2938 2591 2744 2837 
Q 2550 3084 2163 3084 
Q 1697 3084 1428 2787 
Q 1159 2491 1159 1978 
L 1159 0 
L 581 0 
L 581 3500 
L 1159 3500 
L 1159 2956 
Q 1366 3272 1645 3428 
Q 1925 3584 2291 3584 
Q 2894 3584 3203 3211 
Q 3513 2838 3513 2113 
z
" transform="scale(0.015625)"/>
       <path id="DejaVuSans-76" d="M 191 3500 
L 800 3500 
L 1894 563 
L 2988 3500 
L 3597 3500 
L 2284 0 
L 1503 0 
L 191 3500 
z
" transform="scale(0.015625)"/>
       <path id="DejaVuSans-79" d="M 2059 -325 
Q 1816 -950 1584 -1140 
Q 1353 -1331 966 -1331 
L 506 -1331 
L 506 -850 
L 844 -850 
Q 1081 -850 1212 -737 
Q 1344 -625 1503 -206 
L 1606 56 
L 191 3500 
L 800 3500 
L 1894 763 
L 2988 3500 
L 3597 3500 
L 2059 -325 
z
" transform="scale(0.015625)"/>
       <path id="DejaVuSans-2c" d="M 750 794 
L 1409 794 
L 1409 256 
L 897 -744 
L 494 -744 
L 750 256 
L 750 794 
z
" transform="scale(0.015625)"/>
       <path id="DejaVuSans-Oblique-3c3" d="M 2219 3044 
Q 1744 3044 1422 2700 
Q 1081 2341 969 1747 
Q 844 1119 1044 756 
Q 1241 397 1706 397 
Q 2166 397 2503 759 
Q 2844 1122 2966 1747 
Q 3075 2319 2881 2700 
Q 2700 3044 2219 3044 
z
M 2309 3503 
L 4219 3500 
L 4106 2925 
L 3463 2925 
Q 3706 2438 3575 1747 
Q 3406 888 2884 400 
Q 2359 -91 1609 -91 
Q 856 -91 525 400 
Q 194 888 363 1747 
Q 528 2609 1050 3097 
Q 1484 3503 2309 3503 
z
" transform="scale(0.015625)"/>
      </defs>
      <use xlink:href="#DejaVuSans-53" transform="translate(0 0.015625)"/>
      <use xlink:href="#DejaVuSans-74" transform="translate(63.476562 0.015625)"/>
      <use xlink:href="#DejaVuSans-64" transform="translate(102.685547 0.015625)"/>
      <use xlink:href="#DejaVuSans-2e" transform="translate(166.162109 0.015625)"/>
      <use xlink:href="#DejaVuSans-20" transform="translate(197.949219 0.015625)"/>
      <use xlink:href="#DejaVuSans-4d" transform="translate(229.736328 0.015625)"/>
      <use xlink:href="#DejaVuSans-6f" transform="translate(316.015625 0.015625)"/>
      <use xlink:href="#DejaVuSans-72" transform="translate(377.197266 0.015625)"/>
      <use xlink:href="#DejaVuSans-72" transform="translate(418.310547 0.015625)"/>
      <use xlink:href="#DejaVuSans-69" transform="translate(459.423828 0.015625)"/>
      <use xlink:href="#DejaVuSans-73" transform="translate(487.207031 0.015625)"/>
      <use xlink:href="#DejaVuSans-20" transform="translate(539.306641 0.015625)"/>
      <use xlink:href="#DejaVuSans-53" transform="translate(571.09375 0.015625)"/>
      <use xlink:href="#DejaVuSans-65" transform="translate(634.570312 0.015625)"/>
      <use xlink:href="#DejaVuSans-6e" transform="translate(696.09375 0.015625)"/>
      <use xlink:href="#DejaVuSans-73" transform="translate(759.472656 0.015625)"/>
      <use xlink:href="#DejaVuSans-69" transform="translate(811.572266 0.015625)"/>
      <use xlink:href="#DejaVuSans-74" transform="translate(839.355469 0.015625)"/>
      <use xlink:href="#DejaVuSans-69" transform="translate(878.564453 0.015625)"/>
      <use xlink:href="#DejaVuSans-76" transform="translate(906.347656 0.015625)"/>
      <use xlink:href="#DejaVuSans-69" transform="translate(965.527344 0.015625)"/>
      <use xlink:href="#DejaVuSans-74" transform="translate(993.310547 0.015625)"/>
      <use xlink:href="#DejaVuSans-79" transform="translate(1032.519531 0.015625)"/>
      <use xlink:href="#DejaVuSans-2c" transform="translate(1091.699219 0.015625)"/>
      <use xlink:href="#DejaVuSans-20" transform="translate(1123.486328 0.015625)"/>
      <use xlink:href="#DejaVuSans-Oblique-3c3" transform="translate(1155.273438 0.015625)"/>
     </g>
    </g>
   </g>
   <g id="line2d_11">
    <path d="M 108.748636 264.166364 
L 109.062584 31.093636 
L 109.376531 34.1573 
L 110.004425 45.167514 
L 110.946267 69.664986 
L 112.82995 121.037551 
L 114.085739 147.94034 
L 115.02758 163.796249 
L 115.969422 176.524338 
L 116.911264 186.691922 
L 117.853105 194.788657 
L 118.794947 201.20764 
L 119.736788 206.256082 
L 120.67863 210.173335 
L 121.620472 213.148132 
L 122.562313 215.332475 
L 123.504155 216.851781 
L 124.445996 217.811728 
L 125.073891 218.186063 
L 125.701785 218.375697 
L 126.32968 218.401877 
L 127.271521 218.176031 
L 128.213363 217.681637 
L 129.469152 216.686185 
L 130.724941 215.389726 
L 132.294677 213.454011 
L 134.492307 210.336656 
L 137.317832 205.903489 
L 142.02704 198.030087 
L 153.957034 177.94011 
L 159.92203 168.380934 
L 165.57308 159.736895 
L 170.910182 151.960702 
L 176.247285 144.565318 
L 181.584387 137.547888 
L 186.92149 130.901566 
L 192.258592 124.617095 
L 197.595695 118.683711 
L 202.932797 113.089723 
L 208.2699 107.822874 
L 213.607002 102.870264 
L 214.234896 102.308053 
L 214.862791 190.094127 
L 215.176738 209.081866 
L 215.804632 228.052881 
L 216.432527 236.850139 
L 217.060421 241.65834 
L 217.688316 244.477831 
L 218.31621 246.098504 
L 218.944104 246.909217 
L 219.571999 247.14384 
L 220.199893 246.962558 
L 220.827788 246.481123 
L 221.769629 245.373898 
L 223.025418 243.453396 
L 224.909101 240.087305 
L 228.36252 233.364803 
L 239.978567 210.527817 
L 245.943564 199.353692 
L 251.594613 189.209551 
L 257.245663 179.513845 
L 262.896713 170.27338 
L 268.233815 161.964439 
L 273.570918 154.05799 
L 278.90802 146.547643 
L 284.245123 139.425014 
L 289.582225 132.680249 
L 294.919327 126.30242 
L 300.25643 120.27985 
L 305.593532 114.600346 
L 310.930635 109.251391 
L 316.267737 104.220276 
L 321.60484 99.494202 
L 326.941942 95.06036 
L 332.279045 90.905973 
L 337.930094 86.797701 
L 343.581144 82.97356 
L 349.232193 79.418777 
L 354.883243 76.118778 
L 360.84824 72.896003 
L 366.813237 69.924558 
L 373.092181 67.050446 
L 379.371125 64.418498 
L 385.964016 61.896131 
L 392.870855 59.497448 
L 400.09164 57.233341 
L 407.626373 55.111466 
L 415.475053 53.136354 
L 423.63768 51.311484 
L 425.207416 50.982741 
L 425.521364 140.029767 
L 425.521364 140.029767 
" clip-path="url(#pbeba0efa60)" style="fill: none; stroke: #7dba91; stroke-width: 2.25; stroke-linecap: round"/>
   </g>
   <g id="line2d_12">
    <path d="M 108.748636 264.166364 
L 109.062584 57.100833 
L 109.690478 70.384285 
L 112.202056 131.994096 
L 113.143897 149.32238 
L 114.399686 167.836244 
L 115.655475 182.395983 
L 116.911264 193.945682 
L 118.167052 203.161367 
L 119.422841 210.570425 
L 120.67863 216.586159 
L 121.934419 221.526515 
L 123.190208 225.632464 
L 124.445996 229.085414 
L 126.015732 232.688102 
L 127.585469 235.677672 
L 129.155205 238.194342 
L 130.724941 240.339913 
L 132.608624 242.529207 
L 134.492307 244.386774 
L 136.689937 246.225951 
L 138.887568 247.787002 
L 141.399145 249.303969 
L 144.22467 250.743677 
L 147.364142 252.085897 
L 150.817561 253.320423 
L 154.898875 254.529173 
L 159.294136 255.60002 
L 164.631238 256.658684 
L 170.596235 257.608482 
L 177.503074 258.482719 
L 185.665701 259.290447 
L 195.398064 260.028032 
L 207.328058 260.703474 
L 214.234896 261.012926 
L 214.548844 263.714019 
L 216.11858 263.940655 
L 219.258052 264.066921 
L 229.304362 264.133629 
L 289.896172 264.162066 
L 425.521364 264.166027 
L 425.521364 264.166027 
" clip-path="url(#pbeba0efa60)" style="fill: none; stroke: #59a590; stroke-width: 2.25; stroke-linecap: round"/>
   </g>
   <g id="line2d_13">
    <path d="M 108.748636 264.166364 
L 110.004425 262.521628 
L 112.516003 258.669845 
L 115.969422 252.967146 
L 131.038888 227.632353 
L 137.631779 217.110841 
L 143.910723 207.505437 
L 149.87572 198.779004 
L 155.840717 190.453798 
L 161.491766 182.941393 
L 167.142816 175.792245 
L 172.793866 169.000493 
L 178.444915 162.556525 
L 184.095965 156.447829 
L 189.747015 150.659848 
L 195.398064 145.176769 
L 201.363061 139.701779 
L 207.328058 134.529123 
L 213.293055 129.641207 
L 214.234896 128.893156 
L 214.548844 233.740906 
L 215.176738 244.609737 
L 215.804632 249.716094 
L 216.432527 252.365199 
L 217.060421 253.6518 
L 217.374368 253.96144 
L 217.688316 254.107622 
L 218.31621 254.03206 
L 218.944104 253.614058 
L 219.885946 252.600214 
L 221.141735 250.863834 
L 223.339365 247.395668 
L 230.246204 235.848744 
L 237.780937 223.48561 
L 244.373828 213.105049 
L 250.338825 204.112205 
L 256.303822 195.518949 
L 261.954871 187.755454 
L 267.605921 180.36122 
L 273.25697 173.33283 
L 278.90802 166.662455 
L 284.55907 160.338744 
L 290.210119 154.347741 
L 295.861169 148.673762 
L 301.512219 143.300193 
L 307.477216 137.93538 
L 313.442212 132.867077 
L 319.721156 127.832031 
L 326.0001 123.085005 
L 332.279045 118.607784 
L 338.871936 114.179232 
L 345.464827 110.013375 
L 352.371665 105.914782 
L 359.278504 102.073167 
L 366.49929 98.317032 
L 373.720075 94.812878 
L 381.254808 91.410748 
L 388.789541 88.254235 
L 396.638221 85.212232 
L 404.486901 82.40577 
L 412.649528 79.720114 
L 421.126103 77.16471 
L 425.207416 76.012773 
L 425.521364 213.827943 
L 425.521364 213.827943 
" clip-path="url(#pbeba0efa60)" style="fill: none; stroke: #40908e; stroke-width: 2.25; stroke-linecap: round"/>
   </g>
   <g id="line2d_14">
    <path d="M 108.748636 264.166364 
L 214.234896 264.166364 
L 214.548844 112.69088 
L 214.862791 148.455215 
L 215.490685 182.041997 
L 216.11858 200.963354 
L 216.746474 213.375529 
L 217.374368 222.024354 
L 218.002263 228.318165 
L 218.944104 235.021991 
L 219.885946 239.703243 
L 220.827788 243.141507 
L 221.769629 245.767474 
L 222.711471 247.835754 
L 223.96726 249.992753 
L 225.223048 251.670933 
L 226.478837 253.013109 
L 228.048573 254.354449 
L 229.932257 255.615694 
L 231.81594 256.61031 
L 234.01357 257.533882 
L 236.839095 258.459712 
L 239.978567 259.251521 
L 244.059881 260.03248 
L 249.083036 260.742444 
L 255.36198 261.384623 
L 263.21066 261.952586 
L 273.570918 262.46613 
L 287.384595 262.914141 
L 306.535374 263.29672 
L 334.162728 263.608633 
L 377.173494 263.849936 
L 425.207416 263.978081 
L 425.521364 101.066089 
L 425.521364 101.066089 
" clip-path="url(#pbeba0efa60)" style="fill: none; stroke: #287a8c; stroke-width: 2.25; stroke-linecap: round"/>
   </g>
   <g id="line2d_15">
    <path d="M 108.748636 264.166364 
L 214.234896 264.166364 
L 214.548844 129.930919 
L 214.862791 159.733027 
L 215.490685 192.59212 
L 216.11858 211.122081 
L 216.746474 222.458573 
L 217.374368 229.957457 
L 218.002263 235.246216 
L 218.630157 239.163661 
L 219.571999 243.436006 
L 220.51384 246.501048 
L 221.455682 248.804836 
L 222.397524 250.598555 
L 223.653312 252.450951 
L 224.909101 253.879883 
L 226.478837 255.263525 
L 228.048573 256.338817 
L 229.932257 257.349721 
L 232.129887 258.263339 
L 234.641465 259.068516 
L 237.780937 259.834478 
L 241.548303 260.521172 
L 246.257511 261.151066 
L 252.222508 261.721965 
L 260.071188 262.241906 
L 270.745393 262.709371 
L 285.500911 263.113119 
L 306.535374 263.448721 
L 338.557989 263.718912 
L 392.24296 263.925083 
L 425.207416 263.990301 
L 425.521364 117.370004 
L 425.521364 117.370004 
" clip-path="url(#pbeba0efa60)" style="fill: none; stroke: #1c6488; stroke-width: 2.25; stroke-linecap: round"/>
   </g>
   <g id="line2d_16">
    <path d="M 108.748636 264.166364 
L 214.234896 264.166364 
L 214.548844 130.584088 
L 214.862791 171.165112 
L 215.176738 192.117498 
L 215.804632 213.601972 
L 216.432527 225.03417 
L 217.060421 232.26734 
L 217.688316 237.273633 
L 218.31621 240.944167 
L 219.258052 244.916153 
L 220.199893 247.747095 
L 221.141735 249.864876 
L 222.083576 251.507798 
L 223.339365 253.199009 
L 224.595154 254.499916 
L 226.16489 255.756749 
L 227.734626 256.731831 
L 229.618309 257.647571 
L 231.81594 258.474883 
L 234.641465 259.283271 
L 238.094884 260.017172 
L 242.490145 260.69722 
L 247.827247 261.288599 
L 255.048033 261.847416 
L 264.466449 262.33955 
L 277.338284 262.778602 
L 295.547222 263.164482 
L 322.546681 263.495613 
L 363.987712 263.761786 
L 425.207416 263.946885 
L 425.521364 112.502316 
L 425.521364 112.502316 
" clip-path="url(#pbeba0efa60)" style="fill: none; stroke: #254b7f; stroke-width: 2.25; stroke-linecap: round"/>
   </g>
   <g id="line2d_17">
    <path d="M 108.748636 264.166364 
L 109.062584 31.093636 
L 109.376531 34.1573 
L 110.004425 45.167514 
L 110.946267 69.664986 
L 112.82995 121.037551 
L 114.085739 147.94034 
L 115.02758 163.796249 
L 115.969422 176.524338 
L 116.911264 186.691922 
L 117.853105 194.788657 
L 118.794947 201.20764 
L 119.736788 206.256082 
L 120.67863 210.173335 
L 121.620472 213.148132 
L 122.562313 215.332475 
L 123.504155 216.851781 
L 124.445996 217.811728 
L 125.073891 218.186063 
L 125.701785 218.375697 
L 126.32968 218.401877 
L 127.271521 218.176031 
L 128.213363 217.681637 
L 129.469152 216.686185 
L 130.724941 215.389726 
L 132.294677 213.454011 
L 134.492307 210.336656 
L 137.317832 205.903489 
L 142.02704 198.030087 
L 153.957034 177.94011 
L 159.92203 168.380934 
L 165.57308 159.736895 
L 170.910182 151.960702 
L 176.247285 144.565318 
L 181.584387 137.547888 
L 186.92149 130.901566 
L 192.258592 124.617095 
L 197.595695 118.683711 
L 202.932797 113.089723 
L 208.2699 107.822874 
L 213.607002 102.870264 
L 214.234896 102.308053 
L 214.862791 190.094127 
L 215.176738 209.081866 
L 215.804632 228.052881 
L 216.432527 236.850139 
L 217.060421 241.65834 
L 217.688316 244.477831 
L 218.31621 246.098504 
L 218.944104 246.909217 
L 219.571999 247.14384 
L 220.199893 246.962558 
L 220.827788 246.481123 
L 221.769629 245.373898 
L 223.025418 243.453396 
L 224.909101 240.087305 
L 228.36252 233.364803 
L 239.978567 210.527817 
L 245.943564 199.353692 
L 251.594613 189.209551 
L 257.245663 179.513845 
L 262.896713 170.27338 
L 268.233815 161.964439 
L 273.570918 154.05799 
L 278.90802 146.547643 
L 284.245123 139.425014 
L 289.582225 132.680249 
L 294.919327 126.30242 
L 300.25643 120.27985 
L 305.593532 114.600346 
L 310.930635 109.251391 
L 316.267737 104.220276 
L 321.60484 99.494202 
L 326.941942 95.06036 
L 332.279045 90.905973 
L 337.930094 86.797701 
L 343.581144 82.97356 
L 349.232193 79.418777 
L 354.883243 76.118778 
L 360.84824 72.896003 
L 366.813237 69.924558 
L 373.092181 67.050446 
L 379.371125 64.418498 
L 385.964016 61.896131 
L 392.870855 59.497448 
L 400.09164 57.233341 
L 407.626373 55.111466 
L 415.475053 53.136354 
L 423.63768 51.311484 
L 425.207416 50.982741 
L 425.521364 140.029767 
L 425.521364 140.029767 
" clip-path="url(#pbeba0efa60)" style="fill: none; stroke-dasharray: 2.25,3.7125; stroke-dashoffset: 0; stroke: #7dba91; stroke-width: 2.25"/>
   </g>
   <g id="line2d_18">
    <path d="M 108.748636 264.166364 
L 109.062584 57.100833 
L 109.690478 70.384285 
L 112.202056 131.994096 
L 113.143897 149.32238 
L 114.399686 167.836244 
L 115.655475 182.395983 
L 116.911264 193.945682 
L 118.167052 203.161367 
L 119.422841 210.570425 
L 120.67863 216.586159 
L 121.934419 221.526515 
L 123.190208 225.632464 
L 124.445996 229.085414 
L 126.015732 232.688102 
L 127.585469 235.677672 
L 129.155205 238.194342 
L 130.724941 240.339913 
L 132.608624 242.529207 
L 134.492307 244.386774 
L 136.689937 246.225951 
L 138.887568 247.787002 
L 141.399145 249.303969 
L 144.22467 250.743677 
L 147.364142 252.085897 
L 150.817561 253.320423 
L 154.898875 254.529173 
L 159.294136 255.60002 
L 164.631238 256.658684 
L 170.596235 257.608482 
L 177.503074 258.482719 
L 185.665701 259.290447 
L 195.398064 260.028032 
L 207.328058 260.703474 
L 214.234896 261.012926 
L 214.548844 263.714019 
L 216.11858 263.940655 
L 219.258052 264.066921 
L 229.304362 264.133629 
L 289.896172 264.162066 
L 425.521364 264.166027 
L 425.521364 264.166027 
" clip-path="url(#pbeba0efa60)" style="fill: none; stroke-dasharray: 2.25,3.7125; stroke-dashoffset: 0; stroke: #59a590; stroke-width: 2.25"/>
   </g>
   <g id="line2d_19">
    <path d="M 108.748636 264.166364 
L 110.004425 262.521628 
L 112.516003 258.669845 
L 115.969422 252.967146 
L 131.038888 227.632353 
L 137.631779 217.110841 
L 143.910723 207.505437 
L 149.87572 198.779004 
L 155.840717 190.453798 
L 161.491766 182.941393 
L 167.142816 175.792245 
L 172.793866 169.000493 
L 178.444915 162.556525 
L 184.095965 156.447829 
L 189.747015 150.659848 
L 195.398064 145.176769 
L 201.363061 139.701779 
L 207.328058 134.529123 
L 213.293055 129.641207 
L 214.234896 128.893156 
L 214.548844 233.740906 
L 215.176738 244.609737 
L 215.804632 249.716094 
L 216.432527 252.365199 
L 217.060421 253.6518 
L 217.374368 253.96144 
L 217.688316 254.107622 
L 218.31621 254.03206 
L 218.944104 253.614058 
L 219.885946 252.600214 
L 221.141735 250.863834 
L 223.339365 247.395668 
L 230.246204 235.848744 
L 237.780937 223.48561 
L 244.373828 213.105049 
L 250.338825 204.112205 
L 256.303822 195.518949 
L 261.954871 187.755454 
L 267.605921 180.36122 
L 273.25697 173.33283 
L 278.90802 166.662455 
L 284.55907 160.338744 
L 290.210119 154.347741 
L 295.861169 148.673762 
L 301.512219 143.300193 
L 307.477216 137.93538 
L 313.442212 132.867077 
L 319.721156 127.832031 
L 326.0001 123.085005 
L 332.279045 118.607784 
L 338.871936 114.179232 
L 345.464827 110.013375 
L 352.371665 105.914782 
L 359.278504 102.073167 
L 366.49929 98.317032 
L 373.720075 94.812878 
L 381.254808 91.410748 
L 388.789541 88.254235 
L 396.638221 85.212232 
L 404.486901 82.40577 
L 412.649528 79.720114 
L 421.126103 77.16471 
L 425.207416 76.012773 
L 425.521364 213.827943 
L 425.521364 213.827943 
" clip-path="url(#pbeba0efa60)" style="fill: none; stroke-dasharray: 2.25,3.7125; stroke-dashoffset: 0; stroke: #40908e; stroke-width: 2.25"/>
   </g>
   <g id="line2d_20">
    <path d="M 108.748636 264.166364 
L 214.234896 264.166364 
L 214.548844 112.69088 
L 214.862791 148.455215 
L 215.490685 182.041997 
L 216.11858 200.963354 
L 216.746474 213.375529 
L 217.374368 222.024354 
L 218.002263 228.318165 
L 218.944104 235.021991 
L 219.885946 239.703243 
L 220.827788 243.141507 
L 221.769629 245.767474 
L 222.711471 247.835754 
L 223.96726 249.992753 
L 225.223048 251.670933 
L 226.478837 253.013109 
L 228.048573 254.354449 
L 229.932257 255.615694 
L 231.81594 256.61031 
L 234.01357 257.533882 
L 236.839095 258.459712 
L 239.978567 259.251521 
L 244.059881 260.03248 
L 249.083036 260.742444 
L 255.36198 261.384623 
L 263.21066 261.952586 
L 273.570918 262.46613 
L 287.384595 262.914141 
L 306.535374 263.29672 
L 334.162728 263.608633 
L 377.173494 263.849936 
L 425.207416 263.978081 
L 425.521364 101.066089 
L 425.521364 101.066089 
" clip-path="url(#pbeba0efa60)" style="fill: none; stroke-dasharray: 2.25,3.7125; stroke-dashoffset: 0; stroke: #287a8c; stroke-width: 2.25"/>
   </g>
   <g id="line2d_21">
    <path d="M 108.748636 264.166364 
L 214.234896 264.166364 
L 214.548844 129.930919 
L 214.862791 159.733027 
L 215.490685 192.59212 
L 216.11858 211.122081 
L 216.746474 222.458573 
L 217.374368 229.957457 
L 218.002263 235.246216 
L 218.630157 239.163661 
L 219.571999 243.436006 
L 220.51384 246.501048 
L 221.455682 248.804836 
L 222.397524 250.598555 
L 223.653312 252.450951 
L 224.909101 253.879883 
L 226.478837 255.263525 
L 228.048573 256.338817 
L 229.932257 257.349721 
L 232.129887 258.263339 
L 234.641465 259.068516 
L 237.780937 259.834478 
L 241.548303 260.521172 
L 246.257511 261.151066 
L 252.222508 261.721965 
L 260.071188 262.241906 
L 270.745393 262.709371 
L 285.500911 263.113119 
L 306.535374 263.448721 
L 338.557989 263.718912 
L 392.24296 263.925083 
L 425.207416 263.990301 
L 425.521364 117.370004 
L 425.521364 117.370004 
" clip-path="url(#pbeba0efa60)" style="fill: none; stroke-dasharray: 2.25,3.7125; stroke-dashoffset: 0; stroke: #1c6488; stroke-width: 2.25"/>
   </g>
   <g id="line2d_22">
    <path d="M 108.748636 264.166364 
L 214.234896 264.166364 
L 214.548844 130.584088 
L 214.862791 171.165112 
L 215.176738 192.117498 
L 215.804632 213.601972 
L 216.432527 225.03417 
L 217.060421 232.26734 
L 217.688316 237.273633 
L 218.31621 240.944167 
L 219.258052 244.916153 
L 220.199893 247.747095 
L 221.141735 249.864876 
L 222.083576 251.507798 
L 223.339365 253.199009 
L 224.595154 254.499916 
L 226.16489 255.756749 
L 227.734626 256.731831 
L 229.618309 257.647571 
L 231.81594 258.474883 
L 234.641465 259.283271 
L 238.094884 260.017172 
L 242.490145 260.69722 
L 247.827247 261.288599 
L 255.048033 261.847416 
L 264.466449 262.33955 
L 277.338284 262.778602 
L 295.547222 263.164482 
L 322.546681 263.495613 
L 363.987712 263.761786 
L 425.207416 263.946885 
L 425.521364 112.502316 
L 425.521364 112.502316 
" clip-path="url(#pbeba0efa60)" style="fill: none; stroke-dasharray: 2.25,3.7125; stroke-dashoffset: 0; stroke: #254b7f; stroke-width: 2.25"/>
   </g>
   <g id="line2d_23">
    <path d="M 108.748636 264.166364 
L 109.062584 31.093636 
L 109.376531 34.1573 
L 110.004425 45.167514 
L 110.946267 69.664986 
L 112.82995 121.037551 
L 114.085739 147.94034 
L 115.02758 163.796249 
L 115.969422 176.524338 
L 116.911264 186.691922 
L 117.853105 194.788657 
L 118.794947 201.20764 
L 119.736788 206.256082 
L 120.67863 210.173335 
L 121.620472 213.148132 
L 122.562313 215.332475 
L 123.504155 216.851781 
L 124.445996 217.811728 
L 125.073891 218.186063 
L 125.701785 218.375697 
L 126.32968 218.401877 
L 127.271521 218.176031 
L 128.213363 217.681637 
L 129.469152 216.686185 
L 130.724941 215.389726 
L 132.294677 213.454011 
L 134.492307 210.336656 
L 137.317832 205.903489 
L 142.02704 198.030087 
L 153.957034 177.94011 
L 159.92203 168.380934 
L 165.57308 159.736895 
L 170.910182 151.960702 
L 176.247285 144.565318 
L 181.584387 137.547888 
L 186.92149 130.901566 
L 192.258592 124.617095 
L 197.595695 118.683711 
L 202.932797 113.089723 
L 208.2699 107.822874 
L 213.607002 102.870264 
L 214.234896 102.308053 
L 214.862791 190.094127 
L 215.176738 209.081866 
L 215.804632 228.052881 
L 216.432527 236.850139 
L 217.060421 241.65834 
L 217.688316 244.477831 
L 218.31621 246.098504 
L 218.944104 246.909217 
L 219.571999 247.14384 
L 220.199893 246.962558 
L 220.827788 246.481123 
L 221.769629 245.373898 
L 223.025418 243.453396 
L 224.909101 240.087305 
L 228.36252 233.364803 
L 239.978567 210.527817 
L 245.943564 199.353692 
L 251.594613 189.209551 
L 257.245663 179.513845 
L 262.896713 170.27338 
L 268.233815 161.964439 
L 273.570918 154.05799 
L 278.90802 146.547643 
L 284.245123 139.425014 
L 289.582225 132.680249 
L 294.919327 126.30242 
L 300.25643 120.27985 
L 305.593532 114.600346 
L 310.930635 109.251391 
L 316.267737 104.220276 
L 321.60484 99.494202 
L 326.941942 95.06036 
L 332.279045 90.905973 
L 337.930094 86.797701 
L 343.581144 82.97356 
L 349.232193 79.418777 
L 354.883243 76.118778 
L 360.84824 72.896003 
L 366.813237 69.924558 
L 373.092181 67.050446 
L 379.371125 64.418498 
L 385.964016 61.896131 
L 392.870855 59.497448 
L 400.09164 57.233341 
L 407.626373 55.111466 
L 415.475053 53.136354 
L 423.63768 51.311484 
L 425.207416 50.982741 
L 425.521364 140.029767 
L 425.521364 140.029767 
" clip-path="url(#pbeba0efa60)" style="fill: none; stroke-dasharray: 8.325,3.6; stroke-dashoffset: 0; stroke: #7dba91; stroke-width: 2.25"/>
   </g>
   <g id="line2d_24">
    <path d="M 108.748636 264.166364 
L 109.062584 57.100833 
L 109.690478 70.384285 
L 112.202056 131.994096 
L 113.143897 149.32238 
L 114.399686 167.836244 
L 115.655475 182.395983 
L 116.911264 193.945682 
L 118.167052 203.161367 
L 119.422841 210.570425 
L 120.67863 216.586159 
L 121.934419 221.526515 
L 123.190208 225.632464 
L 124.445996 229.085414 
L 126.015732 232.688102 
L 127.585469 235.677672 
L 129.155205 238.194342 
L 130.724941 240.339913 
L 132.608624 242.529207 
L 134.492307 244.386774 
L 136.689937 246.225951 
L 138.887568 247.787002 
L 141.399145 249.303969 
L 144.22467 250.743677 
L 147.364142 252.085897 
L 150.817561 253.320423 
L 154.898875 254.529173 
L 159.294136 255.60002 
L 164.631238 256.658684 
L 170.596235 257.608482 
L 177.503074 258.482719 
L 185.665701 259.290447 
L 195.398064 260.028032 
L 207.328058 260.703474 
L 214.234896 261.012926 
L 214.548844 263.714019 
L 216.11858 263.940655 
L 219.258052 264.066921 
L 229.304362 264.133629 
L 289.896172 264.162066 
L 425.521364 264.166027 
L 425.521364 264.166027 
" clip-path="url(#pbeba0efa60)" style="fill: none; stroke-dasharray: 8.325,3.6; stroke-dashoffset: 0; stroke: #59a590; stroke-width: 2.25"/>
   </g>
   <g id="line2d_25">
    <path d="M 108.748636 264.166364 
L 110.004425 262.521628 
L 112.516003 258.669845 
L 115.969422 252.967146 
L 131.038888 227.632353 
L 137.631779 217.110841 
L 143.910723 207.505437 
L 149.87572 198.779004 
L 155.840717 190.453798 
L 161.491766 182.941393 
L 167.142816 175.792245 
L 172.793866 169.000493 
L 178.444915 162.556525 
L 184.095965 156.447829 
L 189.747015 150.659848 
L 195.398064 145.176769 
L 201.363061 139.701779 
L 207.328058 134.529123 
L 213.293055 129.641207 
L 214.234896 128.893156 
L 214.548844 233.740906 
L 215.176738 244.609737 
L 215.804632 249.716094 
L 216.432527 252.365199 
L 217.060421 253.6518 
L 217.374368 253.96144 
L 217.688316 254.107622 
L 218.31621 254.03206 
L 218.944104 253.614058 
L 219.885946 252.600214 
L 221.141735 250.863834 
L 223.339365 247.395668 
L 230.246204 235.848744 
L 237.780937 223.48561 
L 244.373828 213.105049 
L 250.338825 204.112205 
L 256.303822 195.518949 
L 261.954871 187.755454 
L 267.605921 180.36122 
L 273.25697 173.33283 
L 278.90802 166.662455 
L 284.55907 160.338744 
L 290.210119 154.347741 
L 295.861169 148.673762 
L 301.512219 143.300193 
L 307.477216 137.93538 
L 313.442212 132.867077 
L 319.721156 127.832031 
L 326.0001 123.085005 
L 332.279045 118.607784 
L 338.871936 114.179232 
L 345.464827 110.013375 
L 352.371665 105.914782 
L 359.278504 102.073167 
L 366.49929 98.317032 
L 373.720075 94.812878 
L 381.254808 91.410748 
L 388.789541 88.254235 
L 396.638221 85.212232 
L 404.486901 82.40577 
L 412.649528 79.720114 
L 421.126103 77.16471 
L 425.207416 76.012773 
L 425.521364 213.827943 
L 425.521364 213.827943 
" clip-path="url(#pbeba0efa60)" style="fill: none; stroke-dasharray: 8.325,3.6; stroke-dashoffset: 0; stroke: #40908e; stroke-width: 2.25"/>
   </g>
   <g id="line2d_26">
    <path d="M 108.748636 264.166364 
L 214.234896 264.166364 
L 214.548844 112.69088 
L 214.862791 148.455215 
L 215.490685 182.041997 
L 216.11858 200.963354 
L 216.746474 213.375529 
L 217.374368 222.024354 
L 218.002263 228.318165 
L 218.944104 235.021991 
L 219.885946 239.703243 
L 220.827788 243.141507 
L 221.769629 245.767474 
L 222.711471 247.835754 
L 223.96726 249.992753 
L 225.223048 251.670933 
L 226.478837 253.013109 
L 228.048573 254.354449 
L 229.932257 255.615694 
L 231.81594 256.61031 
L 234.01357 257.533882 
L 236.839095 258.459712 
L 239.978567 259.251521 
L 244.059881 260.03248 
L 249.083036 260.742444 
L 255.36198 261.384623 
L 263.21066 261.952586 
L 273.570918 262.46613 
L 287.384595 262.914141 
L 306.535374 263.29672 
L 334.162728 263.608633 
L 377.173494 263.849936 
L 425.207416 263.978081 
L 425.521364 101.066089 
L 425.521364 101.066089 
" clip-path="url(#pbeba0efa60)" style="fill: none; stroke-dasharray: 8.325,3.6; stroke-dashoffset: 0; stroke: #287a8c; stroke-width: 2.25"/>
   </g>
   <g id="line2d_27">
    <path d="M 108.748636 264.166364 
L 214.234896 264.166364 
L 214.548844 129.930919 
L 214.862791 159.733027 
L 215.490685 192.59212 
L 216.11858 211.122081 
L 216.746474 222.458573 
L 217.374368 229.957457 
L 218.002263 235.246216 
L 218.630157 239.163661 
L 219.571999 243.436006 
L 220.51384 246.501048 
L 221.455682 248.804836 
L 222.397524 250.598555 
L 223.653312 252.450951 
L 224.909101 253.879883 
L 226.478837 255.263525 
L 228.048573 256.338817 
L 229.932257 257.349721 
L 232.129887 258.263339 
L 234.641465 259.068516 
L 237.780937 259.834478 
L 241.548303 260.521172 
L 246.257511 261.151066 
L 252.222508 261.721965 
L 260.071188 262.241906 
L 270.745393 262.709371 
L 285.500911 263.113119 
L 306.535374 263.448721 
L 338.557989 263.718912 
L 392.24296 263.925083 
L 425.207416 263.990301 
L 425.521364 117.370004 
L 425.521364 117.370004 
" clip-path="url(#pbeba0efa60)" style="fill: none; stroke-dasharray: 8.325,3.6; stroke-dashoffset: 0; stroke: #1c6488; stroke-width: 2.25"/>
   </g>
   <g id="line2d_28">
    <path d="M 108.748636 264.166364 
L 214.234896 264.166364 
L 214.548844 130.584088 
L 214.862791 171.165112 
L 215.176738 192.117498 
L 215.804632 213.601972 
L 216.432527 225.03417 
L 217.060421 232.26734 
L 217.688316 237.273633 
L 218.31621 240.944167 
L 219.258052 244.916153 
L 220.199893 247.747095 
L 221.141735 249.864876 
L 222.083576 251.507798 
L 223.339365 253.199009 
L 224.595154 254.499916 
L 226.16489 255.756749 
L 227.734626 256.731831 
L 229.618309 257.647571 
L 231.81594 258.474883 
L 234.641465 259.283271 
L 238.094884 260.017172 
L 242.490145 260.69722 
L 247.827247 261.288599 
L 255.048033 261.847416 
L 264.466449 262.33955 
L 277.338284 262.778602 
L 295.547222 263.164482 
L 322.546681 263.495613 
L 363.987712 263.761786 
L 425.207416 263.946885 
L 425.521364 112.502316 
L 425.521364 112.502316 
" clip-path="url(#pbeba0efa60)" style="fill: none; stroke-dasharray: 8.325,3.6; stroke-dashoffset: 0; stroke: #254b7f; stroke-width: 2.25"/>
   </g>
   <g id="patch_3">
    <path d="M 92.91 275.82 
L 92.91 19.44 
" style="fill: none; stroke: #262626; stroke-width: 1.875; stroke-linejoin: miter; stroke-linecap: square"/>
   </g>
   <g id="patch_4">
    <path d="M 92.91 275.82 
L 441.36 275.82 
" style="fill: none; stroke: #262626; stroke-width: 1.875; stroke-linejoin: miter; stroke-linecap: square"/>
   </g>
   <g id="legend_1">
    <g id="line2d_29">
     <path d="M 225.9675 41.052422 
L 242.4675 41.052422 
L 258.9675 41.052422 
" style="fill: none; stroke: #7dba91; stroke-width: 2.25; stroke-linecap: round"/>
    </g>
    <g id="text_13">
     <!-- $k_{RMA}$ -->
     <g style="fill: #262626" transform="translate(272.1675 46.827422) scale(0.165 -0.165)">
      <defs>
       <path id="DejaVuSans-Oblique-6b" d="M 1172 4863 
L 1747 4863 
L 1197 2028 
L 3169 3500 
L 3916 3500 
L 1716 1825 
L 3322 0 
L 2625 0 
L 1131 1709 
L 800 0 
L 225 0 
L 1172 4863 
z
" transform="scale(0.015625)"/>
       <path id="DejaVuSans-Oblique-52" d="M 1613 4147 
L 1294 2491 
L 2106 2491 
Q 2584 2491 2879 2755 
Q 3175 3019 3175 3444 
Q 3175 3784 2976 3965 
Q 2778 4147 2406 4147 
L 1613 4147 
z
M 2772 2241 
Q 2972 2194 3105 2009 
Q 3238 1825 3413 1275 
L 3809 0 
L 3144 0 
L 2778 1197 
Q 2638 1659 2453 1815 
Q 2269 1972 1888 1972 
L 1191 1972 
L 806 0 
L 172 0 
L 1081 4666 
L 2503 4666 
Q 3150 4666 3495 4373 
Q 3841 4081 3841 3531 
Q 3841 3044 3547 2687 
Q 3253 2331 2772 2241 
z
" transform="scale(0.015625)"/>
       <path id="DejaVuSans-Oblique-4d" d="M 1081 4666 
L 2028 4666 
L 2572 1522 
L 4378 4666 
L 5350 4666 
L 4441 0 
L 3828 0 
L 4622 4091 
L 2791 897 
L 2175 897 
L 1581 4103 
L 788 0 
L 172 0 
L 1081 4666 
z
" transform="scale(0.015625)"/>
       <path id="DejaVuSans-Oblique-41" d="M 2356 4666 
L 3072 4666 
L 3938 0 
L 3278 0 
L 3084 1197 
L 984 1197 
L 325 0 
L -341 0 
L 2356 4666 
z
M 2584 4044 
L 1275 1722 
L 2988 1722 
L 2584 4044 
z
" transform="scale(0.015625)"/>
      </defs>
      <use xlink:href="#DejaVuSans-Oblique-6b" transform="translate(0 0.015625)"/>
      <use xlink:href="#DejaVuSans-Oblique-52" transform="translate(57.910156 -16.390625) scale(0.7)"/>
      <use xlink:href="#DejaVuSans-Oblique-4d" transform="translate(106.547852 -16.390625) scale(0.7)"/>
      <use xlink:href="#DejaVuSans-Oblique-41" transform="translate(166.943359 -16.390625) scale(0.7)"/>
     </g>
    </g>
    <g id="line2d_30">
     <path d="M 225.9675 65.271328 
L 242.4675 65.271328 
L 258.9675 65.271328 
" style="fill: none; stroke: #59a590; stroke-width: 2.25; stroke-linecap: round"/>
    </g>
    <g id="text_14">
     <!-- $k_{RT}$ -->
     <g style="fill: #262626" transform="translate(272.1675 71.046328) scale(0.165 -0.165)">
      <defs>
       <path id="DejaVuSans-Oblique-54" d="M 378 4666 
L 4325 4666 
L 4225 4134 
L 2559 4134 
L 1759 0 
L 1125 0 
L 1925 4134 
L 275 4134 
L 378 4666 
z
" transform="scale(0.015625)"/>
      </defs>
      <use xlink:href="#DejaVuSans-Oblique-6b" transform="translate(0 0.015625)"/>
      <use xlink:href="#DejaVuSans-Oblique-52" transform="translate(57.910156 -16.390625) scale(0.7)"/>
      <use xlink:href="#DejaVuSans-Oblique-54" transform="translate(106.547852 -16.390625) scale(0.7)"/>
     </g>
    </g>
    <g id="line2d_31">
     <path d="M 225.9675 89.490234 
L 242.4675 89.490234 
L 258.9675 89.490234 
" style="fill: none; stroke: #40908e; stroke-width: 2.25; stroke-linecap: round"/>
    </g>
    <g id="text_15">
     <!-- $\gamma_{RMA}$ -->
     <g style="fill: #262626" transform="translate(272.1675 95.265234) scale(0.165 -0.165)">
      <defs>
       <path id="DejaVuSans-Oblique-3b3" d="M 1491 2950 
L 1838 788 
L 3456 3500 
L 4066 3500 
L 1972 0 
L 1713 -1331 
L 1138 -1331 
L 1397 0 
L 988 2613 
Q 925 3006 628 3006 
L 475 3006 
L 569 3500 
L 788 3500 
Q 1403 3500 1491 2950 
z
" transform="scale(0.015625)"/>
      </defs>
      <use xlink:href="#DejaVuSans-Oblique-3b3" transform="translate(0 0.3125)"/>
      <use xlink:href="#DejaVuSans-Oblique-52" transform="translate(59.179688 -16.09375) scale(0.7)"/>
      <use xlink:href="#DejaVuSans-Oblique-4d" transform="translate(107.817383 -16.09375) scale(0.7)"/>
      <use xlink:href="#DejaVuSans-Oblique-41" transform="translate(168.212891 -16.09375) scale(0.7)"/>
     </g>
    </g>
   </g>
  </g>
 </g>
 <defs>
  <clipPath id="pbeba0efa60">
   <rect x="92.91" y="19.44" width="348.45" height="256.38"/>
  </clipPath>
 </defs>
</svg>
