<?xml version="1.0" encoding="UTF-8" standalone="no"?><!DOCTYPE svg PUBLIC "-//W3C//DTD SVG 1.1//EN" "http://www.w3.org/Graphics/SVG/1.1/DTD/svg11.dtd"><svg width="100%" height="100%" viewBox="0 0 596 242" version="1.1" xmlns="http://www.w3.org/2000/svg" xmlns:xlink="http://www.w3.org/1999/xlink" xml:space="preserve" xmlns:serif="http://www.serif.com/" style="fill-rule:evenodd;clip-rule:evenodd;stroke-linecap:round;stroke-linejoin:round;stroke-miterlimit:1.5;"><rect id="Artboard1" x="0" y="0" width="595.276" height="241.89" style="fill:none;"/><path d="M587.318,69.045l0,103.8c0,28.644 -23.256,51.9 -51.9,51.9l-475.56,0c-28.644,0 -51.9,-23.256 -51.9,-51.9l0,-103.8c0,-28.644 23.256,-51.9 51.9,-51.9l475.56,0c28.644,0 51.9,23.256 51.9,51.9Z" style="fill:url(#_Linear1);"/><path d="M48.158,203.136c78.207,7.38 51.971,-172.862 128.608,-171.84c87.784,1.17 166.681,181.404 263.072,178.08" style="fill:none;stroke:#ececec;stroke-width:2px;"/><path d="M48.158,203.136c78.207,7.38 63.344,-161.752 138.171,-141.36c96.761,26.37 157.118,150.924 253.509,147.6" style="fill:none;stroke:#ececec;stroke-opacity:0.75;stroke-width:2px;"/><path d="M48.158,203.136c78.207,7.38 65.286,-123.788 140.708,-107.04c99.298,22.05 144.628,124.044 250.972,113.28" style="fill:none;stroke:#ececec;stroke-opacity:0.49;stroke-width:2px;"/><path d="M48.158,203.136c78.207,7.38 68.018,-85.129 143.44,-68.381c99.298,22.05 141.896,85.385 248.24,74.621" style="fill:none;stroke:#ececec;stroke-opacity:0.25;stroke-width:2px;"/><g transform="matrix(0.24,0,0,0.24,1.477795,-21.588178)"><text x="1357px" y="335.5px" style="font-family:'IBMPlexSans-Regular', 'IBM Plex Sans', sans-serif;font-size:125px;fill:#fff;">Synthetic Serum</text><g transform="matrix(125,0,0,125,2227.875,485.5)"></g><text x="1357px" y="485.5px" style="font-family:'IBMPlexSans-Regular', 'IBM Plex Sans', sans-serif;font-size:125px;fill:#fff;">Mark<tspan x="1634.875px " y="485.5px ">e</tspan>r Kinetics</text></g><defs><linearGradient id="_Linear1" x1="0" y1="0" x2="1" y2="0" gradientUnits="userSpaceOnUse" gradientTransform="matrix(579.36,0,0,207.6,7.957795,120.944882)"><stop offset="0" style="stop-color:#010710;stop-opacity:0.82"/><stop offset="1" style="stop-color:#00060e;stop-opacity:1"/></linearGradient></defs></svg>