<?xml version="1.0" encoding="utf-8" standalone="no"?>
<!DOCTYPE svg PUBLIC "-//W3C//DTD SVG 1.1//EN"
  "http://www.w3.org/Graphics/SVG/1.1/DTD/svg11.dtd">
<svg xmlns:xlink="http://www.w3.org/1999/xlink" width="460.8pt" height="345.6pt" viewBox="0 0 460.8 345.6" xmlns="http://www.w3.org/2000/svg" version="1.1">
 <metadata>
  <rdf:RDF xmlns:dc="http://purl.org/dc/elements/1.1/" xmlns:cc="http://creativecommons.org/ns#" xmlns:rdf="http://www.w3.org/1999/02/22-rdf-syntax-ns#">
   <cc:Work>
    <dc:type rdf:resource="http://purl.org/dc/dcmitype/StillImage"/>
    <dc:date>1980-01-01T00:00:00+00:00</dc:date>
    <dc:format>image/svg+xml</dc:format>
    <dc:creator>
     <cc:Agent>
      <dc:title>Matplotlib v3.10.8, https://matplotlib.org/</dc:title>
     </cc:Agent>
    </dc:creator>
   </cc:Work>
  </rdf:RDF>
 </metadata>
 <defs>
  <style type="text/css">*{stroke-linejoin: round; stroke-linecap: butt}</style>
 </defs>
 <g id="figure_1">
  <g id="patch_1">
   <path d="M 0 345.6 
L 460.8 345.6 
L 460.8 0 
L 0 0 
z
" style="fill: #ffffff"/>
  </g>
  <g id="axes_1">
   <g id="patch_2">
    <path d="M 79.5 275.82 
L 441.36 275.82 
L 441.36 19.44 
L 79.5 19.44 
z
" style="fill: #ffffff"/>
   </g>
   <g id="matplotlib.axis_1">
    <g id="xtick_1">
     <g id="line2d_1">
      <defs>
       <path id="ma44bb23dfc" d="M 0 0 
L 0 9 
" style="stroke: #262626; stroke-width: 1.875"/>
      </defs>
      <g>
       <use xlink:href="#ma44bb23dfc" x="95.948182" y="275.82" style="fill: #262626; stroke: #262626; stroke-width: 1.875"/>
      </g>
     </g>
     <g id="text_1">
      <!-- 0 -->
      <g style="fill: #262626" transform="translate(90.699119 300.857422) scale(0.165 -0.165)">
       <defs>
        <path id="DejaVuSans-30" d="M 2034 4250 
Q 1547 4250 1301 3770 
Q 1056 3291 1056 2328 
Q 1056 1369 1301 889 
Q 1547 409 2034 409 
Q 2525 409 2770 889 
Q 3016 1369 3016 2328 
Q 3016 3291 2770 3770 
Q 2525 4250 2034 4250 
z
M 2034 4750 
Q 2819 4750 3233 4129 
Q 3647 3509 3647 2328 
Q 3647 1150 3233 529 
Q 2819 -91 2034 -91 
Q 1250 -91 836 529 
Q 422 1150 422 2328 
Q 422 3509 836 4129 
Q 1250 4750 2034 4750 
z
" transform="scale(0.015625)"/>
       </defs>
       <use xlink:href="#DejaVuSans-30"/>
      </g>
     </g>
    </g>
    <g id="xtick_2">
     <g id="line2d_2">
      <g>
       <use xlink:href="#ma44bb23dfc" x="161.218745" y="275.82" style="fill: #262626; stroke: #262626; stroke-width: 1.875"/>
      </g>
     </g>
     <g id="text_2">
      <!-- 100 -->
      <g style="fill: #262626" transform="translate(145.471557 300.857422) scale(0.165 -0.165)">
       <defs>
        <path id="DejaVuSans-31" d="M 794 531 
L 1825 531 
L 1825 4091 
L 703 3866 
L 703 4441 
L 1819 4666 
L 2450 4666 
L 2450 531 
L 3481 531 
L 3481 0 
L 794 0 
L 794 531 
z
" transform="scale(0.015625)"/>
       </defs>
       <use xlink:href="#DejaVuSans-31"/>
       <use xlink:href="#DejaVuSans-30" transform="translate(63.623047 0)"/>
       <use xlink:href="#DejaVuSans-30" transform="translate(127.246094 0)"/>
      </g>
     </g>
    </g>
    <g id="xtick_3">
     <g id="line2d_3">
      <g>
       <use xlink:href="#ma44bb23dfc" x="226.489307" y="275.82" style="fill: #262626; stroke: #262626; stroke-width: 1.875"/>
      </g>
     </g>
     <g id="text_3">
      <!-- 200 -->
      <g style="fill: #262626" transform="translate(210.74212 300.857422) scale(0.165 -0.165)">
       <defs>
        <path id="DejaVuSans-32" d="M 1228 531 
L 3431 531 
L 3431 0 
L 469 0 
L 469 531 
Q 828 903 1448 1529 
Q 2069 2156 2228 2338 
Q 2531 2678 2651 2914 
Q 2772 3150 2772 3378 
Q 2772 3750 2511 3984 
Q 2250 4219 1831 4219 
Q 1534 4219 1204 4116 
Q 875 4013 500 3803 
L 500 4441 
Q 881 4594 1212 4672 
Q 1544 4750 1819 4750 
Q 2544 4750 2975 4387 
Q 3406 4025 3406 3419 
Q 3406 3131 3298 2873 
Q 3191 2616 2906 2266 
Q 2828 2175 2409 1742 
Q 1991 1309 1228 531 
z
" transform="scale(0.015625)"/>
       </defs>
       <use xlink:href="#DejaVuSans-32"/>
       <use xlink:href="#DejaVuSans-30" transform="translate(63.623047 0)"/>
       <use xlink:href="#DejaVuSans-30" transform="translate(127.246094 0)"/>
      </g>
     </g>
    </g>
    <g id="xtick_4">
     <g id="line2d_4">
      <g>
       <use xlink:href="#ma44bb23dfc" x="291.75987" y="275.82" style="fill: #262626; stroke: #262626; stroke-width: 1.875"/>
      </g>
     </g>
     <g id="text_4">
      <!-- 300 -->
      <g style="fill: #262626" transform="translate(276.012683 300.857422) scale(0.165 -0.165)">
       <defs>
        <path id="DejaVuSans-33" d="M 2597 2516 
Q 3050 2419 3304 2112 
Q 3559 1806 3559 1356 
Q 3559 666 3084 287 
Q 2609 -91 1734 -91 
Q 1441 -91 1130 -33 
Q 819 25 488 141 
L 488 750 
Q 750 597 1062 519 
Q 1375 441 1716 441 
Q 2309 441 2620 675 
Q 2931 909 2931 1356 
Q 2931 1769 2642 2001 
Q 2353 2234 1838 2234 
L 1294 2234 
L 1294 2753 
L 1863 2753 
Q 2328 2753 2575 2939 
Q 2822 3125 2822 3475 
Q 2822 3834 2567 4026 
Q 2313 4219 1838 4219 
Q 1578 4219 1281 4162 
Q 984 4106 628 3988 
L 628 4550 
Q 988 4650 1302 4700 
Q 1616 4750 1894 4750 
Q 2613 4750 3031 4423 
Q 3450 4097 3450 3541 
Q 3450 3153 3228 2886 
Q 3006 2619 2597 2516 
z
" transform="scale(0.015625)"/>
       </defs>
       <use xlink:href="#DejaVuSans-33"/>
       <use xlink:href="#DejaVuSans-30" transform="translate(63.623047 0)"/>
       <use xlink:href="#DejaVuSans-30" transform="translate(127.246094 0)"/>
      </g>
     </g>
    </g>
    <g id="xtick_5">
     <g id="line2d_5">
      <g>
       <use xlink:href="#ma44bb23dfc" x="357.030433" y="275.82" style="fill: #262626; stroke: #262626; stroke-width: 1.875"/>
      </g>
     </g>
     <g id="text_5">
      <!-- 400 -->
      <g style="fill: #262626" transform="translate(341.283245 300.857422) scale(0.165 -0.165)">
       <defs>
        <path id="DejaVuSans-34" d="M 2419 4116 
L 825 1625 
L 2419 1625 
L 2419 4116 
z
M 2253 4666 
L 3047 4666 
L 3047 1625 
L 3713 1625 
L 3713 1100 
L 3047 1100 
L 3047 0 
L 2419 0 
L 2419 1100 
L 313 1100 
L 313 1709 
L 2253 4666 
z
" transform="scale(0.015625)"/>
       </defs>
       <use xlink:href="#DejaVuSans-34"/>
       <use xlink:href="#DejaVuSans-30" transform="translate(63.623047 0)"/>
       <use xlink:href="#DejaVuSans-30" transform="translate(127.246094 0)"/>
      </g>
     </g>
    </g>
    <g id="xtick_6">
     <g id="line2d_6">
      <g>
       <use xlink:href="#ma44bb23dfc" x="422.300996" y="275.82" style="fill: #262626; stroke: #262626; stroke-width: 1.875"/>
      </g>
     </g>
     <g id="text_6">
      <!-- 500 -->
      <g style="fill: #262626" transform="translate(406.553808 300.857422) scale(0.165 -0.165)">
       <defs>
        <path id="DejaVuSans-35" d="M 691 4666 
L 3169 4666 
L 3169 4134 
L 1269 4134 
L 1269 2991 
Q 1406 3038 1543 3061 
Q 1681 3084 1819 3084 
Q 2600 3084 3056 2656 
Q 3513 2228 3513 1497 
Q 3513 744 3044 326 
Q 2575 -91 1722 -91 
Q 1428 -91 1123 -41 
Q 819 9 494 109 
L 494 744 
Q 775 591 1075 516 
Q 1375 441 1709 441 
Q 2250 441 2565 725 
Q 2881 1009 2881 1497 
Q 2881 1984 2565 2268 
Q 2250 2553 1709 2553 
Q 1456 2553 1204 2497 
Q 953 2441 691 2322 
L 691 4666 
z
" transform="scale(0.015625)"/>
       </defs>
       <use xlink:href="#DejaVuSans-35"/>
       <use xlink:href="#DejaVuSans-30" transform="translate(63.623047 0)"/>
       <use xlink:href="#DejaVuSans-30" transform="translate(127.246094 0)"/>
      </g>
     </g>
    </g>
    <g id="text_7">
     <!-- Time (hr) -->
     <g style="fill: #262626" transform="translate(219.122813 321.966094) scale(0.18 -0.18)">
      <defs>
       <path id="DejaVuSans-54" d="M -19 4666 
L 3928 4666 
L 3928 4134 
L 2272 4134 
L 2272 0 
L 1638 0 
L 1638 4134 
L -19 4134 
L -19 4666 
z
" transform="scale(0.015625)"/>
       <path id="DejaVuSans-69" d="M 603 3500 
L 1178 3500 
L 1178 0 
L 603 0 
L 603 3500 
z
M 603 4863 
L 1178 4863 
L 1178 4134 
L 603 4134 
L 603 4863 
z
" transform="scale(0.015625)"/>
       <path id="DejaVuSans-6d" d="M 3328 2828 
Q 3544 3216 3844 3400 
Q 4144 3584 4550 3584 
Q 5097 3584 5394 3201 
Q 5691 2819 5691 2113 
L 5691 0 
L 5113 0 
L 5113 2094 
Q 5113 2597 4934 2840 
Q 4756 3084 4391 3084 
Q 3944 3084 3684 2787 
Q 3425 2491 3425 1978 
L 3425 0 
L 2847 0 
L 2847 2094 
Q 2847 2600 2669 2842 
Q 2491 3084 2119 3084 
Q 1678 3084 1418 2786 
Q 1159 2488 1159 1978 
L 1159 0 
L 581 0 
L 581 3500 
L 1159 3500 
L 1159 2956 
Q 1356 3278 1631 3431 
Q 1906 3584 2284 3584 
Q 2666 3584 2933 3390 
Q 3200 3197 3328 2828 
z
" transform="scale(0.015625)"/>
       <path id="DejaVuSans-65" d="M 3597 1894 
L 3597 1613 
L 953 1613 
Q 991 1019 1311 708 
Q 1631 397 2203 397 
Q 2534 397 2845 478 
Q 3156 559 3463 722 
L 3463 178 
Q 3153 47 2828 -22 
Q 2503 -91 2169 -91 
Q 1331 -91 842 396 
Q 353 884 353 1716 
Q 353 2575 817 3079 
Q 1281 3584 2069 3584 
Q 2775 3584 3186 3129 
Q 3597 2675 3597 1894 
z
M 3022 2063 
Q 3016 2534 2758 2815 
Q 2500 3097 2075 3097 
Q 1594 3097 1305 2825 
Q 1016 2553 972 2059 
L 3022 2063 
z
" transform="scale(0.015625)"/>
       <path id="DejaVuSans-20" transform="scale(0.015625)"/>
       <path id="DejaVuSans-28" d="M 1984 4856 
Q 1566 4138 1362 3434 
Q 1159 2731 1159 2009 
Q 1159 1288 1364 580 
Q 1569 -128 1984 -844 
L 1484 -844 
Q 1016 -109 783 600 
Q 550 1309 550 2009 
Q 550 2706 781 3412 
Q 1013 4119 1484 4856 
L 1984 4856 
z
" transform="scale(0.015625)"/>
       <path id="DejaVuSans-68" d="M 3513 2113 
L 3513 0 
L 2938 0 
L 2938 2094 
Q 2938 2591 2744 2837 
Q 2550 3084 2163 3084 
Q 1697 3084 1428 2787 
Q 1159 2491 1159 1978 
L 1159 0 
L 581 0 
L 581 4863 
L 1159 4863 
L 1159 2956 
Q 1366 3272 1645 3428 
Q 1925 3584 2291 3584 
Q 2894 3584 3203 3211 
Q 3513 2838 3513 2113 
z
" transform="scale(0.015625)"/>
       <path id="DejaVuSans-72" d="M 2631 2963 
Q 2534 3019 2420 3045 
Q 2306 3072 2169 3072 
Q 1681 3072 1420 2755 
Q 1159 2438 1159 1844 
L 1159 0 
L 581 0 
L 581 3500 
L 1159 3500 
L 1159 2956 
Q 1341 3275 1631 3429 
Q 1922 3584 2338 3584 
Q 2397 3584 2469 3576 
Q 2541 3569 2628 3553 
L 2631 2963 
z
" transform="scale(0.015625)"/>
       <path id="DejaVuSans-29" d="M 513 4856 
L 1013 4856 
Q 1481 4119 1714 3412 
Q 1947 2706 1947 2009 
Q 1947 1309 1714 600 
Q 1481 -109 1013 -844 
L 513 -844 
Q 928 -128 1133 580 
Q 1338 1288 1338 2009 
Q 1338 2731 1133 3434 
Q 928 4138 513 4856 
z
" transform="scale(0.015625)"/>
      </defs>
      <use xlink:href="#DejaVuSans-54"/>
      <use xlink:href="#DejaVuSans-69" transform="translate(57.958984 0)"/>
      <use xlink:href="#DejaVuSans-6d" transform="translate(85.742188 0)"/>
      <use xlink:href="#DejaVuSans-65" transform="translate(183.154297 0)"/>
      <use xlink:href="#DejaVuSans-20" transform="translate(244.677734 0)"/>
      <use xlink:href="#DejaVuSans-28" transform="translate(276.464844 0)"/>
      <use xlink:href="#DejaVuSans-68" transform="translate(315.478516 0)"/>
      <use xlink:href="#DejaVuSans-72" transform="translate(378.857422 0)"/>
      <use xlink:href="#DejaVuSans-29" transform="translate(419.970703 0)"/>
     </g>
    </g>
   </g>
   <g id="matplotlib.axis_2">
    <g id="ytick_1">
     <g id="line2d_7">
      <defs>
       <path id="m5d069edd6f" d="M 0 0 
L -9 0 
" style="stroke: #262626; stroke-width: 1.875"/>
      </defs>
      <g>
       <use xlink:href="#m5d069edd6f" x="79.5" y="264.166364" style="fill: #262626; stroke: #262626; stroke-width: 1.875"/>
      </g>
     </g>
     <g id="text_8">
      <!-- 0.0 -->
      <g style="fill: #262626" transform="translate(40.759844 270.435075) scale(0.165 -0.165)">
       <defs>
        <path id="DejaVuSans-2e" d="M 684 794 
L 1344 794 
L 1344 0 
L 684 0 
L 684 794 
z
" transform="scale(0.015625)"/>
       </defs>
       <use xlink:href="#DejaVuSans-30"/>
       <use xlink:href="#DejaVuSans-2e" transform="translate(63.623047 0)"/>
       <use xlink:href="#DejaVuSans-30" transform="translate(95.410156 0)"/>
      </g>
     </g>
    </g>
    <g id="ytick_2">
     <g id="line2d_8">
      <g>
       <use xlink:href="#m5d069edd6f" x="79.5" y="227.156215" style="fill: #262626; stroke: #262626; stroke-width: 1.875"/>
      </g>
     </g>
     <g id="text_9">
      <!-- 0.2 -->
      <g style="fill: #262626" transform="translate(40.759844 233.424926) scale(0.165 -0.165)">
       <use xlink:href="#DejaVuSans-30"/>
       <use xlink:href="#DejaVuSans-2e" transform="translate(63.623047 0)"/>
       <use xlink:href="#DejaVuSans-32" transform="translate(95.410156 0)"/>
      </g>
     </g>
    </g>
    <g id="ytick_3">
     <g id="line2d_9">
      <g>
       <use xlink:href="#m5d069edd6f" x="79.5" y="190.146066" style="fill: #262626; stroke: #262626; stroke-width: 1.875"/>
      </g>
     </g>
     <g id="text_10">
      <!-- 0.4 -->
      <g style="fill: #262626" transform="translate(40.759844 196.414777) scale(0.165 -0.165)">
       <use xlink:href="#DejaVuSans-30"/>
       <use xlink:href="#DejaVuSans-2e" transform="translate(63.623047 0)"/>
       <use xlink:href="#DejaVuSans-34" transform="translate(95.410156 0)"/>
      </g>
     </g>
    </g>
    <g id="ytick_4">
     <g id="line2d_10">
      <g>
       <use xlink:href="#m5d069edd6f" x="79.5" y="153.135917" style="fill: #262626; stroke: #262626; stroke-width: 1.875"/>
      </g>
     </g>
     <g id="text_11">
      <!-- 0.6 -->
      <g style="fill: #262626" transform="translate(40.759844 159.404628) scale(0.165 -0.165)">
       <defs>
        <path id="DejaVuSans-36" d="M 2113 2584 
Q 1688 2584 1439 2293 
Q 1191 2003 1191 1497 
Q 1191 994 1439 701 
Q 1688 409 2113 409 
Q 2538 409 2786 701 
Q 3034 994 3034 1497 
Q 3034 2003 2786 2293 
Q 2538 2584 2113 2584 
z
M 3366 4563 
L 3366 3988 
Q 3128 4100 2886 4159 
Q 2644 4219 2406 4219 
Q 1781 4219 1451 3797 
Q 1122 3375 1075 2522 
Q 1259 2794 1537 2939 
Q 1816 3084 2150 3084 
Q 2853 3084 3261 2657 
Q 3669 2231 3669 1497 
Q 3669 778 3244 343 
Q 2819 -91 2113 -91 
Q 1303 -91 875 529 
Q 447 1150 447 2328 
Q 447 3434 972 4092 
Q 1497 4750 2381 4750 
Q 2619 4750 2861 4703 
Q 3103 4656 3366 4563 
z
" transform="scale(0.015625)"/>
       </defs>
       <use xlink:href="#DejaVuSans-30"/>
       <use xlink:href="#DejaVuSans-2e" transform="translate(63.623047 0)"/>
       <use xlink:href="#DejaVuSans-36" transform="translate(95.410156 0)"/>
      </g>
     </g>
    </g>
    <g id="ytick_5">
     <g id="line2d_11">
      <g>
       <use xlink:href="#m5d069edd6f" x="79.5" y="116.125768" style="fill: #262626; stroke: #262626; stroke-width: 1.875"/>
      </g>
     </g>
     <g id="text_12">
      <!-- 0.8 -->
      <g style="fill: #262626" transform="translate(40.759844 122.394479) scale(0.165 -0.165)">
       <defs>
        <path id="DejaVuSans-38" d="M 2034 2216 
Q 1584 2216 1326 1975 
Q 1069 1734 1069 1313 
Q 1069 891 1326 650 
Q 1584 409 2034 409 
Q 2484 409 2743 651 
Q 3003 894 3003 1313 
Q 3003 1734 2745 1975 
Q 2488 2216 2034 2216 
z
M 1403 2484 
Q 997 2584 770 2862 
Q 544 3141 544 3541 
Q 544 4100 942 4425 
Q 1341 4750 2034 4750 
Q 2731 4750 3128 4425 
Q 3525 4100 3525 3541 
Q 3525 3141 3298 2862 
Q 3072 2584 2669 2484 
Q 3125 2378 3379 2068 
Q 3634 1759 3634 1313 
Q 3634 634 3220 271 
Q 2806 -91 2034 -91 
Q 1263 -91 848 271 
Q 434 634 434 1313 
Q 434 1759 690 2068 
Q 947 2378 1403 2484 
z
M 1172 3481 
Q 1172 3119 1398 2916 
Q 1625 2713 2034 2713 
Q 2441 2713 2670 2916 
Q 2900 3119 2900 3481 
Q 2900 3844 2670 4047 
Q 2441 4250 2034 4250 
Q 1625 4250 1398 4047 
Q 1172 3844 1172 3481 
z
" transform="scale(0.015625)"/>
       </defs>
       <use xlink:href="#DejaVuSans-30"/>
       <use xlink:href="#DejaVuSans-2e" transform="translate(63.623047 0)"/>
       <use xlink:href="#DejaVuSans-38" transform="translate(95.410156 0)"/>
      </g>
     </g>
    </g>
    <g id="ytick_6">
     <g id="line2d_12">
      <g>
       <use xlink:href="#m5d069edd6f" x="79.5" y="79.11562" style="fill: #262626; stroke: #262626; stroke-width: 1.875"/>
      </g>
     </g>
     <g id="text_13">
      <!-- 1.0 -->
      <g style="fill: #262626" transform="translate(40.759844 85.38433) scale(0.165 -0.165)">
       <use xlink:href="#DejaVuSans-31"/>
       <use xlink:href="#DejaVuSans-2e" transform="translate(63.623047 0)"/>
       <use xlink:href="#DejaVuSans-30" transform="translate(95.410156 0)"/>
      </g>
     </g>
    </g>
    <g id="ytick_7">
     <g id="line2d_13">
      <g>
       <use xlink:href="#m5d069edd6f" x="79.5" y="42.105471" style="fill: #262626; stroke: #262626; stroke-width: 1.875"/>
      </g>
     </g>
     <g id="text_14">
      <!-- 1.2 -->
      <g style="fill: #262626" transform="translate(40.759844 48.374182) scale(0.165 -0.165)">
       <use xlink:href="#DejaVuSans-31"/>
       <use xlink:href="#DejaVuSans-2e" transform="translate(63.623047 0)"/>
       <use xlink:href="#DejaVuSans-32" transform="translate(95.410156 0)"/>
      </g>
     </g>
    </g>
    <g id="text_15">
     <!-- Plasma RMA (nM) -->
     <g style="fill: #262626" transform="translate(33.016406 226.430625) rotate(-90) scale(0.18 -0.18)">
      <defs>
       <path id="DejaVuSans-50" d="M 1259 4147 
L 1259 2394 
L 2053 2394 
Q 2494 2394 2734 2622 
Q 2975 2850 2975 3272 
Q 2975 3691 2734 3919 
Q 2494 4147 2053 4147 
L 1259 4147 
z
M 628 4666 
L 2053 4666 
Q 2838 4666 3239 4311 
Q 3641 3956 3641 3272 
Q 3641 2581 3239 2228 
Q 2838 1875 2053 1875 
L 1259 1875 
L 1259 0 
L 628 0 
L 628 4666 
z
" transform="scale(0.015625)"/>
       <path id="DejaVuSans-6c" d="M 603 4863 
L 1178 4863 
L 1178 0 
L 603 0 
L 603 4863 
z
" transform="scale(0.015625)"/>
       <path id="DejaVuSans-61" d="M 2194 1759 
Q 1497 1759 1228 1600 
Q 959 1441 959 1056 
Q 959 750 1161 570 
Q 1363 391 1709 391 
Q 2188 391 2477 730 
Q 2766 1069 2766 1631 
L 2766 1759 
L 2194 1759 
z
M 3341 1997 
L 3341 0 
L 2766 0 
L 2766 531 
Q 2569 213 2275 61 
Q 1981 -91 1556 -91 
Q 1019 -91 701 211 
Q 384 513 384 1019 
Q 384 1609 779 1909 
Q 1175 2209 1959 2209 
L 2766 2209 
L 2766 2266 
Q 2766 2663 2505 2880 
Q 2244 3097 1772 3097 
Q 1472 3097 1187 3025 
Q 903 2953 641 2809 
L 641 3341 
Q 956 3463 1253 3523 
Q 1550 3584 1831 3584 
Q 2591 3584 2966 3190 
Q 3341 2797 3341 1997 
z
" transform="scale(0.015625)"/>
       <path id="DejaVuSans-73" d="M 2834 3397 
L 2834 2853 
Q 2591 2978 2328 3040 
Q 2066 3103 1784 3103 
Q 1356 3103 1142 2972 
Q 928 2841 928 2578 
Q 928 2378 1081 2264 
Q 1234 2150 1697 2047 
L 1894 2003 
Q 2506 1872 2764 1633 
Q 3022 1394 3022 966 
Q 3022 478 2636 193 
Q 2250 -91 1575 -91 
Q 1294 -91 989 -36 
Q 684 19 347 128 
L 347 722 
Q 666 556 975 473 
Q 1284 391 1588 391 
Q 1994 391 2212 530 
Q 2431 669 2431 922 
Q 2431 1156 2273 1281 
Q 2116 1406 1581 1522 
L 1381 1569 
Q 847 1681 609 1914 
Q 372 2147 372 2553 
Q 372 3047 722 3315 
Q 1072 3584 1716 3584 
Q 2034 3584 2315 3537 
Q 2597 3491 2834 3397 
z
" transform="scale(0.015625)"/>
       <path id="DejaVuSans-52" d="M 2841 2188 
Q 3044 2119 3236 1894 
Q 3428 1669 3622 1275 
L 4263 0 
L 3584 0 
L 2988 1197 
Q 2756 1666 2539 1819 
Q 2322 1972 1947 1972 
L 1259 1972 
L 1259 0 
L 628 0 
L 628 4666 
L 2053 4666 
Q 2853 4666 3247 4331 
Q 3641 3997 3641 3322 
Q 3641 2881 3436 2590 
Q 3231 2300 2841 2188 
z
M 1259 4147 
L 1259 2491 
L 2053 2491 
Q 2509 2491 2742 2702 
Q 2975 2913 2975 3322 
Q 2975 3731 2742 3939 
Q 2509 4147 2053 4147 
L 1259 4147 
z
" transform="scale(0.015625)"/>
       <path id="DejaVuSans-4d" d="M 628 4666 
L 1569 4666 
L 2759 1491 
L 3956 4666 
L 4897 4666 
L 4897 0 
L 4281 0 
L 4281 4097 
L 3078 897 
L 2444 897 
L 1241 4097 
L 1241 0 
L 628 0 
L 628 4666 
z
" transform="scale(0.015625)"/>
       <path id="DejaVuSans-41" d="M 2188 4044 
L 1331 1722 
L 3047 1722 
L 2188 4044 
z
M 1831 4666 
L 2547 4666 
L 4325 0 
L 3669 0 
L 3244 1197 
L 1141 1197 
L 716 0 
L 50 0 
L 1831 4666 
z
" transform="scale(0.015625)"/>
       <path id="DejaVuSans-6e" d="M 3513 2113 
L 3513 0 
L 2938 0 
L 2938 2094 
Q 2938 2591 2744 2837 
Q 2550 3084 2163 3084 
Q 1697 3084 1428 2787 
Q 1159 2491 1159 1978 
L 1159 0 
L 581 0 
L 581 3500 
L 1159 3500 
L 1159 2956 
Q 1366 3272 1645 3428 
Q 1925 3584 2291 3584 
Q 2894 3584 3203 3211 
Q 3513 2838 3513 2113 
z
" transform="scale(0.015625)"/>
      </defs>
      <use xlink:href="#DejaVuSans-50"/>
      <use xlink:href="#DejaVuSans-6c" transform="translate(60.302734 0)"/>
      <use xlink:href="#DejaVuSans-61" transform="translate(88.085938 0)"/>
      <use xlink:href="#DejaVuSans-73" transform="translate(149.365234 0)"/>
      <use xlink:href="#DejaVuSans-6d" transform="translate(201.464844 0)"/>
      <use xlink:href="#DejaVuSans-61" transform="translate(298.876953 0)"/>
      <use xlink:href="#DejaVuSans-20" transform="translate(360.15625 0)"/>
      <use xlink:href="#DejaVuSans-52" transform="translate(391.943359 0)"/>
      <use xlink:href="#DejaVuSans-4d" transform="translate(461.425781 0)"/>
      <use xlink:href="#DejaVuSans-41" transform="translate(547.705078 0)"/>
      <use xlink:href="#DejaVuSans-20" transform="translate(616.113281 0)"/>
      <use xlink:href="#DejaVuSans-28" transform="translate(647.900391 0)"/>
      <use xlink:href="#DejaVuSans-6e" transform="translate(686.914062 0)"/>
      <use xlink:href="#DejaVuSans-4d" transform="translate(750.292969 0)"/>
      <use xlink:href="#DejaVuSans-29" transform="translate(836.572266 0)"/>
     </g>
    </g>
   </g>
   <g id="line2d_14">
    <path d="M 95.948182 256.23797 
L 96.600887 261.410123 
L 97.253593 226.575721 
L 97.906299 264.166364 
L 99.864416 264.166364 
L 100.517121 248.478167 
L 101.169827 246.222755 
L 101.822532 264.166364 
L 102.475238 241.00221 
L 103.127944 254.955722 
L 103.780649 240.884504 
L 104.433355 243.258535 
L 105.086061 204.842349 
L 105.738766 249.839295 
L 106.391472 233.356685 
L 107.044177 223.426543 
L 107.696883 236.389543 
L 108.349589 236.055122 
L 109.002294 228.939363 
L 109.655 232.666623 
L 110.307706 225.503611 
L 110.960411 225.525167 
L 111.613117 218.861427 
L 112.265823 208.921336 
L 112.918528 229.26978 
L 113.571234 147.444928 
L 114.223939 216.836731 
L 114.876645 190.786975 
L 115.529351 186.095705 
L 116.182056 216.145811 
L 116.834762 206.703732 
L 117.487468 202.951016 
L 118.140173 190.172347 
L 118.792879 204.577582 
L 119.445584 209.193198 
L 120.09829 150.47043 
L 120.750996 190.552696 
L 121.403701 197.654439 
L 122.056407 198.286295 
L 122.709113 172.368937 
L 123.361818 133.645077 
L 124.014524 166.597737 
L 124.667229 191.194172 
L 125.319935 184.08153 
L 125.972641 184.957749 
L 126.625346 177.41705 
L 127.278052 197.958539 
L 127.930758 166.725923 
L 128.583463 196.398337 
L 129.236169 165.963273 
L 129.888874 173.703848 
L 131.194286 195.591598 
L 131.846991 171.469481 
L 132.499697 177.685777 
L 133.152403 195.247468 
L 133.805108 187.97832 
L 134.457814 166.437808 
L 135.110519 210.245893 
L 135.763225 200.454776 
L 136.415931 169.44295 
L 137.068636 157.697977 
L 137.721342 192.248322 
L 138.374048 181.477088 
L 139.026753 197.680335 
L 139.679459 192.110598 
L 140.332165 187.612799 
L 140.98487 178.229964 
L 141.637576 159.194625 
L 142.290281 178.850801 
L 142.942987 167.30453 
L 143.595693 191.756085 
L 144.248398 158.540393 
L 144.901104 183.372116 
L 145.55381 155.943917 
L 146.206515 192.686876 
L 146.859221 163.72796 
L 147.511926 158.013203 
L 148.164632 194.604818 
L 149.470043 202.702954 
L 150.122749 169.248829 
L 150.775455 194.498405 
L 151.42816 157.850962 
L 152.080866 182.87884 
L 152.733571 195.827801 
L 153.386277 214.989543 
L 154.038983 179.20863 
L 154.691688 222.597415 
L 155.344394 172.156714 
L 155.9971 181.979111 
L 156.649805 175.827631 
L 157.302511 177.176886 
L 157.955216 207.743888 
L 158.607922 164.836584 
L 159.260628 189.000271 
L 159.913333 199.138928 
L 160.566039 150.172284 
L 161.218745 179.83683 
L 161.87145 165.30792 
L 162.524156 183.122906 
L 163.176861 212.570774 
L 163.829567 153.034468 
L 164.482273 209.020703 
L 165.134978 170.013567 
L 165.787684 196.785835 
L 166.44039 206.098271 
L 167.093095 203.345259 
L 168.398506 156.128124 
L 169.051212 153.955019 
L 169.703918 172.625862 
L 170.356623 194.536999 
L 171.009329 165.017266 
L 172.31474 139.383886 
L 172.967446 153.257937 
L 173.620152 137.136971 
L 174.272857 149.602673 
L 174.925563 138.655371 
L 175.578268 137.400488 
L 176.230974 151.024516 
L 176.88368 161.987886 
L 177.536385 135.149219 
L 178.189091 158.00568 
L 178.841797 147.772523 
L 179.494502 132.85892 
L 180.147208 128.645593 
L 180.799913 111.453791 
L 181.452619 153.057791 
L 182.105325 114.02642 
L 182.75803 112.556013 
L 183.410736 117.278862 
L 184.063442 128.883256 
L 185.368853 117.892593 
L 186.021558 136.812204 
L 186.674264 143.244638 
L 187.32697 133.785963 
L 187.979675 98.460986 
L 189.937792 139.060818 
L 190.590498 124.709705 
L 191.243203 93.33516 
L 191.895909 102.870995 
L 192.548615 123.498093 
L 193.20132 139.505489 
L 193.854026 87.126288 
L 194.506732 130.122688 
L 195.159437 100.176756 
L 196.464848 139.423663 
L 197.117554 136.414811 
L 197.77026 113.014028 
L 198.422965 105.40009 
L 199.075671 122.984475 
L 199.728377 78.797937 
L 200.381082 149.057616 
L 201.033788 99.105074 
L 201.686494 122.360165 
L 202.339199 116.420464 
L 202.991905 118.223556 
L 203.64461 100.413471 
L 204.297316 108.990391 
L 204.950022 119.060547 
L 205.602727 98.089534 
L 206.255433 116.118759 
L 206.908139 144.882891 
L 207.560844 116.333917 
L 208.21355 109.874627 
L 208.866255 134.306255 
L 209.518961 114.720559 
L 210.824372 158.127526 
L 211.477078 168.459375 
L 212.129784 155.283659 
L 212.782489 109.953508 
L 213.435195 118.782843 
L 214.0879 109.672922 
L 214.740606 103.21228 
L 215.393312 141.177358 
L 216.046017 152.423565 
L 216.698723 123.730256 
L 217.351429 123.920689 
L 218.004134 120.201028 
L 218.65684 124.941156 
L 219.309545 125.066428 
L 220.614957 180.989751 
L 221.267662 117.351193 
L 221.920368 134.876628 
L 222.573074 143.608801 
L 223.225779 134.549791 
L 223.878485 92.391726 
L 224.53119 146.67542 
L 225.183896 117.430511 
L 225.836602 104.451381 
L 226.489307 145.744628 
L 227.142013 116.504428 
L 227.794719 132.425442 
L 228.447424 121.46271 
L 229.10013 141.471141 
L 229.752835 96.40185 
L 230.405541 141.676107 
L 231.710952 161.873982 
L 232.363658 124.996596 
L 233.016364 142.467916 
L 233.669069 147.443834 
L 234.321775 119.425533 
L 234.974481 173.480581 
L 235.627186 138.553296 
L 236.279892 138.903109 
L 236.932597 124.490215 
L 237.585303 143.195314 
L 238.238009 88.516836 
L 238.890714 124.349701 
L 239.54342 134.566349 
L 240.196126 121.794041 
L 240.848831 132.706596 
L 241.501537 123.882502 
L 242.154242 118.450202 
L 242.806948 99.199154 
L 243.459654 133.698096 
L 244.112359 116.10549 
L 244.765065 126.582863 
L 245.417771 126.41833 
L 246.070476 136.014607 
L 246.723182 114.48759 
L 247.375887 116.830148 
L 248.028593 116.161549 
L 248.681299 105.27191 
L 249.334004 83.790494 
L 249.98671 98.233902 
L 250.639416 74.640549 
L 251.292121 67.96143 
L 251.944827 68.640029 
L 252.597532 45.942071 
L 253.250238 120.987003 
L 253.902944 85.380796 
L 254.555649 68.851192 
L 255.208355 76.369173 
L 255.861061 92.423139 
L 256.513766 96.540827 
L 257.166472 76.056517 
L 257.819177 103.048536 
L 258.471883 75.555386 
L 259.124589 92.602585 
L 259.777294 95.935597 
L 260.43 110.393104 
L 261.082706 92.048313 
L 261.735411 83.460899 
L 262.388117 90.031189 
L 263.040823 105.576759 
L 264.346234 86.507175 
L 264.998939 85.097204 
L 265.651645 68.082133 
L 266.304351 98.180209 
L 266.957056 89.762748 
L 267.609762 76.31773 
L 268.262468 68.27024 
L 268.915173 57.770664 
L 269.567879 91.205083 
L 270.220584 114.274811 
L 270.87329 77.596586 
L 271.525996 80.270874 
L 272.178701 78.189286 
L 272.831407 114.720357 
L 273.484113 101.138067 
L 274.136818 121.837988 
L 274.789524 118.800254 
L 275.442229 142.975822 
L 276.094935 99.026571 
L 276.747641 122.458831 
L 277.400346 79.698392 
L 278.053052 70.756285 
L 278.705758 118.31924 
L 279.358463 103.861569 
L 280.011169 118.783492 
L 280.663874 119.246931 
L 281.31658 135.653996 
L 281.969286 98.155036 
L 282.621991 101.798136 
L 283.274697 119.114336 
L 283.927403 147.308079 
L 284.580108 116.603412 
L 285.232814 125.573277 
L 285.885519 125.151782 
L 286.538225 113.80421 
L 287.190931 112.058931 
L 287.843636 116.145879 
L 288.496342 137.032668 
L 289.149048 114.193035 
L 289.801753 138.043977 
L 290.454459 137.575702 
L 291.107165 119.413378 
L 291.75987 112.497366 
L 292.412576 127.003735 
L 293.065281 138.42227 
L 293.717987 94.762046 
L 294.370693 121.124742 
L 295.023398 140.072387 
L 295.676104 133.808349 
L 296.32881 104.183762 
L 296.981515 136.268489 
L 297.634221 87.745557 
L 298.939632 120.259731 
L 299.592338 124.324026 
L 300.245043 127.138114 
L 300.897749 97.046644 
L 301.550455 100.319396 
L 302.20316 130.24212 
L 303.508571 80.496223 
L 304.161277 65.550735 
L 304.813983 90.980546 
L 305.466688 101.288673 
L 306.119394 101.82695 
L 306.7721 97.210815 
L 307.424805 97.322742 
L 308.077511 113.25402 
L 308.730216 74.767823 
L 309.382922 80.100883 
L 310.035628 111.84486 
L 310.688333 89.982331 
L 311.341039 81.177895 
L 311.993745 102.39482 
L 312.64645 67.826873 
L 313.299156 82.593921 
L 313.951861 92.595967 
L 314.604567 69.923229 
L 315.257273 94.242569 
L 315.909978 31.093636 
L 316.562684 88.597872 
L 317.21539 55.225763 
L 317.868095 55.209734 
L 318.520801 83.792224 
L 319.173506 31.709061 
L 319.826212 76.260385 
L 320.478918 92.262759 
L 321.131623 67.981665 
L 321.784329 108.891676 
L 322.437035 55.53767 
L 323.08974 70.843594 
L 323.742446 47.973391 
L 324.395152 37.283007 
L 325.047857 72.929012 
L 325.700563 64.721807 
L 326.353268 83.935276 
L 327.005974 65.280698 
L 327.65868 80.846044 
L 328.311385 71.249399 
L 328.964091 70.297279 
L 329.616797 89.592326 
L 330.269502 49.405657 
L 330.922208 39.641611 
L 331.574913 76.037468 
L 332.227619 66.418885 
L 332.880325 76.84041 
L 333.53303 100.309348 
L 334.185736 90.517335 
L 334.838442 67.952548 
L 335.491147 78.688576 
L 336.143853 60.32853 
L 336.796558 93.907832 
L 337.449264 59.548132 
L 338.10197 91.373544 
L 338.754675 64.80346 
L 339.407381 109.15817 
L 340.060087 124.68293 
L 340.712792 113.507019 
L 341.365498 122.364559 
L 342.018203 85.291152 
L 342.670909 66.032217 
L 343.323615 88.621571 
L 343.97632 94.719375 
L 344.629026 83.544063 
L 345.281732 118.764578 
L 345.934437 112.961897 
L 346.587143 99.510562 
L 347.239848 121.26534 
L 347.892554 137.389316 
L 348.54526 91.728181 
L 349.197965 121.261362 
L 349.850671 74.140175 
L 350.503377 101.321956 
L 351.156082 99.926101 
L 351.808788 95.004893 
L 352.461494 108.054573 
L 353.114199 56.383499 
L 353.766905 88.021445 
L 354.41961 136.167729 
L 355.072316 106.534126 
L 355.725022 93.176665 
L 356.377727 111.259039 
L 357.030433 105.078189 
L 357.683139 68.971638 
L 358.335844 98.151209 
L 358.98855 137.79064 
L 359.641255 123.282578 
L 360.293961 49.451028 
L 360.946667 73.920569 
L 361.599372 124.279099 
L 362.252078 128.074548 
L 362.904784 113.917611 
L 363.557489 87.828859 
L 364.210195 115.98259 
L 364.8629 134.750661 
L 365.515606 85.361436 
L 366.168312 86.442371 
L 366.821017 92.675575 
L 367.473723 94.576976 
L 368.126429 67.861266 
L 368.779134 88.292374 
L 369.43184 72.352478 
L 370.084545 74.454399 
L 370.737251 98.409491 
L 371.389957 105.487437 
L 372.695368 58.309467 
L 373.348074 62.941918 
L 374.653485 65.701087 
L 375.30619 104.382829 
L 375.958896 75.721081 
L 376.611602 91.357748 
L 377.264307 57.076683 
L 377.917013 84.504705 
L 378.569719 71.583194 
L 379.222424 52.482001 
L 379.87513 83.519444 
L 380.527835 60.713084 
L 381.833247 75.647791 
L 382.485952 72.117701 
L 383.138658 54.380092 
L 383.791364 74.538149 
L 384.444069 52.888777 
L 385.096775 40.049529 
L 385.749481 73.012155 
L 386.402186 58.172936 
L 387.054892 51.866194 
L 387.707597 61.245379 
L 388.360303 62.485497 
L 389.013009 63.476672 
L 389.665714 59.750161 
L 390.31842 61.500166 
L 390.971126 37.092168 
L 391.623831 70.607929 
L 392.276537 67.000768 
L 392.929242 86.768769 
L 393.581948 57.066502 
L 394.234654 91.906237 
L 394.887359 76.626084 
L 395.540065 76.970549 
L 396.192771 48.189149 
L 396.845476 53.538834 
L 397.498182 100.547825 
L 398.150887 72.237289 
L 398.803593 65.500845 
L 399.456299 54.481126 
L 400.109004 57.760472 
L 400.76171 57.017689 
L 401.414416 72.578723 
L 402.067121 54.323682 
L 402.719827 79.213565 
L 403.372532 64.172483 
L 404.025238 85.667755 
L 404.677944 56.142728 
L 405.330649 64.030572 
L 405.983355 65.43746 
L 406.636061 68.702785 
L 407.288766 95.573928 
L 407.941472 94.872508 
L 408.594177 69.292253 
L 409.246883 112.060861 
L 409.899589 110.426458 
L 410.552294 89.98258 
L 411.205 53.403307 
L 411.857706 101.357137 
L 412.510411 94.825919 
L 413.163117 82.081892 
L 413.815823 99.429846 
L 414.468528 92.662537 
L 415.121234 107.216866 
L 415.773939 82.490319 
L 416.426645 85.309524 
L 417.079351 83.823766 
L 417.732056 91.418737 
L 418.384762 100.776152 
L 419.037468 125.370917 
L 419.690173 103.37908 
L 420.342879 114.252983 
L 420.995584 110.308649 
L 421.64829 120.326712 
L 422.300996 144.258174 
L 422.953701 82.170313 
L 423.606407 120.353061 
L 424.259113 145.996577 
L 424.911818 63.882936 
L 424.911818 63.882936 
" clip-path="url(#p0f2cf0d7c5)" style="fill: none; stroke: #d3d3d3; stroke-width: 2.25; stroke-linecap: round"/>
   </g>
   <g id="line2d_15">
    <path d="M 95.948182 264.166364 
L 96.600887 263.838842 
L 97.253593 263.040489 
L 98.559004 260.67188 
L 99.864416 257.735822 
L 101.822532 252.69447 
L 103.780649 247.076864 
L 106.391472 238.885053 
L 110.307706 225.626304 
L 116.182056 205.56399 
L 118.792879 197.385117 
L 120.750996 191.801801 
L 122.709113 186.803533 
L 124.667229 182.471793 
L 125.972641 179.984817 
L 127.278052 177.833104 
L 128.583463 176.023707 
L 129.888874 174.558693 
L 131.194286 173.434851 
L 132.499697 172.644201 
L 133.805108 172.173626 
L 135.110519 172.005476 
L 136.415931 172.117684 
L 137.721342 172.484061 
L 139.026753 173.074677 
L 140.98487 174.308016 
L 142.942987 175.848564 
L 150.122749 181.965796 
L 152.080866 183.176257 
L 153.386277 183.754472 
L 154.691688 184.114771 
L 155.9971 184.231362 
L 157.302511 184.082556 
L 158.607922 183.651105 
L 159.913333 182.924529 
L 161.218745 181.895292 
L 162.524156 180.560877 
L 163.829567 178.923607 
L 165.134978 176.991386 
L 167.093095 173.568163 
L 169.051212 169.571732 
L 171.009329 165.085298 
L 173.620152 158.519202 
L 178.841797 144.472557 
L 182.105325 135.979849 
L 184.716147 129.836573 
L 186.674264 125.78862 
L 188.632381 122.327292 
L 189.937792 120.383669 
L 191.243203 118.75145 
L 192.548615 117.442769 
L 193.854026 116.464842 
L 195.159437 115.819743 
L 196.464848 115.504539 
L 197.77026 115.511457 
L 199.075671 115.827449 
L 200.381082 116.435059 
L 201.686494 117.312383 
L 202.991905 118.433226 
L 204.950022 120.505376 
L 206.908139 122.944711 
L 210.171667 127.481855 
L 214.0879 132.936214 
L 216.046017 135.355639 
L 218.004134 137.405214 
L 219.309545 138.512405 
L 220.614957 139.379558 
L 221.920368 139.983014 
L 223.225779 140.303393 
L 224.53119 140.325889 
L 225.836602 140.040586 
L 227.142013 139.442586 
L 228.447424 138.53197 
L 229.752835 137.313724 
L 231.058247 135.798393 
L 232.363658 134.000632 
L 234.321775 130.818509 
L 236.279892 127.129614 
L 238.890714 121.601361 
L 242.806948 112.587159 
L 246.723182 103.650041 
L 249.334004 98.25798 
L 251.292121 94.714707 
L 253.250238 91.714444 
L 254.555649 90.057507 
L 255.861061 88.698133 
L 257.166472 87.650912 
L 258.471883 86.925634 
L 259.777294 86.527006 
L 261.082706 86.454644 
L 262.388117 86.703549 
L 263.693528 87.262769 
L 264.998939 88.117587 
L 266.304351 89.248281 
L 267.609762 90.630712 
L 269.567879 93.114619 
L 271.525996 95.99351 
L 274.136818 100.234817 
L 280.011169 109.921125 
L 281.969286 112.721091 
L 283.927403 115.103526 
L 285.232814 116.408971 
L 286.538225 117.457693 
L 287.843636 118.228162 
L 289.149048 118.703337 
L 290.454459 118.870925 
L 291.75987 118.723561 
L 293.065281 118.258811 
L 294.370693 117.479249 
L 295.676104 116.392983 
L 296.981515 115.012298 
L 298.286926 113.354662 
L 300.245043 110.397672 
L 302.20316 106.957731 
L 304.813983 101.807936 
L 313.951861 82.906655 
L 315.909978 79.546354 
L 317.868095 76.690274 
L 319.173506 75.111143 
L 320.478918 73.817543 
L 321.784329 72.826454 
L 323.08974 72.150071 
L 324.395152 71.795653 
L 325.700563 71.765479 
L 327.005974 72.056966 
L 328.311385 72.661875 
L 329.616797 73.567812 
L 330.922208 74.757285 
L 332.227619 76.208316 
L 334.185736 78.817733 
L 336.143853 81.854066 
L 338.754675 86.361957 
L 345.281732 97.993425 
L 347.239848 101.038825 
L 349.197965 103.661707 
L 350.503377 105.124657 
L 351.808788 106.328718 
L 353.114199 107.252424 
L 354.41961 107.878739 
L 355.725022 108.195341 
L 357.030433 108.194901 
L 358.335844 107.875139 
L 359.641255 107.238595 
L 360.946667 106.293241 
L 362.252078 105.051664 
L 363.557489 103.531134 
L 365.515606 100.776308 
L 367.473723 97.534378 
L 370.084545 92.642226 
L 374.653485 83.351384 
L 377.917013 76.94069 
L 379.87513 73.476227 
L 381.833247 70.44291 
L 383.138658 68.711058 
L 384.444069 67.241807 
L 385.749481 66.056562 
L 387.054892 65.17228 
L 388.360303 64.601241 
L 389.665714 64.350801 
L 390.971126 64.423167 
L 392.276537 64.815563 
L 393.581948 65.520324 
L 394.887359 66.524554 
L 396.192771 67.810936 
L 397.498182 69.357691 
L 399.456299 72.108042 
L 401.414416 75.28243 
L 404.025238 79.970068 
L 410.552294 92.029542 
L 412.510411 95.197715 
L 414.468528 97.940819 
L 415.773939 99.482533 
L 417.079351 100.764251 
L 418.384762 101.764532 
L 419.690173 102.466394 
L 420.995584 102.857569 
L 422.300996 102.930624 
L 423.606407 102.683236 
L 424.911818 102.118317 
L 424.911818 102.118317 
" clip-path="url(#p0f2cf0d7c5)" style="fill: none; stroke: #000000; stroke-width: 2.25; stroke-linecap: round"/>
   </g>
   <g id="patch_3">
    <path d="M 79.5 275.82 
L 79.5 19.44 
" style="fill: none; stroke: #262626; stroke-width: 1.875; stroke-linejoin: miter; stroke-linecap: square"/>
   </g>
   <g id="patch_4">
    <path d="M 79.5 275.82 
L 441.36 275.82 
" style="fill: none; stroke: #262626; stroke-width: 1.875; stroke-linejoin: miter; stroke-linecap: square"/>
   </g>
   <g id="legend_1">
    <g id="line2d_16">
     <path d="M 269.919844 227.544609 
L 286.419844 227.544609 
L 302.919844 227.544609 
" style="fill: none; stroke: #d3d3d3; stroke-width: 2.25; stroke-linecap: round"/>
    </g>
    <g id="text_16">
     <!-- $\sigma$ = 0.1 -->
     <g style="fill: #262626" transform="translate(316.119844 233.319609) scale(0.165 -0.165)">
      <defs>
       <path id="DejaVuSans-Oblique-3c3" d="M 2219 3044 
Q 1744 3044 1422 2700 
Q 1081 2341 969 1747 
Q 844 1119 1044 756 
Q 1241 397 1706 397 
Q 2166 397 2503 759 
Q 2844 1122 2966 1747 
Q 3075 2319 2881 2700 
Q 2700 3044 2219 3044 
z
M 2309 3503 
L 4219 3500 
L 4106 2925 
L 3463 2925 
Q 3706 2438 3575 1747 
Q 3406 888 2884 400 
Q 2359 -91 1609 -91 
Q 856 -91 525 400 
Q 194 888 363 1747 
Q 528 2609 1050 3097 
Q 1484 3503 2309 3503 
z
" transform="scale(0.015625)"/>
       <path id="DejaVuSans-3d" d="M 678 2906 
L 4684 2906 
L 4684 2381 
L 678 2381 
L 678 2906 
z
M 678 1631 
L 4684 1631 
L 4684 1100 
L 678 1100 
L 678 1631 
z
" transform="scale(0.015625)"/>
      </defs>
      <use xlink:href="#DejaVuSans-Oblique-3c3" transform="translate(0 0.78125)"/>
      <use xlink:href="#DejaVuSans-20" transform="translate(63.378906 0.78125)"/>
      <use xlink:href="#DejaVuSans-3d" transform="translate(95.166016 0.78125)"/>
      <use xlink:href="#DejaVuSans-20" transform="translate(178.955078 0.78125)"/>
      <use xlink:href="#DejaVuSans-30" transform="translate(210.742188 0.78125)"/>
      <use xlink:href="#DejaVuSans-2e" transform="translate(274.365234 0.78125)"/>
      <use xlink:href="#DejaVuSans-31" transform="translate(306.152344 0.78125)"/>
     </g>
    </g>
    <g id="line2d_17">
     <path d="M 269.919844 251.763516 
L 286.419844 251.763516 
L 302.919844 251.763516 
" style="fill: none; stroke: #000000; stroke-width: 2.25; stroke-linecap: round"/>
    </g>
    <g id="text_17">
     <!-- Deterministic -->
     <g style="fill: #262626" transform="translate(316.119844 257.538516) scale(0.165 -0.165)">
      <defs>
       <path id="DejaVuSans-44" d="M 1259 4147 
L 1259 519 
L 2022 519 
Q 2988 519 3436 956 
Q 3884 1394 3884 2338 
Q 3884 3275 3436 3711 
Q 2988 4147 2022 4147 
L 1259 4147 
z
M 628 4666 
L 1925 4666 
Q 3281 4666 3915 4102 
Q 4550 3538 4550 2338 
Q 4550 1131 3912 565 
Q 3275 0 1925 0 
L 628 0 
L 628 4666 
z
" transform="scale(0.015625)"/>
       <path id="DejaVuSans-74" d="M 1172 4494 
L 1172 3500 
L 2356 3500 
L 2356 3053 
L 1172 3053 
L 1172 1153 
Q 1172 725 1289 603 
Q 1406 481 1766 481 
L 2356 481 
L 2356 0 
L 1766 0 
Q 1100 0 847 248 
Q 594 497 594 1153 
L 594 3053 
L 172 3053 
L 172 3500 
L 594 3500 
L 594 4494 
L 1172 4494 
z
" transform="scale(0.015625)"/>
       <path id="DejaVuSans-63" d="M 3122 3366 
L 3122 2828 
Q 2878 2963 2633 3030 
Q 2388 3097 2138 3097 
Q 1578 3097 1268 2742 
Q 959 2388 959 1747 
Q 959 1106 1268 751 
Q 1578 397 2138 397 
Q 2388 397 2633 464 
Q 2878 531 3122 666 
L 3122 134 
Q 2881 22 2623 -34 
Q 2366 -91 2075 -91 
Q 1284 -91 818 406 
Q 353 903 353 1747 
Q 353 2603 823 3093 
Q 1294 3584 2113 3584 
Q 2378 3584 2631 3529 
Q 2884 3475 3122 3366 
z
" transform="scale(0.015625)"/>
      </defs>
      <use xlink:href="#DejaVuSans-44"/>
      <use xlink:href="#DejaVuSans-65" transform="translate(77.001953 0)"/>
      <use xlink:href="#DejaVuSans-74" transform="translate(138.525391 0)"/>
      <use xlink:href="#DejaVuSans-65" transform="translate(177.734375 0)"/>
      <use xlink:href="#DejaVuSans-72" transform="translate(239.257812 0)"/>
      <use xlink:href="#DejaVuSans-6d" transform="translate(278.621094 0)"/>
      <use xlink:href="#DejaVuSans-69" transform="translate(376.033203 0)"/>
      <use xlink:href="#DejaVuSans-6e" transform="translate(403.816406 0)"/>
      <use xlink:href="#DejaVuSans-69" transform="translate(467.195312 0)"/>
      <use xlink:href="#DejaVuSans-73" transform="translate(494.978516 0)"/>
      <use xlink:href="#DejaVuSans-74" transform="translate(547.078125 0)"/>
      <use xlink:href="#DejaVuSans-69" transform="translate(586.287109 0)"/>
      <use xlink:href="#DejaVuSans-63" transform="translate(614.070312 0)"/>
     </g>
    </g>
   </g>
  </g>
 </g>
 <defs>
  <clipPath id="p0f2cf0d7c5">
   <rect x="79.5" y="19.44" width="361.86" height="256.38"/>
  </clipPath>
 </defs>
</svg>
