<?xml version="1.0" encoding="utf-8" standalone="no"?>
<!DOCTYPE svg PUBLIC "-//W3C//DTD SVG 1.1//EN"
  "http://www.w3.org/Graphics/SVG/1.1/DTD/svg11.dtd">
<svg xmlns:xlink="http://www.w3.org/1999/xlink" width="460.8pt" height="345.6pt" viewBox="0 0 460.8 345.6" xmlns="http://www.w3.org/2000/svg" version="1.1">
 <metadata>
  <rdf:RDF xmlns:dc="http://purl.org/dc/elements/1.1/" xmlns:cc="http://creativecommons.org/ns#" xmlns:rdf="http://www.w3.org/1999/02/22-rdf-syntax-ns#">
   <cc:Work>
    <dc:type rdf:resource="http://purl.org/dc/dcmitype/StillImage"/>
    <dc:date>1980-01-01T00:00:00+00:00</dc:date>
    <dc:format>image/svg+xml</dc:format>
    <dc:creator>
     <cc:Agent>
      <dc:title>Matplotlib v3.10.8, https://matplotlib.org/</dc:title>
     </cc:Agent>
    </dc:creator>
   </cc:Work>
  </rdf:RDF>
 </metadata>
 <defs>
  <style type="text/css">*{stroke-linejoin: round; stroke-linecap: butt}</style>
 </defs>
 <g id="figure_1">
  <g id="patch_1">
   <path d="M 0 345.6 
L 460.8 345.6 
L 460.8 0 
L 0 0 
z
" style="fill: #ffffff"/>
  </g>
  <g id="axes_1">
   <g id="patch_2">
    <path d="M 79.59 275.82 
L 441.36 275.82 
L 441.36 19.44 
L 79.59 19.44 
z
" style="fill: #ffffff"/>
   </g>
   <g id="matplotlib.axis_1">
    <g id="xtick_1">
     <g id="line2d_1">
      <defs>
       <path id="mc250757375" d="M 0 0 
L 0 9 
" style="stroke: #262626; stroke-width: 1.875"/>
      </defs>
      <g>
       <use xlink:href="#mc250757375" x="96.034091" y="275.82" style="fill: #262626; stroke: #262626; stroke-width: 1.875"/>
      </g>
     </g>
     <g id="text_1">
      <!-- 0 -->
      <g style="fill: #262626" transform="translate(90.785028 300.857422) scale(0.165 -0.165)">
       <defs>
        <path id="DejaVuSans-30" d="M 2034 4250 
Q 1547 4250 1301 3770 
Q 1056 3291 1056 2328 
Q 1056 1369 1301 889 
Q 1547 409 2034 409 
Q 2525 409 2770 889 
Q 3016 1369 3016 2328 
Q 3016 3291 2770 3770 
Q 2525 4250 2034 4250 
z
M 2034 4750 
Q 2819 4750 3233 4129 
Q 3647 3509 3647 2328 
Q 3647 1150 3233 529 
Q 2819 -91 2034 -91 
Q 1250 -91 836 529 
Q 422 1150 422 2328 
Q 422 3509 836 4129 
Q 1250 4750 2034 4750 
z
" transform="scale(0.015625)"/>
       </defs>
       <use xlink:href="#DejaVuSans-30"/>
      </g>
     </g>
    </g>
    <g id="xtick_2">
     <g id="line2d_2">
      <g>
       <use xlink:href="#mc250757375" x="161.28842" y="275.82" style="fill: #262626; stroke: #262626; stroke-width: 1.875"/>
      </g>
     </g>
     <g id="text_2">
      <!-- 100 -->
      <g style="fill: #262626" transform="translate(145.541232 300.857422) scale(0.165 -0.165)">
       <defs>
        <path id="DejaVuSans-31" d="M 794 531 
L 1825 531 
L 1825 4091 
L 703 3866 
L 703 4441 
L 1819 4666 
L 2450 4666 
L 2450 531 
L 3481 531 
L 3481 0 
L 794 0 
L 794 531 
z
" transform="scale(0.015625)"/>
       </defs>
       <use xlink:href="#DejaVuSans-31"/>
       <use xlink:href="#DejaVuSans-30" transform="translate(63.623047 0)"/>
       <use xlink:href="#DejaVuSans-30" transform="translate(127.246094 0)"/>
      </g>
     </g>
    </g>
    <g id="xtick_3">
     <g id="line2d_3">
      <g>
       <use xlink:href="#mc250757375" x="226.542749" y="275.82" style="fill: #262626; stroke: #262626; stroke-width: 1.875"/>
      </g>
     </g>
     <g id="text_3">
      <!-- 200 -->
      <g style="fill: #262626" transform="translate(210.795561 300.857422) scale(0.165 -0.165)">
       <defs>
        <path id="DejaVuSans-32" d="M 1228 531 
L 3431 531 
L 3431 0 
L 469 0 
L 469 531 
Q 828 903 1448 1529 
Q 2069 2156 2228 2338 
Q 2531 2678 2651 2914 
Q 2772 3150 2772 3378 
Q 2772 3750 2511 3984 
Q 2250 4219 1831 4219 
Q 1534 4219 1204 4116 
Q 875 4013 500 3803 
L 500 4441 
Q 881 4594 1212 4672 
Q 1544 4750 1819 4750 
Q 2544 4750 2975 4387 
Q 3406 4025 3406 3419 
Q 3406 3131 3298 2873 
Q 3191 2616 2906 2266 
Q 2828 2175 2409 1742 
Q 1991 1309 1228 531 
z
" transform="scale(0.015625)"/>
       </defs>
       <use xlink:href="#DejaVuSans-32"/>
       <use xlink:href="#DejaVuSans-30" transform="translate(63.623047 0)"/>
       <use xlink:href="#DejaVuSans-30" transform="translate(127.246094 0)"/>
      </g>
     </g>
    </g>
    <g id="xtick_4">
     <g id="line2d_4">
      <g>
       <use xlink:href="#mc250757375" x="291.797078" y="275.82" style="fill: #262626; stroke: #262626; stroke-width: 1.875"/>
      </g>
     </g>
     <g id="text_4">
      <!-- 300 -->
      <g style="fill: #262626" transform="translate(276.04989 300.857422) scale(0.165 -0.165)">
       <defs>
        <path id="DejaVuSans-33" d="M 2597 2516 
Q 3050 2419 3304 2112 
Q 3559 1806 3559 1356 
Q 3559 666 3084 287 
Q 2609 -91 1734 -91 
Q 1441 -91 1130 -33 
Q 819 25 488 141 
L 488 750 
Q 750 597 1062 519 
Q 1375 441 1716 441 
Q 2309 441 2620 675 
Q 2931 909 2931 1356 
Q 2931 1769 2642 2001 
Q 2353 2234 1838 2234 
L 1294 2234 
L 1294 2753 
L 1863 2753 
Q 2328 2753 2575 2939 
Q 2822 3125 2822 3475 
Q 2822 3834 2567 4026 
Q 2313 4219 1838 4219 
Q 1578 4219 1281 4162 
Q 984 4106 628 3988 
L 628 4550 
Q 988 4650 1302 4700 
Q 1616 4750 1894 4750 
Q 2613 4750 3031 4423 
Q 3450 4097 3450 3541 
Q 3450 3153 3228 2886 
Q 3006 2619 2597 2516 
z
" transform="scale(0.015625)"/>
       </defs>
       <use xlink:href="#DejaVuSans-33"/>
       <use xlink:href="#DejaVuSans-30" transform="translate(63.623047 0)"/>
       <use xlink:href="#DejaVuSans-30" transform="translate(127.246094 0)"/>
      </g>
     </g>
    </g>
    <g id="xtick_5">
     <g id="line2d_5">
      <g>
       <use xlink:href="#mc250757375" x="357.051407" y="275.82" style="fill: #262626; stroke: #262626; stroke-width: 1.875"/>
      </g>
     </g>
     <g id="text_5">
      <!-- 400 -->
      <g style="fill: #262626" transform="translate(341.304219 300.857422) scale(0.165 -0.165)">
       <defs>
        <path id="DejaVuSans-34" d="M 2419 4116 
L 825 1625 
L 2419 1625 
L 2419 4116 
z
M 2253 4666 
L 3047 4666 
L 3047 1625 
L 3713 1625 
L 3713 1100 
L 3047 1100 
L 3047 0 
L 2419 0 
L 2419 1100 
L 313 1100 
L 313 1709 
L 2253 4666 
z
" transform="scale(0.015625)"/>
       </defs>
       <use xlink:href="#DejaVuSans-34"/>
       <use xlink:href="#DejaVuSans-30" transform="translate(63.623047 0)"/>
       <use xlink:href="#DejaVuSans-30" transform="translate(127.246094 0)"/>
      </g>
     </g>
    </g>
    <g id="xtick_6">
     <g id="line2d_6">
      <g>
       <use xlink:href="#mc250757375" x="422.305736" y="275.82" style="fill: #262626; stroke: #262626; stroke-width: 1.875"/>
      </g>
     </g>
     <g id="text_6">
      <!-- 500 -->
      <g style="fill: #262626" transform="translate(406.558548 300.857422) scale(0.165 -0.165)">
       <defs>
        <path id="DejaVuSans-35" d="M 691 4666 
L 3169 4666 
L 3169 4134 
L 1269 4134 
L 1269 2991 
Q 1406 3038 1543 3061 
Q 1681 3084 1819 3084 
Q 2600 3084 3056 2656 
Q 3513 2228 3513 1497 
Q 3513 744 3044 326 
Q 2575 -91 1722 -91 
Q 1428 -91 1123 -41 
Q 819 9 494 109 
L 494 744 
Q 775 591 1075 516 
Q 1375 441 1709 441 
Q 2250 441 2565 725 
Q 2881 1009 2881 1497 
Q 2881 1984 2565 2268 
Q 2250 2553 1709 2553 
Q 1456 2553 1204 2497 
Q 953 2441 691 2322 
L 691 4666 
z
" transform="scale(0.015625)"/>
       </defs>
       <use xlink:href="#DejaVuSans-35"/>
       <use xlink:href="#DejaVuSans-30" transform="translate(63.623047 0)"/>
       <use xlink:href="#DejaVuSans-30" transform="translate(127.246094 0)"/>
      </g>
     </g>
    </g>
    <g id="text_7">
     <!-- Time (hr) -->
     <g style="fill: #262626" transform="translate(219.167813 321.966094) scale(0.18 -0.18)">
      <defs>
       <path id="DejaVuSans-54" d="M -19 4666 
L 3928 4666 
L 3928 4134 
L 2272 4134 
L 2272 0 
L 1638 0 
L 1638 4134 
L -19 4134 
L -19 4666 
z
" transform="scale(0.015625)"/>
       <path id="DejaVuSans-69" d="M 603 3500 
L 1178 3500 
L 1178 0 
L 603 0 
L 603 3500 
z
M 603 4863 
L 1178 4863 
L 1178 4134 
L 603 4134 
L 603 4863 
z
" transform="scale(0.015625)"/>
       <path id="DejaVuSans-6d" d="M 3328 2828 
Q 3544 3216 3844 3400 
Q 4144 3584 4550 3584 
Q 5097 3584 5394 3201 
Q 5691 2819 5691 2113 
L 5691 0 
L 5113 0 
L 5113 2094 
Q 5113 2597 4934 2840 
Q 4756 3084 4391 3084 
Q 3944 3084 3684 2787 
Q 3425 2491 3425 1978 
L 3425 0 
L 2847 0 
L 2847 2094 
Q 2847 2600 2669 2842 
Q 2491 3084 2119 3084 
Q 1678 3084 1418 2786 
Q 1159 2488 1159 1978 
L 1159 0 
L 581 0 
L 581 3500 
L 1159 3500 
L 1159 2956 
Q 1356 3278 1631 3431 
Q 1906 3584 2284 3584 
Q 2666 3584 2933 3390 
Q 3200 3197 3328 2828 
z
" transform="scale(0.015625)"/>
       <path id="DejaVuSans-65" d="M 3597 1894 
L 3597 1613 
L 953 1613 
Q 991 1019 1311 708 
Q 1631 397 2203 397 
Q 2534 397 2845 478 
Q 3156 559 3463 722 
L 3463 178 
Q 3153 47 2828 -22 
Q 2503 -91 2169 -91 
Q 1331 -91 842 396 
Q 353 884 353 1716 
Q 353 2575 817 3079 
Q 1281 3584 2069 3584 
Q 2775 3584 3186 3129 
Q 3597 2675 3597 1894 
z
M 3022 2063 
Q 3016 2534 2758 2815 
Q 2500 3097 2075 3097 
Q 1594 3097 1305 2825 
Q 1016 2553 972 2059 
L 3022 2063 
z
" transform="scale(0.015625)"/>
       <path id="DejaVuSans-20" transform="scale(0.015625)"/>
       <path id="DejaVuSans-28" d="M 1984 4856 
Q 1566 4138 1362 3434 
Q 1159 2731 1159 2009 
Q 1159 1288 1364 580 
Q 1569 -128 1984 -844 
L 1484 -844 
Q 1016 -109 783 600 
Q 550 1309 550 2009 
Q 550 2706 781 3412 
Q 1013 4119 1484 4856 
L 1984 4856 
z
" transform="scale(0.015625)"/>
       <path id="DejaVuSans-68" d="M 3513 2113 
L 3513 0 
L 2938 0 
L 2938 2094 
Q 2938 2591 2744 2837 
Q 2550 3084 2163 3084 
Q 1697 3084 1428 2787 
Q 1159 2491 1159 1978 
L 1159 0 
L 581 0 
L 581 4863 
L 1159 4863 
L 1159 2956 
Q 1366 3272 1645 3428 
Q 1925 3584 2291 3584 
Q 2894 3584 3203 3211 
Q 3513 2838 3513 2113 
z
" transform="scale(0.015625)"/>
       <path id="DejaVuSans-72" d="M 2631 2963 
Q 2534 3019 2420 3045 
Q 2306 3072 2169 3072 
Q 1681 3072 1420 2755 
Q 1159 2438 1159 1844 
L 1159 0 
L 581 0 
L 581 3500 
L 1159 3500 
L 1159 2956 
Q 1341 3275 1631 3429 
Q 1922 3584 2338 3584 
Q 2397 3584 2469 3576 
Q 2541 3569 2628 3553 
L 2631 2963 
z
" transform="scale(0.015625)"/>
       <path id="DejaVuSans-29" d="M 513 4856 
L 1013 4856 
Q 1481 4119 1714 3412 
Q 1947 2706 1947 2009 
Q 1947 1309 1714 600 
Q 1481 -109 1013 -844 
L 513 -844 
Q 928 -128 1133 580 
Q 1338 1288 1338 2009 
Q 1338 2731 1133 3434 
Q 928 4138 513 4856 
z
" transform="scale(0.015625)"/>
      </defs>
      <use xlink:href="#DejaVuSans-54"/>
      <use xlink:href="#DejaVuSans-69" transform="translate(57.958984 0)"/>
      <use xlink:href="#DejaVuSans-6d" transform="translate(85.742188 0)"/>
      <use xlink:href="#DejaVuSans-65" transform="translate(183.154297 0)"/>
      <use xlink:href="#DejaVuSans-20" transform="translate(244.677734 0)"/>
      <use xlink:href="#DejaVuSans-28" transform="translate(276.464844 0)"/>
      <use xlink:href="#DejaVuSans-68" transform="translate(315.478516 0)"/>
      <use xlink:href="#DejaVuSans-72" transform="translate(378.857422 0)"/>
      <use xlink:href="#DejaVuSans-29" transform="translate(419.970703 0)"/>
     </g>
    </g>
   </g>
   <g id="matplotlib.axis_2">
    <g id="ytick_1">
     <g id="line2d_7">
      <defs>
       <path id="mc6d29bf4fa" d="M 0 0 
L -9 0 
" style="stroke: #262626; stroke-width: 1.875"/>
      </defs>
      <g>
       <use xlink:href="#mc6d29bf4fa" x="79.59" y="237.754738" style="fill: #262626; stroke: #262626; stroke-width: 1.875"/>
      </g>
     </g>
     <g id="text_8">
      <!-- 0.6 -->
      <g style="fill: #262626" transform="translate(40.849844 244.023449) scale(0.165 -0.165)">
       <defs>
        <path id="DejaVuSans-2e" d="M 684 794 
L 1344 794 
L 1344 0 
L 684 0 
L 684 794 
z
" transform="scale(0.015625)"/>
        <path id="DejaVuSans-36" d="M 2113 2584 
Q 1688 2584 1439 2293 
Q 1191 2003 1191 1497 
Q 1191 994 1439 701 
Q 1688 409 2113 409 
Q 2538 409 2786 701 
Q 3034 994 3034 1497 
Q 3034 2003 2786 2293 
Q 2538 2584 2113 2584 
z
M 3366 4563 
L 3366 3988 
Q 3128 4100 2886 4159 
Q 2644 4219 2406 4219 
Q 1781 4219 1451 3797 
Q 1122 3375 1075 2522 
Q 1259 2794 1537 2939 
Q 1816 3084 2150 3084 
Q 2853 3084 3261 2657 
Q 3669 2231 3669 1497 
Q 3669 778 3244 343 
Q 2819 -91 2113 -91 
Q 1303 -91 875 529 
Q 447 1150 447 2328 
Q 447 3434 972 4092 
Q 1497 4750 2381 4750 
Q 2619 4750 2861 4703 
Q 3103 4656 3366 4563 
z
" transform="scale(0.015625)"/>
       </defs>
       <use xlink:href="#DejaVuSans-30"/>
       <use xlink:href="#DejaVuSans-2e" transform="translate(63.623047 0)"/>
       <use xlink:href="#DejaVuSans-36" transform="translate(95.410156 0)"/>
      </g>
     </g>
    </g>
    <g id="ytick_2">
     <g id="line2d_8">
      <g>
       <use xlink:href="#mc6d29bf4fa" x="79.59" y="197.330862" style="fill: #262626; stroke: #262626; stroke-width: 1.875"/>
      </g>
     </g>
     <g id="text_9">
      <!-- 0.8 -->
      <g style="fill: #262626" transform="translate(40.849844 203.599573) scale(0.165 -0.165)">
       <defs>
        <path id="DejaVuSans-38" d="M 2034 2216 
Q 1584 2216 1326 1975 
Q 1069 1734 1069 1313 
Q 1069 891 1326 650 
Q 1584 409 2034 409 
Q 2484 409 2743 651 
Q 3003 894 3003 1313 
Q 3003 1734 2745 1975 
Q 2488 2216 2034 2216 
z
M 1403 2484 
Q 997 2584 770 2862 
Q 544 3141 544 3541 
Q 544 4100 942 4425 
Q 1341 4750 2034 4750 
Q 2731 4750 3128 4425 
Q 3525 4100 3525 3541 
Q 3525 3141 3298 2862 
Q 3072 2584 2669 2484 
Q 3125 2378 3379 2068 
Q 3634 1759 3634 1313 
Q 3634 634 3220 271 
Q 2806 -91 2034 -91 
Q 1263 -91 848 271 
Q 434 634 434 1313 
Q 434 1759 690 2068 
Q 947 2378 1403 2484 
z
M 1172 3481 
Q 1172 3119 1398 2916 
Q 1625 2713 2034 2713 
Q 2441 2713 2670 2916 
Q 2900 3119 2900 3481 
Q 2900 3844 2670 4047 
Q 2441 4250 2034 4250 
Q 1625 4250 1398 4047 
Q 1172 3844 1172 3481 
z
" transform="scale(0.015625)"/>
       </defs>
       <use xlink:href="#DejaVuSans-30"/>
       <use xlink:href="#DejaVuSans-2e" transform="translate(63.623047 0)"/>
       <use xlink:href="#DejaVuSans-38" transform="translate(95.410156 0)"/>
      </g>
     </g>
    </g>
    <g id="ytick_3">
     <g id="line2d_9">
      <g>
       <use xlink:href="#mc6d29bf4fa" x="79.59" y="156.906986" style="fill: #262626; stroke: #262626; stroke-width: 1.875"/>
      </g>
     </g>
     <g id="text_10">
      <!-- 1.0 -->
      <g style="fill: #262626" transform="translate(40.849844 163.175697) scale(0.165 -0.165)">
       <use xlink:href="#DejaVuSans-31"/>
       <use xlink:href="#DejaVuSans-2e" transform="translate(63.623047 0)"/>
       <use xlink:href="#DejaVuSans-30" transform="translate(95.410156 0)"/>
      </g>
     </g>
    </g>
    <g id="ytick_4">
     <g id="line2d_10">
      <g>
       <use xlink:href="#mc6d29bf4fa" x="79.59" y="116.483109" style="fill: #262626; stroke: #262626; stroke-width: 1.875"/>
      </g>
     </g>
     <g id="text_11">
      <!-- 1.2 -->
      <g style="fill: #262626" transform="translate(40.849844 122.75182) scale(0.165 -0.165)">
       <use xlink:href="#DejaVuSans-31"/>
       <use xlink:href="#DejaVuSans-2e" transform="translate(63.623047 0)"/>
       <use xlink:href="#DejaVuSans-32" transform="translate(95.410156 0)"/>
      </g>
     </g>
    </g>
    <g id="ytick_5">
     <g id="line2d_11">
      <g>
       <use xlink:href="#mc6d29bf4fa" x="79.59" y="76.059233" style="fill: #262626; stroke: #262626; stroke-width: 1.875"/>
      </g>
     </g>
     <g id="text_12">
      <!-- 1.4 -->
      <g style="fill: #262626" transform="translate(40.849844 82.327944) scale(0.165 -0.165)">
       <use xlink:href="#DejaVuSans-31"/>
       <use xlink:href="#DejaVuSans-2e" transform="translate(63.623047 0)"/>
       <use xlink:href="#DejaVuSans-34" transform="translate(95.410156 0)"/>
      </g>
     </g>
    </g>
    <g id="ytick_6">
     <g id="line2d_12">
      <g>
       <use xlink:href="#mc6d29bf4fa" x="79.59" y="35.635357" style="fill: #262626; stroke: #262626; stroke-width: 1.875"/>
      </g>
     </g>
     <g id="text_13">
      <!-- 1.6 -->
      <g style="fill: #262626" transform="translate(40.849844 41.904068) scale(0.165 -0.165)">
       <use xlink:href="#DejaVuSans-31"/>
       <use xlink:href="#DejaVuSans-2e" transform="translate(63.623047 0)"/>
       <use xlink:href="#DejaVuSans-36" transform="translate(95.410156 0)"/>
      </g>
     </g>
    </g>
    <g id="text_14">
     <!-- Normalized Plasma RMA (A.U.) -->
     <g style="fill: #262626" transform="translate(33.106406 285.168281) rotate(-90) scale(0.18 -0.18)">
      <defs>
       <path id="DejaVuSans-4e" d="M 628 4666 
L 1478 4666 
L 3547 763 
L 3547 4666 
L 4159 4666 
L 4159 0 
L 3309 0 
L 1241 3903 
L 1241 0 
L 628 0 
L 628 4666 
z
" transform="scale(0.015625)"/>
       <path id="DejaVuSans-6f" d="M 1959 3097 
Q 1497 3097 1228 2736 
Q 959 2375 959 1747 
Q 959 1119 1226 758 
Q 1494 397 1959 397 
Q 2419 397 2687 759 
Q 2956 1122 2956 1747 
Q 2956 2369 2687 2733 
Q 2419 3097 1959 3097 
z
M 1959 3584 
Q 2709 3584 3137 3096 
Q 3566 2609 3566 1747 
Q 3566 888 3137 398 
Q 2709 -91 1959 -91 
Q 1206 -91 779 398 
Q 353 888 353 1747 
Q 353 2609 779 3096 
Q 1206 3584 1959 3584 
z
" transform="scale(0.015625)"/>
       <path id="DejaVuSans-61" d="M 2194 1759 
Q 1497 1759 1228 1600 
Q 959 1441 959 1056 
Q 959 750 1161 570 
Q 1363 391 1709 391 
Q 2188 391 2477 730 
Q 2766 1069 2766 1631 
L 2766 1759 
L 2194 1759 
z
M 3341 1997 
L 3341 0 
L 2766 0 
L 2766 531 
Q 2569 213 2275 61 
Q 1981 -91 1556 -91 
Q 1019 -91 701 211 
Q 384 513 384 1019 
Q 384 1609 779 1909 
Q 1175 2209 1959 2209 
L 2766 2209 
L 2766 2266 
Q 2766 2663 2505 2880 
Q 2244 3097 1772 3097 
Q 1472 3097 1187 3025 
Q 903 2953 641 2809 
L 641 3341 
Q 956 3463 1253 3523 
Q 1550 3584 1831 3584 
Q 2591 3584 2966 3190 
Q 3341 2797 3341 1997 
z
" transform="scale(0.015625)"/>
       <path id="DejaVuSans-6c" d="M 603 4863 
L 1178 4863 
L 1178 0 
L 603 0 
L 603 4863 
z
" transform="scale(0.015625)"/>
       <path id="DejaVuSans-7a" d="M 353 3500 
L 3084 3500 
L 3084 2975 
L 922 459 
L 3084 459 
L 3084 0 
L 275 0 
L 275 525 
L 2438 3041 
L 353 3041 
L 353 3500 
z
" transform="scale(0.015625)"/>
       <path id="DejaVuSans-64" d="M 2906 2969 
L 2906 4863 
L 3481 4863 
L 3481 0 
L 2906 0 
L 2906 525 
Q 2725 213 2448 61 
Q 2172 -91 1784 -91 
Q 1150 -91 751 415 
Q 353 922 353 1747 
Q 353 2572 751 3078 
Q 1150 3584 1784 3584 
Q 2172 3584 2448 3432 
Q 2725 3281 2906 2969 
z
M 947 1747 
Q 947 1113 1208 752 
Q 1469 391 1925 391 
Q 2381 391 2643 752 
Q 2906 1113 2906 1747 
Q 2906 2381 2643 2742 
Q 2381 3103 1925 3103 
Q 1469 3103 1208 2742 
Q 947 2381 947 1747 
z
" transform="scale(0.015625)"/>
       <path id="DejaVuSans-50" d="M 1259 4147 
L 1259 2394 
L 2053 2394 
Q 2494 2394 2734 2622 
Q 2975 2850 2975 3272 
Q 2975 3691 2734 3919 
Q 2494 4147 2053 4147 
L 1259 4147 
z
M 628 4666 
L 2053 4666 
Q 2838 4666 3239 4311 
Q 3641 3956 3641 3272 
Q 3641 2581 3239 2228 
Q 2838 1875 2053 1875 
L 1259 1875 
L 1259 0 
L 628 0 
L 628 4666 
z
" transform="scale(0.015625)"/>
       <path id="DejaVuSans-73" d="M 2834 3397 
L 2834 2853 
Q 2591 2978 2328 3040 
Q 2066 3103 1784 3103 
Q 1356 3103 1142 2972 
Q 928 2841 928 2578 
Q 928 2378 1081 2264 
Q 1234 2150 1697 2047 
L 1894 2003 
Q 2506 1872 2764 1633 
Q 3022 1394 3022 966 
Q 3022 478 2636 193 
Q 2250 -91 1575 -91 
Q 1294 -91 989 -36 
Q 684 19 347 128 
L 347 722 
Q 666 556 975 473 
Q 1284 391 1588 391 
Q 1994 391 2212 530 
Q 2431 669 2431 922 
Q 2431 1156 2273 1281 
Q 2116 1406 1581 1522 
L 1381 1569 
Q 847 1681 609 1914 
Q 372 2147 372 2553 
Q 372 3047 722 3315 
Q 1072 3584 1716 3584 
Q 2034 3584 2315 3537 
Q 2597 3491 2834 3397 
z
" transform="scale(0.015625)"/>
       <path id="DejaVuSans-52" d="M 2841 2188 
Q 3044 2119 3236 1894 
Q 3428 1669 3622 1275 
L 4263 0 
L 3584 0 
L 2988 1197 
Q 2756 1666 2539 1819 
Q 2322 1972 1947 1972 
L 1259 1972 
L 1259 0 
L 628 0 
L 628 4666 
L 2053 4666 
Q 2853 4666 3247 4331 
Q 3641 3997 3641 3322 
Q 3641 2881 3436 2590 
Q 3231 2300 2841 2188 
z
M 1259 4147 
L 1259 2491 
L 2053 2491 
Q 2509 2491 2742 2702 
Q 2975 2913 2975 3322 
Q 2975 3731 2742 3939 
Q 2509 4147 2053 4147 
L 1259 4147 
z
" transform="scale(0.015625)"/>
       <path id="DejaVuSans-4d" d="M 628 4666 
L 1569 4666 
L 2759 1491 
L 3956 4666 
L 4897 4666 
L 4897 0 
L 4281 0 
L 4281 4097 
L 3078 897 
L 2444 897 
L 1241 4097 
L 1241 0 
L 628 0 
L 628 4666 
z
" transform="scale(0.015625)"/>
       <path id="DejaVuSans-41" d="M 2188 4044 
L 1331 1722 
L 3047 1722 
L 2188 4044 
z
M 1831 4666 
L 2547 4666 
L 4325 0 
L 3669 0 
L 3244 1197 
L 1141 1197 
L 716 0 
L 50 0 
L 1831 4666 
z
" transform="scale(0.015625)"/>
       <path id="DejaVuSans-55" d="M 556 4666 
L 1191 4666 
L 1191 1831 
Q 1191 1081 1462 751 
Q 1734 422 2344 422 
Q 2950 422 3222 751 
Q 3494 1081 3494 1831 
L 3494 4666 
L 4128 4666 
L 4128 1753 
Q 4128 841 3676 375 
Q 3225 -91 2344 -91 
Q 1459 -91 1007 375 
Q 556 841 556 1753 
L 556 4666 
z
" transform="scale(0.015625)"/>
      </defs>
      <use xlink:href="#DejaVuSans-4e"/>
      <use xlink:href="#DejaVuSans-6f" transform="translate(74.804688 0)"/>
      <use xlink:href="#DejaVuSans-72" transform="translate(135.986328 0)"/>
      <use xlink:href="#DejaVuSans-6d" transform="translate(175.349609 0)"/>
      <use xlink:href="#DejaVuSans-61" transform="translate(272.761719 0)"/>
      <use xlink:href="#DejaVuSans-6c" transform="translate(334.041016 0)"/>
      <use xlink:href="#DejaVuSans-69" transform="translate(361.824219 0)"/>
      <use xlink:href="#DejaVuSans-7a" transform="translate(389.607422 0)"/>
      <use xlink:href="#DejaVuSans-65" transform="translate(442.097656 0)"/>
      <use xlink:href="#DejaVuSans-64" transform="translate(503.621094 0)"/>
      <use xlink:href="#DejaVuSans-20" transform="translate(567.097656 0)"/>
      <use xlink:href="#DejaVuSans-50" transform="translate(598.884766 0)"/>
      <use xlink:href="#DejaVuSans-6c" transform="translate(659.1875 0)"/>
      <use xlink:href="#DejaVuSans-61" transform="translate(686.970703 0)"/>
      <use xlink:href="#DejaVuSans-73" transform="translate(748.25 0)"/>
      <use xlink:href="#DejaVuSans-6d" transform="translate(800.349609 0)"/>
      <use xlink:href="#DejaVuSans-61" transform="translate(897.761719 0)"/>
      <use xlink:href="#DejaVuSans-20" transform="translate(959.041016 0)"/>
      <use xlink:href="#DejaVuSans-52" transform="translate(990.828125 0)"/>
      <use xlink:href="#DejaVuSans-4d" transform="translate(1060.310547 0)"/>
      <use xlink:href="#DejaVuSans-41" transform="translate(1146.589844 0)"/>
      <use xlink:href="#DejaVuSans-20" transform="translate(1214.998047 0)"/>
      <use xlink:href="#DejaVuSans-28" transform="translate(1246.785156 0)"/>
      <use xlink:href="#DejaVuSans-41" transform="translate(1285.798828 0)"/>
      <use xlink:href="#DejaVuSans-2e" transform="translate(1352.457031 0)"/>
      <use xlink:href="#DejaVuSans-55" transform="translate(1384.244141 0)"/>
      <use xlink:href="#DejaVuSans-2e" transform="translate(1457.4375 0)"/>
      <use xlink:href="#DejaVuSans-29" transform="translate(1489.224609 0)"/>
     </g>
    </g>
   </g>
   <g id="line2d_13">
    <path d="M 96.034091 156.906986 
L 97.339177 156.833058 
L 98.644264 156.442061 
L 99.949351 155.63561 
L 101.254437 154.409547 
L 102.559524 152.797066 
L 103.86461 150.850388 
L 105.82224 147.447364 
L 109.7375 139.859408 
L 112.347673 135.115339 
L 113.65276 133.076393 
L 114.957846 131.352248 
L 116.262933 130.000941 
L 117.568019 129.06907 
L 118.873106 128.59045 
L 119.525649 128.527894 
L 120.178193 128.585002 
L 120.830736 128.762035 
L 122.135823 129.472107 
L 123.440909 130.641757 
L 124.745996 132.240625 
L 126.051082 134.225174 
L 128.008712 137.80142 
L 130.618885 143.324428 
L 135.186688 153.267164 
L 137.144318 156.923208 
L 138.449405 158.975207 
L 139.754491 160.649865 
L 141.059578 161.900629 
L 142.364665 162.693753 
L 143.017208 162.911939 
L 143.669751 163.00937 
L 144.322294 162.985824 
L 144.974838 162.842034 
L 146.279924 162.20091 
L 147.585011 161.109536 
L 148.890097 159.605069 
L 150.195184 157.737128 
L 152.152814 154.388907 
L 154.762987 149.289171 
L 158.678247 141.601603 
L 160.635877 138.335449 
L 161.940963 136.538902 
L 163.24605 135.116189 
L 164.551136 134.113893 
L 165.856223 133.565821 
L 166.508766 133.468893 
L 167.16131 133.49188 
L 167.813853 133.635015 
L 169.118939 134.278 
L 170.424026 135.381485 
L 171.729113 136.915097 
L 173.034199 138.835294 
L 174.339286 141.086785 
L 176.296916 144.939819 
L 183.474892 159.899589 
L 184.779978 162.062366 
L 186.085065 163.87624 
L 187.390152 165.288748 
L 188.695238 166.259566 
L 190.000325 166.761795 
L 190.652868 166.832628 
L 191.305411 166.78268 
L 191.957955 166.612657 
L 193.263041 165.919628 
L 194.568128 164.777055 
L 195.873214 163.222095 
L 197.178301 161.304357 
L 199.135931 157.882724 
L 201.746104 152.687449 
L 205.661364 144.861449 
L 207.618994 141.528209 
L 208.92408 139.687706 
L 210.229167 138.221643 
L 211.534253 137.176593 
L 212.83934 136.586356 
L 213.491883 136.468564 
L 214.144426 136.47083 
L 214.79697 136.593388 
L 216.102056 137.195644 
L 217.407143 138.258961 
L 218.712229 139.752959 
L 220.017316 141.634085 
L 221.322403 143.847045 
L 223.280032 147.643273 
L 230.458009 162.404578 
L 231.763095 164.532868 
L 233.068182 166.31273 
L 234.373268 167.691693 
L 235.678355 168.62943 
L 236.983442 169.099032 
L 237.635985 169.153721 
L 238.288528 169.087739 
L 238.941071 168.901794 
L 240.246158 168.17725 
L 241.551245 167.003596 
L 242.856331 165.417983 
L 244.161418 163.470013 
L 246.119048 160.003812 
L 248.729221 154.750535 
L 252.644481 146.840494 
L 254.60211 143.466525 
L 255.907197 141.599337 
L 257.212284 140.106956 
L 258.51737 139.03595 
L 259.822457 138.420115 
L 260.475 138.289656 
L 261.127543 138.279343 
L 261.780087 138.389409 
L 262.43263 138.619119 
L 263.737716 139.430307 
L 265.042803 140.689401 
L 266.34789 142.359283 
L 267.652976 144.390364 
L 269.610606 147.979086 
L 272.220779 153.391815 
L 276.136039 161.532895 
L 278.093669 165.018831 
L 279.398755 166.959375 
L 280.703842 168.524114 
L 282.008929 169.666469 
L 283.314015 170.352681 
L 283.966558 170.517963 
L 284.619102 170.56285 
L 285.271645 170.487135 
L 285.924188 170.291524 
L 287.229275 169.547847 
L 288.534361 168.355323 
L 289.839448 166.7511 
L 291.144535 164.784777 
L 293.102165 161.291518 
L 295.712338 156.00303 
L 299.627597 148.041967 
L 301.585227 144.643272 
L 302.890314 142.759884 
L 304.1954 141.251524 
L 305.500487 140.164761 
L 306.805574 139.533386 
L 307.458117 139.395236 
L 308.11066 139.377287 
L 308.763203 139.479768 
L 309.415747 139.701947 
L 310.720833 140.498227 
L 312.02592 141.742619 
L 313.331006 143.398001 
L 314.636093 145.414782 
L 316.593723 148.982422 
L 319.203896 154.367714 
L 323.119156 162.46904 
L 325.076786 165.935711 
L 326.381872 167.863631 
L 327.686959 169.415922 
L 328.992045 170.545998 
L 330.297132 171.220102 
L 330.949675 171.379392 
L 331.602219 171.418329 
L 332.254762 171.336704 
L 332.907305 171.135225 
L 334.212392 170.379933 
L 335.517478 169.175953 
L 336.822565 167.560432 
L 338.127652 165.582967 
L 340.085281 162.073282 
L 342.695455 156.763416 
L 346.610714 148.771378 
L 348.568344 145.357672 
L 349.873431 143.464448 
L 351.178517 141.946389 
L 352.483604 140.850059 
L 353.78869 140.209249 
L 354.441234 140.066431 
L 355.093777 140.043846 
L 355.74632 140.141723 
L 356.398864 140.359329 
L 357.70395 141.146559 
L 359.009037 142.382025 
L 360.314123 144.028604 
L 361.61921 146.036703 
L 363.57684 149.591544 
L 366.187013 154.96018 
L 370.102273 163.037371 
L 372.059903 166.492346 
L 373.364989 168.412603 
L 374.670076 169.957336 
L 375.975162 171.079958 
L 377.280249 171.746711 
L 377.932792 171.902364 
L 378.585335 171.937688 
L 379.237879 171.852476 
L 379.890422 171.647434 
L 381.195509 170.88509 
L 382.500595 169.674156 
L 383.805682 168.051776 
L 385.110768 166.067546 
L 387.068398 162.547888 
L 389.678571 157.225044 
L 393.593831 149.214201 
L 395.551461 145.791383 
L 396.856548 143.892188 
L 398.161634 142.36824 
L 399.466721 141.266102 
L 400.771807 140.619564 
L 401.424351 140.473912 
L 402.076894 140.448512 
L 402.729437 140.543594 
L 403.381981 140.758424 
L 404.687067 141.540159 
L 405.992154 142.770207 
L 407.29724 144.411442 
L 408.602327 146.41427 
L 410.559957 149.961341 
L 413.17013 155.319865 
L 417.08539 163.382403 
L 419.043019 166.830278 
L 420.348106 168.745883 
L 421.653193 170.286027 
L 422.958279 171.404124 
L 424.263366 172.066414 
L 424.915909 172.219858 
L 424.915909 172.219858 
" clip-path="url(#pa884c3c975)" style="fill: none; stroke: #254b7f; stroke-width: 2.25; stroke-linecap: round"/>
   </g>
   <g id="line2d_14">
    <path d="M 96.034091 156.906986 
L 97.339177 156.759667 
L 97.991721 156.468918 
L 98.644264 155.984157 
L 99.296807 155.293153 
L 99.949351 154.393879 
L 101.254437 151.99162 
L 102.559524 148.854099 
L 103.86461 145.094609 
L 105.82224 138.591176 
L 111.69513 117.876564 
L 113.000216 114.065886 
L 114.305303 110.860421 
L 115.61039 108.376615 
L 116.262933 107.435676 
L 116.915476 106.708475 
L 117.568019 106.202783 
L 118.220563 105.924675 
L 118.873106 105.878457 
L 119.525649 106.066598 
L 120.178193 106.489788 
L 120.830736 107.146959 
L 121.483279 108.035072 
L 122.788366 110.483675 
L 124.093452 113.77709 
L 125.398539 117.830727 
L 126.703626 122.536478 
L 128.661255 130.532465 
L 135.839232 161.479292 
L 137.144318 165.999404 
L 138.449405 169.826227 
L 139.754491 172.8549 
L 141.059578 175.004493 
L 141.712121 175.731496 
L 142.364665 176.220449 
L 143.017208 176.46895 
L 143.669751 176.47636 
L 144.322294 176.243887 
L 144.974838 175.774633 
L 145.627381 175.073276 
L 146.279924 174.146493 
L 147.585011 171.651095 
L 148.890097 168.373678 
L 150.195184 164.422905 
L 152.152814 157.520865 
L 155.41553 144.682746 
L 158.025703 134.68346 
L 159.983333 128.182673 
L 161.28842 124.591183 
L 162.593506 121.731909 
L 163.898593 119.698568 
L 164.551136 119.014037 
L 165.20368 118.559554 
L 165.856223 118.339387 
L 166.508766 118.355974 
L 167.16131 118.609973 
L 167.813853 119.100282 
L 168.466396 119.823829 
L 169.118939 120.775947 
L 170.424026 123.337999 
L 171.729113 126.714427 
L 173.034199 130.808201 
L 174.991829 138.028698 
L 177.602002 148.91485 
L 181.517262 165.325723 
L 183.474892 172.388867 
L 184.779978 176.342468 
L 186.085065 179.553948 
L 187.390152 181.929887 
L 188.042695 182.782172 
L 188.695238 183.402098 
L 189.347781 183.785448 
L 190.000325 183.929799 
L 190.652868 183.834493 
L 191.305411 183.500719 
L 191.957955 182.931558 
L 192.610498 182.131669 
L 193.263041 181.107707 
L 194.568128 178.421955 
L 195.873214 174.959386 
L 197.178301 170.828533 
L 199.135931 163.665552 
L 202.398647 150.415943 
L 205.00882 140.107393 
L 206.96645 133.38566 
L 208.271537 129.65189 
L 209.576623 126.654237 
L 210.88171 124.486288 
L 211.534253 123.735843 
L 212.186797 123.216362 
L 212.83934 122.93208 
L 213.491883 122.885429 
L 214.144426 123.077084 
L 214.79697 123.505889 
L 215.449513 124.168769 
L 216.102056 125.061082 
L 217.407143 127.505954 
L 218.712229 130.768407 
L 220.017316 134.751328 
L 221.974946 141.811196 
L 224.585119 152.493313 
L 228.500379 168.61858 
L 230.458009 175.547586 
L 231.763095 179.414811 
L 233.068182 182.542279 
L 234.373268 184.836504 
L 235.025812 185.648768 
L 235.678355 186.229228 
L 236.330898 186.573661 
L 236.983442 186.679628 
L 237.635985 186.546454 
L 238.288528 186.175353 
L 238.941071 185.569363 
L 239.593615 184.733165 
L 240.246158 183.673392 
L 241.551245 180.917476 
L 242.856331 177.386665 
L 244.161418 173.189439 
L 246.119048 165.930283 
L 249.381764 152.529012 
L 251.991937 142.106478 
L 253.949567 135.30331 
L 255.254654 131.517102 
L 256.55974 128.468445 
L 257.864827 126.250886 
L 258.51737 125.476147 
L 259.169913 124.932708 
L 259.822457 124.624796 
L 260.475 124.55484 
L 261.127543 124.723513 
L 261.780087 125.12965 
L 262.43263 125.770175 
L 263.085173 126.640442 
L 264.39026 129.042126 
L 265.695346 132.262572 
L 267.000433 136.204636 
L 268.958063 143.205302 
L 271.568236 153.812217 
L 275.483496 169.832219 
L 277.441126 176.711787 
L 278.746212 180.547176 
L 280.051299 183.643681 
L 281.356385 185.907787 
L 282.008929 186.705302 
L 282.661472 187.271217 
L 283.314015 187.601305 
L 283.966558 187.693123 
L 284.619102 187.545996 
L 285.271645 187.161136 
L 285.924188 186.541573 
L 286.576732 185.691991 
L 287.229275 184.619017 
L 288.534361 181.837243 
L 289.839448 178.281281 
L 291.144535 174.059591 
L 293.102165 166.764989 
L 296.364881 153.30782 
L 298.975054 142.843275 
L 300.932684 136.010094 
L 302.237771 132.204558 
L 303.542857 129.137103 
L 304.847944 126.901259 
L 305.500487 126.117567 
L 306.15303 125.565297 
L 306.805574 125.248676 
L 307.458117 125.17013 
L 308.11066 125.330333 
L 308.763203 125.728115 
L 309.415747 126.360401 
L 310.06829 127.222542 
L 311.373377 129.608309 
L 312.678463 132.813272 
L 313.98355 136.740277 
L 315.94118 143.719124 
L 318.551353 154.298322 
L 322.466613 170.279527 
L 324.424242 177.140873 
L 325.729329 180.964529 
L 327.034416 184.049621 
L 328.339502 186.302627 
L 328.992045 187.094706 
L 329.644589 187.65526 
L 330.297132 187.980061 
L 330.949675 188.066665 
L 331.602219 187.914395 
L 332.254762 187.524462 
L 332.907305 186.899897 
L 333.559848 186.045382 
L 334.212392 184.967543 
L 335.517478 182.176239 
L 336.822565 178.611007 
L 338.127652 174.3803 
L 340.085281 167.072634 
L 343.347998 153.594864 
L 345.958171 143.114835 
L 347.915801 136.270591 
L 349.220887 132.457932 
L 350.525974 129.383548 
L 351.831061 127.140965 
L 352.483604 126.353973 
L 353.136147 125.798448 
L 353.78869 125.478617 
L 354.441234 125.396906 
L 355.093777 125.553987 
L 355.74632 125.94869 
L 356.398864 126.577939 
L 357.051407 127.437085 
L 358.356494 129.816985 
L 359.66158 133.016243 
L 360.966667 136.937697 
L 362.924297 143.908502 
L 365.53447 154.477485 
L 369.449729 170.44439 
L 371.407359 177.29902 
L 372.712446 181.118352 
L 374.017532 184.199237 
L 375.322619 186.448152 
L 375.975162 187.238228 
L 376.627706 187.796806 
L 377.280249 188.119658 
L 377.932792 188.20434 
L 378.585335 188.050174 
L 379.237879 187.658373 
L 379.890422 187.031964 
L 380.542965 186.175631 
L 381.195509 185.095999 
L 382.500595 182.301182 
L 383.805682 178.732533 
L 385.110768 174.498504 
L 387.068398 167.186022 
L 390.331115 153.700658 
L 392.941288 143.214923 
L 394.898918 136.366602 
L 396.204004 132.551318 
L 397.509091 129.47438 
L 398.814177 127.229313 
L 399.466721 126.441105 
L 400.119264 125.88438 
L 400.771807 125.563366 
L 401.424351 125.480488 
L 402.076894 125.636418 
L 402.729437 126.029987 
L 403.381981 126.658117 
L 404.034524 127.516159 
L 404.687067 128.597477 
L 405.992154 131.395579 
L 407.29724 134.967431 
L 408.602327 139.204583 
L 410.559957 146.521577 
L 413.822673 160.014066 
L 416.432846 170.505153 
L 418.390476 177.357308 
L 419.695563 181.175046 
L 421.000649 184.254381 
L 422.305736 186.501788 
L 422.958279 187.291125 
L 423.610823 187.848975 
L 424.263366 188.171109 
L 424.915909 188.255083 
L 424.915909 188.255083 
" clip-path="url(#pa884c3c975)" style="fill: none; stroke: #1c6488; stroke-width: 2.25; stroke-linecap: round"/>
   </g>
   <g id="line2d_15">
    <path d="M 96.034091 156.906986 
L 96.686634 156.864931 
L 97.339177 156.61448 
L 97.991721 156.040528 
L 98.644264 155.088916 
L 99.296807 153.740404 
L 99.949351 151.996195 
L 101.254437 147.382891 
L 102.559524 141.438788 
L 103.86461 134.419634 
L 105.82224 122.5223 
L 110.390043 93.991844 
L 111.69513 87.068364 
L 113.000216 81.215032 
L 114.305303 76.666413 
L 114.957846 74.943157 
L 115.61039 73.614384 
L 116.262933 72.696483 
L 116.915476 72.202516 
L 117.568019 72.142161 
L 118.220563 72.52167 
L 118.873106 73.343806 
L 119.525649 74.607711 
L 120.178193 76.309053 
L 120.830736 78.440181 
L 122.135823 83.943312 
L 123.440909 90.988372 
L 124.745996 99.397792 
L 126.703626 114.076142 
L 129.313799 136.074359 
L 133.229058 169.287256 
L 135.186688 183.722093 
L 136.491775 191.89623 
L 137.796861 198.640452 
L 139.101948 203.76962 
L 139.754491 205.683715 
L 140.407035 207.146638 
L 141.059578 208.149432 
L 141.712121 208.686568 
L 142.364665 208.756048 
L 143.017208 208.35939 
L 143.669751 207.501534 
L 144.322294 206.190847 
L 144.974838 204.439331 
L 145.627381 202.261908 
L 146.932468 196.706144 
L 148.237554 189.705669 
L 149.542641 181.485983 
L 151.500271 167.450996 
L 158.025703 118.342684 
L 159.33079 110.415916 
L 160.635877 103.762796 
L 161.940963 98.592923 
L 162.593506 96.617441 
L 163.24605 95.070518 
L 163.898593 93.964736 
L 164.551136 93.309297 
L 165.20368 93.109984 
L 165.856223 93.369126 
L 166.508766 94.085447 
L 167.16131 95.25417 
L 167.813853 96.867228 
L 168.466396 98.912954 
L 169.771483 104.239478 
L 171.076569 111.077116 
L 172.381656 119.22288 
L 174.339286 133.353721 
L 177.602002 159.590242 
L 180.212175 180.168366 
L 182.169805 193.734758 
L 183.474892 201.368788 
L 184.779978 207.602034 
L 186.085065 212.247795 
L 186.737608 213.930057 
L 187.390152 215.167485 
L 188.042695 215.950942 
L 188.695238 216.274743 
L 189.347781 216.136729 
L 190.000325 215.538253 
L 190.652868 214.484075 
L 191.305411 212.982457 
L 191.957955 211.045234 
L 193.263041 205.926641 
L 194.568128 199.285753 
L 195.873214 191.326158 
L 197.830844 177.455897 
L 201.093561 151.608285 
L 203.703734 131.304715 
L 205.661364 117.925148 
L 206.96645 110.407328 
L 208.271537 104.284008 
L 209.576623 99.74222 
L 210.229167 98.109852 
L 210.88171 96.920957 
L 211.534253 96.184676 
L 212.186797 95.906739 
L 212.83934 96.089408 
L 213.491883 96.731336 
L 214.144426 97.827705 
L 214.79697 99.370402 
L 215.449513 101.347636 
L 216.7546 106.542859 
L 218.059686 113.25624 
L 219.364773 121.284468 
L 221.322403 135.250766 
L 224.585119 161.241715 
L 227.195292 181.646477 
L 229.152922 195.094895 
L 230.458009 202.655555 
L 231.763095 208.819395 
L 233.068182 213.399487 
L 233.720725 215.050252 
L 234.373268 216.257045 
L 235.025812 217.010716 
L 235.678355 217.305542 
L 236.330898 217.139334 
L 236.983442 216.513432 
L 237.635985 215.432607 
L 238.288528 213.905044 
L 238.941071 211.942578 
L 240.246158 206.775584 
L 241.551245 200.088912 
L 242.856331 192.085991 
L 244.813961 178.155084 
L 248.076677 152.216964 
L 250.686851 131.849497 
L 252.644481 118.426453 
L 253.949567 110.881586 
L 255.254654 104.732689 
L 256.55974 100.166694 
L 257.212284 98.522716 
L 257.864827 97.322535 
L 258.51737 96.575278 
L 259.169913 96.286655 
L 259.822457 96.458929 
L 260.475 97.090762 
L 261.127543 98.177305 
L 261.780087 99.710426 
L 262.43263 101.678411 
L 263.737716 106.855757 
L 265.042803 113.552263 
L 266.34789 121.564516 
L 268.305519 135.508464 
L 271.568236 161.466055 
L 274.178409 181.847265 
L 276.136039 195.27966 
L 277.441126 202.830354 
L 278.746212 208.984761 
L 280.051299 213.555934 
L 280.703842 215.202424 
L 281.356385 216.405058 
L 282.008929 217.154676 
L 282.661472 217.445562 
L 283.314015 217.27553 
L 283.966558 216.64591 
L 284.619102 215.56145 
L 285.271645 214.030367 
L 285.924188 212.064486 
L 287.229275 206.890913 
L 288.534361 200.198013 
L 289.839448 192.189208 
L 291.797078 178.250065 
L 295.059794 152.299648 
L 297.669968 131.923502 
L 299.627597 118.494549 
L 300.932684 110.946013 
L 302.237771 104.793637 
L 303.542857 100.224357 
L 304.1954 98.578804 
L 304.847944 97.377087 
L 305.500487 96.628334 
L 306.15303 96.338263 
L 306.805574 96.509131 
L 307.458117 97.139585 
L 308.11066 98.224791 
L 308.763203 99.756624 
L 309.415747 101.723307 
L 310.720833 106.89826 
L 312.02592 113.592468 
L 313.331006 121.602561 
L 315.288636 135.54347 
L 318.551353 161.496529 
L 321.161526 181.874542 
L 323.119156 195.304757 
L 324.424242 202.854097 
L 325.729329 209.007228 
L 327.034416 213.577187 
L 327.686959 215.223092 
L 328.339502 216.425159 
L 328.992045 217.174233 
L 329.644589 217.464589 
L 330.297132 217.294031 
L 330.949675 216.663897 
L 331.602219 215.578961 
L 332.254762 214.047395 
L 332.907305 212.081032 
L 334.212392 206.906572 
L 335.517478 200.212836 
L 336.822565 192.203229 
L 338.780195 178.262965 
L 342.042911 152.31088 
L 344.653084 131.933554 
L 346.610714 118.503802 
L 347.915801 110.954762 
L 349.220887 104.801918 
L 350.525974 100.232189 
L 351.178517 98.586419 
L 351.831061 97.384496 
L 352.483604 96.635546 
L 353.136147 96.345274 
L 353.78869 96.515944 
L 354.441234 97.146219 
L 355.093777 98.231247 
L 355.74632 99.762889 
L 356.398864 101.729445 
L 357.70395 106.904036 
L 359.009037 113.597936 
L 360.314123 121.607727 
L 362.271753 135.548226 
L 365.53447 161.500669 
L 368.144643 181.878246 
L 370.102273 195.308168 
L 371.407359 202.857324 
L 372.712446 209.010277 
L 374.017532 213.580073 
L 374.670076 215.225902 
L 375.322619 216.427894 
L 375.975162 217.176889 
L 376.627706 217.467168 
L 377.280249 217.296544 
L 377.932792 216.666348 
L 378.585335 215.581333 
L 379.237879 214.049705 
L 379.890422 212.083293 
L 381.195509 206.908705 
L 382.500595 200.214847 
L 383.805682 192.205134 
L 385.763312 178.264719 
L 389.026028 152.312406 
L 391.636201 131.93492 
L 393.593831 118.505057 
L 394.898918 110.955953 
L 396.204004 104.803042 
L 397.509091 100.233253 
L 398.161634 98.587457 
L 398.814177 97.385503 
L 399.466721 96.636522 
L 400.119264 96.346226 
L 400.771807 96.516875 
L 401.424351 97.147119 
L 402.076894 98.232119 
L 402.729437 99.763749 
L 403.381981 101.730243 
L 404.687067 106.904819 
L 405.992154 113.598672 
L 407.29724 121.608431 
L 409.25487 135.548871 
L 412.517587 161.501231 
L 415.12776 181.87875 
L 417.08539 195.308629 
L 418.390476 202.85776 
L 419.695563 209.010694 
L 421.000649 213.580467 
L 421.653193 215.226282 
L 422.305736 216.428261 
L 422.958279 217.17725 
L 423.610823 217.467524 
L 424.263366 217.296886 
L 424.915909 216.666693 
L 424.915909 216.666693 
" clip-path="url(#pa884c3c975)" style="fill: none; stroke: #287a8c; stroke-width: 2.25; stroke-linecap: round"/>
   </g>
   <g id="line2d_16">
    <path d="M 96.034091 156.906986 
L 96.686634 156.823466 
L 97.339177 156.330353 
L 97.991721 155.211786 
L 98.644264 153.377407 
L 99.296807 150.807612 
L 99.949351 147.523113 
L 101.254437 139.000089 
L 102.559524 128.299034 
L 104.517154 109.459217 
L 109.084957 63.422886 
L 110.390043 52.41471 
L 111.69513 43.310656 
L 113.000216 36.520787 
L 113.65276 34.099013 
L 114.305303 32.370826 
L 114.957846 31.362371 
L 115.61039 31.093636 
L 116.262933 31.578348 
L 116.915476 32.823813 
L 117.568019 34.830919 
L 118.220563 37.594236 
L 118.873106 41.102143 
L 120.178193 50.274057 
L 121.483279 62.132934 
L 122.788366 76.376193 
L 124.745996 101.36074 
L 127.356169 138.948596 
L 131.271429 195.760667 
L 133.229058 220.370533 
L 134.534145 234.233937 
L 135.839232 245.584493 
L 137.144318 254.09447 
L 137.796861 257.204703 
L 138.449405 259.520625 
L 139.101948 261.026276 
L 139.754491 261.711788 
L 140.407035 261.573451 
L 141.059578 260.613742 
L 141.712121 258.841297 
L 142.364665 256.270815 
L 143.017208 252.923086 
L 143.669751 248.824801 
L 144.974838 238.510648 
L 146.279924 225.649948 
L 147.585011 210.640296 
L 149.542641 185.122274 
L 156.068074 96.063423 
L 157.37316 81.628798 
L 158.678247 69.458033 
L 159.983333 59.923329 
L 160.635877 56.239141 
L 161.28842 53.316672 
L 161.940963 51.17838 
L 162.593506 49.840743 
L 163.24605 49.314158 
L 163.898593 49.602875 
L 164.551136 50.70491 
L 165.20368 52.611996 
L 165.856223 55.309761 
L 166.508766 58.777938 
L 167.813853 67.914723 
L 169.118939 79.745877 
L 170.424026 93.912887 
L 172.381656 118.587153 
L 174.991829 155.207425 
L 178.254545 200.714656 
L 180.212175 224.565312 
L 181.517262 237.988383 
L 182.822348 248.944811 
L 184.127435 257.102015 
L 184.779978 260.050003 
L 185.432522 262.212446 
L 186.085065 263.572917 
L 186.737608 264.121083 
L 187.390152 263.852781 
L 188.042695 262.770086 
L 188.695238 260.881288 
L 189.347781 258.200809 
L 190.000325 254.74902 
L 191.305411 245.642319 
L 192.610498 233.838146 
L 193.915584 219.69531 
L 195.873214 195.052565 
L 198.483387 158.466946 
L 201.746104 112.993501 
L 203.703734 89.159084 
L 205.00882 75.745406 
L 206.313907 64.797387 
L 207.618994 56.647726 
L 208.271537 53.703189 
L 208.92408 51.544008 
L 209.576623 50.186658 
L 210.229167 49.641464 
L 210.88171 49.91254 
L 211.534253 50.99781 
L 212.186797 52.889072 
L 212.83934 55.571974 
L 213.491883 59.026001 
L 214.79697 68.136787 
L 216.102056 79.944598 
L 217.407143 94.090668 
L 219.364773 118.737721 
L 221.974946 155.328048 
L 225.237662 200.806082 
L 227.195292 224.64271 
L 228.500379 238.057646 
L 229.805465 249.006814 
L 231.110552 257.157535 
L 231.763095 260.102534 
L 232.415639 262.262132 
L 233.068182 263.619898 
L 233.720725 264.165508 
L 234.373268 263.89482 
L 235.025812 262.809898 
L 235.678355 260.918974 
L 236.330898 258.236405 
L 236.983442 254.782663 
L 238.288528 245.672477 
L 239.593615 233.865096 
L 240.898701 219.719497 
L 242.856331 195.073029 
L 245.466504 158.483338 
L 248.729221 113.005934 
L 250.686851 89.169581 
L 251.991937 75.754835 
L 253.297024 64.805811 
L 254.60211 56.655243 
L 255.254654 53.710331 
L 255.907197 51.550792 
L 256.55974 50.193052 
L 257.212284 49.647466 
L 257.864827 49.918231 
L 258.51737 51.003249 
L 259.169913 52.894215 
L 259.822457 55.57676 
L 260.475 59.030573 
L 261.780087 68.140795 
L 263.085173 79.948206 
L 264.39026 94.093994 
L 266.34789 118.740513 
L 268.958063 155.330277 
L 272.220779 200.807763 
L 274.178409 224.644151 
L 275.483496 238.058935 
L 276.788582 249.007954 
L 278.093669 257.158538 
L 278.746212 260.103485 
L 279.398755 262.263049 
L 280.051299 263.620788 
L 280.703842 264.166354 
L 281.356385 263.8956 
L 282.008929 262.810604 
L 282.661472 260.919643 
L 283.314015 258.237098 
L 283.966558 254.783308 
L 285.271645 245.673077 
L 286.576732 233.865665 
L 287.881818 219.719894 
L 289.839448 195.073388 
L 292.449621 158.483633 
L 295.712338 113.006153 
L 297.669968 89.169787 
L 298.975054 75.754983 
L 300.280141 64.805984 
L 301.585227 56.655389 
L 302.237771 53.710431 
L 302.890314 51.550888 
L 303.542857 50.193185 
L 304.1954 49.64762 
L 304.847944 49.918333 
L 305.500487 51.0033 
L 306.15303 52.894313 
L 306.805574 55.576907 
L 307.458117 59.030619 
L 308.763203 68.140968 
L 310.06829 79.948339 
L 311.373377 94.094042 
L 313.331006 118.740551 
L 315.94118 155.330313 
L 319.203896 200.807793 
L 321.161526 224.644163 
L 322.466613 238.058957 
L 323.771699 249.007993 
L 325.076786 257.158572 
L 325.729329 260.103503 
L 326.381872 262.263047 
L 327.034416 263.620774 
L 327.686959 264.166355 
L 328.339502 263.895637 
L 328.992045 262.810653 
L 329.644589 260.919651 
L 330.297132 258.237061 
L 330.949675 254.783335 
L 332.254762 245.672999 
L 333.559848 233.865625 
L 334.864935 219.71996 
L 336.822565 195.073418 
L 339.432738 158.483646 
L 342.695455 113.006164 
L 344.653084 89.169786 
L 345.958171 75.755011 
L 347.263258 64.80596 
L 348.568344 56.655396 
L 349.220887 53.71047 
L 349.873431 51.550911 
L 350.525974 50.193159 
L 351.178517 49.647585 
L 351.831061 49.918353 
L 352.483604 51.003349 
L 353.136147 52.894293 
L 353.78869 55.57686 
L 354.441234 59.030674 
L 355.74632 68.14089 
L 357.051407 79.948286 
L 358.356494 94.094038 
L 360.314123 118.740562 
L 362.924297 155.330318 
L 366.187013 200.807799 
L 368.144643 224.644173 
L 369.449729 238.058952 
L 370.754816 249.007973 
L 372.059903 257.158565 
L 372.712446 260.103514 
L 373.364989 262.263074 
L 374.017532 263.620798 
L 374.670076 264.166355 
L 375.322619 263.895606 
L 375.975162 262.810625 
L 376.627706 260.919675 
L 377.280249 258.237102 
L 377.932792 254.783299 
L 379.237879 245.67309 
L 380.542965 233.865697 
L 381.848052 219.719919 
L 383.805682 195.073399 
L 386.415855 158.483642 
L 389.678571 113.006164 
L 391.636201 89.169779 
L 392.941288 75.754998 
L 394.246374 64.805988 
L 395.551461 56.655375 
L 396.204004 53.710439 
L 396.856548 51.55091 
L 397.509091 50.193193 
L 398.161634 49.647606 
L 398.814177 49.918316 
L 399.466721 51.003323 
L 400.119264 52.894331 
L 400.771807 55.576885 
L 401.424351 59.030613 
L 402.729437 68.140929 
L 404.034524 79.948321 
L 405.33961 94.09404 
L 407.29724 118.740553 
L 409.907413 155.330314 
L 413.17013 200.807792 
L 415.12776 224.644166 
L 416.432846 238.058962 
L 417.737933 249.007994 
L 419.043019 257.158567 
L 419.695563 260.103498 
L 420.348106 262.263046 
L 421.000649 263.620778 
L 421.653193 264.166364 
L 422.305736 263.895642 
L 422.958279 262.810645 
L 423.610823 260.919643 
L 424.263366 258.237067 
L 424.915909 254.783352 
L 424.915909 254.783352 
" clip-path="url(#pa884c3c975)" style="fill: none; stroke: #40908e; stroke-width: 2.25; stroke-linecap: round"/>
   </g>
   <g id="patch_3">
    <path d="M 79.59 275.82 
L 79.59 19.44 
" style="fill: none; stroke: #262626; stroke-width: 1.875; stroke-linejoin: miter; stroke-linecap: square"/>
   </g>
   <g id="patch_4">
    <path d="M 79.59 275.82 
L 441.36 275.82 
" style="fill: none; stroke: #262626; stroke-width: 1.875; stroke-linejoin: miter; stroke-linecap: square"/>
   </g>
  </g>
 </g>
 <defs>
  <clipPath id="pa884c3c975">
   <rect x="79.59" y="19.44" width="361.77" height="256.38"/>
  </clipPath>
 </defs>
</svg>
