<?xml version="1.0" encoding="utf-8" standalone="no"?>
<!DOCTYPE svg PUBLIC "-//W3C//DTD SVG 1.1//EN"
  "http://www.w3.org/Graphics/SVG/1.1/DTD/svg11.dtd">
<svg xmlns:xlink="http://www.w3.org/1999/xlink" width="460.8pt" height="345.6pt" viewBox="0 0 460.8 345.6" xmlns="http://www.w3.org/2000/svg" version="1.1">
 <metadata>
  <rdf:RDF xmlns:dc="http://purl.org/dc/elements/1.1/" xmlns:cc="http://creativecommons.org/ns#" xmlns:rdf="http://www.w3.org/1999/02/22-rdf-syntax-ns#">
   <cc:Work>
    <dc:type rdf:resource="http://purl.org/dc/dcmitype/StillImage"/>
    <dc:date>1980-01-01T00:00:00+00:00</dc:date>
    <dc:format>image/svg+xml</dc:format>
    <dc:creator>
     <cc:Agent>
      <dc:title>Matplotlib v3.10.8, https://matplotlib.org/</dc:title>
     </cc:Agent>
    </dc:creator>
   </cc:Work>
  </rdf:RDF>
 </metadata>
 <defs>
  <style type="text/css">*{stroke-linejoin: round; stroke-linecap: butt}</style>
 </defs>
 <g id="figure_1">
  <g id="patch_1">
   <path d="M 0 345.6 
L 460.8 345.6 
L 460.8 0 
L 0 0 
z
" style="fill: #ffffff"/>
  </g>
  <g id="axes_1">
   <g id="patch_2">
    <path d="M 92.91 275.82 
L 428.360455 275.82 
L 428.360455 24.381634 
L 92.91 24.381634 
z
" style="fill: #ffffff"/>
   </g>
   <g id="matplotlib.axis_1">
    <g id="xtick_1">
     <g id="line2d_1">
      <defs>
       <path id="m4dedb17f8b" d="M 0 0 
L 0 9 
" style="stroke: #262626; stroke-width: 1.875"/>
      </defs>
      <g>
       <use xlink:href="#m4dedb17f8b" x="108.157748" y="275.82" style="fill: #262626; stroke: #262626; stroke-width: 1.875"/>
      </g>
     </g>
     <g id="text_1">
      <!-- 0 -->
      <g style="fill: #262626" transform="translate(102.908685 300.857422) scale(0.165 -0.165)">
       <defs>
        <path id="DejaVuSans-30" d="M 2034 4250 
Q 1547 4250 1301 3770 
Q 1056 3291 1056 2328 
Q 1056 1369 1301 889 
Q 1547 409 2034 409 
Q 2525 409 2770 889 
Q 3016 1369 3016 2328 
Q 3016 3291 2770 3770 
Q 2525 4250 2034 4250 
z
M 2034 4750 
Q 2819 4750 3233 4129 
Q 3647 3509 3647 2328 
Q 3647 1150 3233 529 
Q 2819 -91 2034 -91 
Q 1250 -91 836 529 
Q 422 1150 422 2328 
Q 422 3509 836 4129 
Q 1250 4750 2034 4750 
z
" transform="scale(0.015625)"/>
       </defs>
       <use xlink:href="#DejaVuSans-30"/>
      </g>
     </g>
    </g>
    <g id="xtick_2">
     <g id="line2d_2">
      <g>
       <use xlink:href="#m4dedb17f8b" x="171.690031" y="275.82" style="fill: #262626; stroke: #262626; stroke-width: 1.875"/>
      </g>
     </g>
     <g id="text_2">
      <!-- 20 -->
      <g style="fill: #262626" transform="translate(161.191906 300.857422) scale(0.165 -0.165)">
       <defs>
        <path id="DejaVuSans-32" d="M 1228 531 
L 3431 531 
L 3431 0 
L 469 0 
L 469 531 
Q 828 903 1448 1529 
Q 2069 2156 2228 2338 
Q 2531 2678 2651 2914 
Q 2772 3150 2772 3378 
Q 2772 3750 2511 3984 
Q 2250 4219 1831 4219 
Q 1534 4219 1204 4116 
Q 875 4013 500 3803 
L 500 4441 
Q 881 4594 1212 4672 
Q 1544 4750 1819 4750 
Q 2544 4750 2975 4387 
Q 3406 4025 3406 3419 
Q 3406 3131 3298 2873 
Q 3191 2616 2906 2266 
Q 2828 2175 2409 1742 
Q 1991 1309 1228 531 
z
" transform="scale(0.015625)"/>
       </defs>
       <use xlink:href="#DejaVuSans-32"/>
       <use xlink:href="#DejaVuSans-30" transform="translate(63.623047 0)"/>
      </g>
     </g>
    </g>
    <g id="xtick_3">
     <g id="line2d_3">
      <g>
       <use xlink:href="#m4dedb17f8b" x="235.222314" y="275.82" style="fill: #262626; stroke: #262626; stroke-width: 1.875"/>
      </g>
     </g>
     <g id="text_3">
      <!-- 40 -->
      <g style="fill: #262626" transform="translate(224.724189 300.857422) scale(0.165 -0.165)">
       <defs>
        <path id="DejaVuSans-34" d="M 2419 4116 
L 825 1625 
L 2419 1625 
L 2419 4116 
z
M 2253 4666 
L 3047 4666 
L 3047 1625 
L 3713 1625 
L 3713 1100 
L 3047 1100 
L 3047 0 
L 2419 0 
L 2419 1100 
L 313 1100 
L 313 1709 
L 2253 4666 
z
" transform="scale(0.015625)"/>
       </defs>
       <use xlink:href="#DejaVuSans-34"/>
       <use xlink:href="#DejaVuSans-30" transform="translate(63.623047 0)"/>
      </g>
     </g>
    </g>
    <g id="xtick_4">
     <g id="line2d_4">
      <g>
       <use xlink:href="#m4dedb17f8b" x="298.754597" y="275.82" style="fill: #262626; stroke: #262626; stroke-width: 1.875"/>
      </g>
     </g>
     <g id="text_4">
      <!-- 60 -->
      <g style="fill: #262626" transform="translate(288.256472 300.857422) scale(0.165 -0.165)">
       <defs>
        <path id="DejaVuSans-36" d="M 2113 2584 
Q 1688 2584 1439 2293 
Q 1191 2003 1191 1497 
Q 1191 994 1439 701 
Q 1688 409 2113 409 
Q 2538 409 2786 701 
Q 3034 994 3034 1497 
Q 3034 2003 2786 2293 
Q 2538 2584 2113 2584 
z
M 3366 4563 
L 3366 3988 
Q 3128 4100 2886 4159 
Q 2644 4219 2406 4219 
Q 1781 4219 1451 3797 
Q 1122 3375 1075 2522 
Q 1259 2794 1537 2939 
Q 1816 3084 2150 3084 
Q 2853 3084 3261 2657 
Q 3669 2231 3669 1497 
Q 3669 778 3244 343 
Q 2819 -91 2113 -91 
Q 1303 -91 875 529 
Q 447 1150 447 2328 
Q 447 3434 972 4092 
Q 1497 4750 2381 4750 
Q 2619 4750 2861 4703 
Q 3103 4656 3366 4563 
z
" transform="scale(0.015625)"/>
       </defs>
       <use xlink:href="#DejaVuSans-36"/>
       <use xlink:href="#DejaVuSans-30" transform="translate(63.623047 0)"/>
      </g>
     </g>
    </g>
    <g id="xtick_5">
     <g id="line2d_5">
      <g>
       <use xlink:href="#m4dedb17f8b" x="362.28688" y="275.82" style="fill: #262626; stroke: #262626; stroke-width: 1.875"/>
      </g>
     </g>
     <g id="text_5">
      <!-- 80 -->
      <g style="fill: #262626" transform="translate(351.788755 300.857422) scale(0.165 -0.165)">
       <defs>
        <path id="DejaVuSans-38" d="M 2034 2216 
Q 1584 2216 1326 1975 
Q 1069 1734 1069 1313 
Q 1069 891 1326 650 
Q 1584 409 2034 409 
Q 2484 409 2743 651 
Q 3003 894 3003 1313 
Q 3003 1734 2745 1975 
Q 2488 2216 2034 2216 
z
M 1403 2484 
Q 997 2584 770 2862 
Q 544 3141 544 3541 
Q 544 4100 942 4425 
Q 1341 4750 2034 4750 
Q 2731 4750 3128 4425 
Q 3525 4100 3525 3541 
Q 3525 3141 3298 2862 
Q 3072 2584 2669 2484 
Q 3125 2378 3379 2068 
Q 3634 1759 3634 1313 
Q 3634 634 3220 271 
Q 2806 -91 2034 -91 
Q 1263 -91 848 271 
Q 434 634 434 1313 
Q 434 1759 690 2068 
Q 947 2378 1403 2484 
z
M 1172 3481 
Q 1172 3119 1398 2916 
Q 1625 2713 2034 2713 
Q 2441 2713 2670 2916 
Q 2900 3119 2900 3481 
Q 2900 3844 2670 4047 
Q 2441 4250 2034 4250 
Q 1625 4250 1398 4047 
Q 1172 3844 1172 3481 
z
" transform="scale(0.015625)"/>
       </defs>
       <use xlink:href="#DejaVuSans-38"/>
       <use xlink:href="#DejaVuSans-30" transform="translate(63.623047 0)"/>
      </g>
     </g>
    </g>
    <g id="xtick_6">
     <g id="line2d_6">
      <g>
       <use xlink:href="#m4dedb17f8b" x="425.819163" y="275.82" style="fill: #262626; stroke: #262626; stroke-width: 1.875"/>
      </g>
     </g>
     <g id="text_6">
      <!-- 100 -->
      <g style="fill: #262626" transform="translate(410.071976 300.857422) scale(0.165 -0.165)">
       <defs>
        <path id="DejaVuSans-31" d="M 794 531 
L 1825 531 
L 1825 4091 
L 703 3866 
L 703 4441 
L 1819 4666 
L 2450 4666 
L 2450 531 
L 3481 531 
L 3481 0 
L 794 0 
L 794 531 
z
" transform="scale(0.015625)"/>
       </defs>
       <use xlink:href="#DejaVuSans-31"/>
       <use xlink:href="#DejaVuSans-30" transform="translate(63.623047 0)"/>
       <use xlink:href="#DejaVuSans-30" transform="translate(127.246094 0)"/>
      </g>
     </g>
    </g>
    <g id="text_7">
     <!-- Time (hr) -->
     <g style="fill: #262626" transform="translate(219.32804 321.966094) scale(0.18 -0.18)">
      <defs>
       <path id="DejaVuSans-54" d="M -19 4666 
L 3928 4666 
L 3928 4134 
L 2272 4134 
L 2272 0 
L 1638 0 
L 1638 4134 
L -19 4134 
L -19 4666 
z
" transform="scale(0.015625)"/>
       <path id="DejaVuSans-69" d="M 603 3500 
L 1178 3500 
L 1178 0 
L 603 0 
L 603 3500 
z
M 603 4863 
L 1178 4863 
L 1178 4134 
L 603 4134 
L 603 4863 
z
" transform="scale(0.015625)"/>
       <path id="DejaVuSans-6d" d="M 3328 2828 
Q 3544 3216 3844 3400 
Q 4144 3584 4550 3584 
Q 5097 3584 5394 3201 
Q 5691 2819 5691 2113 
L 5691 0 
L 5113 0 
L 5113 2094 
Q 5113 2597 4934 2840 
Q 4756 3084 4391 3084 
Q 3944 3084 3684 2787 
Q 3425 2491 3425 1978 
L 3425 0 
L 2847 0 
L 2847 2094 
Q 2847 2600 2669 2842 
Q 2491 3084 2119 3084 
Q 1678 3084 1418 2786 
Q 1159 2488 1159 1978 
L 1159 0 
L 581 0 
L 581 3500 
L 1159 3500 
L 1159 2956 
Q 1356 3278 1631 3431 
Q 1906 3584 2284 3584 
Q 2666 3584 2933 3390 
Q 3200 3197 3328 2828 
z
" transform="scale(0.015625)"/>
       <path id="DejaVuSans-65" d="M 3597 1894 
L 3597 1613 
L 953 1613 
Q 991 1019 1311 708 
Q 1631 397 2203 397 
Q 2534 397 2845 478 
Q 3156 559 3463 722 
L 3463 178 
Q 3153 47 2828 -22 
Q 2503 -91 2169 -91 
Q 1331 -91 842 396 
Q 353 884 353 1716 
Q 353 2575 817 3079 
Q 1281 3584 2069 3584 
Q 2775 3584 3186 3129 
Q 3597 2675 3597 1894 
z
M 3022 2063 
Q 3016 2534 2758 2815 
Q 2500 3097 2075 3097 
Q 1594 3097 1305 2825 
Q 1016 2553 972 2059 
L 3022 2063 
z
" transform="scale(0.015625)"/>
       <path id="DejaVuSans-20" transform="scale(0.015625)"/>
       <path id="DejaVuSans-28" d="M 1984 4856 
Q 1566 4138 1362 3434 
Q 1159 2731 1159 2009 
Q 1159 1288 1364 580 
Q 1569 -128 1984 -844 
L 1484 -844 
Q 1016 -109 783 600 
Q 550 1309 550 2009 
Q 550 2706 781 3412 
Q 1013 4119 1484 4856 
L 1984 4856 
z
" transform="scale(0.015625)"/>
       <path id="DejaVuSans-68" d="M 3513 2113 
L 3513 0 
L 2938 0 
L 2938 2094 
Q 2938 2591 2744 2837 
Q 2550 3084 2163 3084 
Q 1697 3084 1428 2787 
Q 1159 2491 1159 1978 
L 1159 0 
L 581 0 
L 581 4863 
L 1159 4863 
L 1159 2956 
Q 1366 3272 1645 3428 
Q 1925 3584 2291 3584 
Q 2894 3584 3203 3211 
Q 3513 2838 3513 2113 
z
" transform="scale(0.015625)"/>
       <path id="DejaVuSans-72" d="M 2631 2963 
Q 2534 3019 2420 3045 
Q 2306 3072 2169 3072 
Q 1681 3072 1420 2755 
Q 1159 2438 1159 1844 
L 1159 0 
L 581 0 
L 581 3500 
L 1159 3500 
L 1159 2956 
Q 1341 3275 1631 3429 
Q 1922 3584 2338 3584 
Q 2397 3584 2469 3576 
Q 2541 3569 2628 3553 
L 2631 2963 
z
" transform="scale(0.015625)"/>
       <path id="DejaVuSans-29" d="M 513 4856 
L 1013 4856 
Q 1481 4119 1714 3412 
Q 1947 2706 1947 2009 
Q 1947 1309 1714 600 
Q 1481 -109 1013 -844 
L 513 -844 
Q 928 -128 1133 580 
Q 1338 1288 1338 2009 
Q 1338 2731 1133 3434 
Q 928 4138 513 4856 
z
" transform="scale(0.015625)"/>
      </defs>
      <use xlink:href="#DejaVuSans-54"/>
      <use xlink:href="#DejaVuSans-69" transform="translate(57.958984 0)"/>
      <use xlink:href="#DejaVuSans-6d" transform="translate(85.742188 0)"/>
      <use xlink:href="#DejaVuSans-65" transform="translate(183.154297 0)"/>
      <use xlink:href="#DejaVuSans-20" transform="translate(244.677734 0)"/>
      <use xlink:href="#DejaVuSans-28" transform="translate(276.464844 0)"/>
      <use xlink:href="#DejaVuSans-68" transform="translate(315.478516 0)"/>
      <use xlink:href="#DejaVuSans-72" transform="translate(378.857422 0)"/>
      <use xlink:href="#DejaVuSans-29" transform="translate(419.970703 0)"/>
     </g>
    </g>
   </g>
   <g id="matplotlib.axis_2">
    <g id="ytick_1">
     <g id="line2d_7">
      <defs>
       <path id="m2cdf5f85f9" d="M 0 0 
L -9 0 
" style="stroke: #262626; stroke-width: 1.875"/>
      </defs>
      <g>
       <use xlink:href="#m2cdf5f85f9" x="92.91" y="264.390983" style="fill: #262626; stroke: #262626; stroke-width: 1.875"/>
      </g>
     </g>
     <g id="text_8">
      <!-- 0.0 -->
      <g style="fill: #262626" transform="translate(54.169844 270.659694) scale(0.165 -0.165)">
       <defs>
        <path id="DejaVuSans-2e" d="M 684 794 
L 1344 794 
L 1344 0 
L 684 0 
L 684 794 
z
" transform="scale(0.015625)"/>
       </defs>
       <use xlink:href="#DejaVuSans-30"/>
       <use xlink:href="#DejaVuSans-2e" transform="translate(63.623047 0)"/>
       <use xlink:href="#DejaVuSans-30" transform="translate(95.410156 0)"/>
      </g>
     </g>
    </g>
    <g id="ytick_2">
     <g id="line2d_8">
      <g>
       <use xlink:href="#m2cdf5f85f9" x="92.91" y="196.23218" style="fill: #262626; stroke: #262626; stroke-width: 1.875"/>
      </g>
     </g>
     <g id="text_9">
      <!-- 0.1 -->
      <g style="fill: #262626" transform="translate(54.169844 202.500891) scale(0.165 -0.165)">
       <use xlink:href="#DejaVuSans-30"/>
       <use xlink:href="#DejaVuSans-2e" transform="translate(63.623047 0)"/>
       <use xlink:href="#DejaVuSans-31" transform="translate(95.410156 0)"/>
      </g>
     </g>
    </g>
    <g id="ytick_3">
     <g id="line2d_9">
      <g>
       <use xlink:href="#m2cdf5f85f9" x="92.91" y="128.073378" style="fill: #262626; stroke: #262626; stroke-width: 1.875"/>
      </g>
     </g>
     <g id="text_10">
      <!-- 0.2 -->
      <g style="fill: #262626" transform="translate(54.169844 134.342089) scale(0.165 -0.165)">
       <use xlink:href="#DejaVuSans-30"/>
       <use xlink:href="#DejaVuSans-2e" transform="translate(63.623047 0)"/>
       <use xlink:href="#DejaVuSans-32" transform="translate(95.410156 0)"/>
      </g>
     </g>
    </g>
    <g id="ytick_4">
     <g id="line2d_10">
      <g>
       <use xlink:href="#m2cdf5f85f9" x="92.91" y="59.914575" style="fill: #262626; stroke: #262626; stroke-width: 1.875"/>
      </g>
     </g>
     <g id="text_11">
      <!-- 0.3 -->
      <g style="fill: #262626" transform="translate(54.169844 66.183286) scale(0.165 -0.165)">
       <defs>
        <path id="DejaVuSans-33" d="M 2597 2516 
Q 3050 2419 3304 2112 
Q 3559 1806 3559 1356 
Q 3559 666 3084 287 
Q 2609 -91 1734 -91 
Q 1441 -91 1130 -33 
Q 819 25 488 141 
L 488 750 
Q 750 597 1062 519 
Q 1375 441 1716 441 
Q 2309 441 2620 675 
Q 2931 909 2931 1356 
Q 2931 1769 2642 2001 
Q 2353 2234 1838 2234 
L 1294 2234 
L 1294 2753 
L 1863 2753 
Q 2328 2753 2575 2939 
Q 2822 3125 2822 3475 
Q 2822 3834 2567 4026 
Q 2313 4219 1838 4219 
Q 1578 4219 1281 4162 
Q 984 4106 628 3988 
L 628 4550 
Q 988 4650 1302 4700 
Q 1616 4750 1894 4750 
Q 2613 4750 3031 4423 
Q 3450 4097 3450 3541 
Q 3450 3153 3228 2886 
Q 3006 2619 2597 2516 
z
" transform="scale(0.015625)"/>
       </defs>
       <use xlink:href="#DejaVuSans-30"/>
       <use xlink:href="#DejaVuSans-2e" transform="translate(63.623047 0)"/>
       <use xlink:href="#DejaVuSans-33" transform="translate(95.410156 0)"/>
      </g>
     </g>
    </g>
    <g id="text_12">
     <!-- Std. Morris Sensitivity, $\sigma$ -->
     <g style="fill: #262626" transform="translate(46.389844 259.810817) rotate(-90) scale(0.18 -0.18)">
      <defs>
       <path id="DejaVuSans-53" d="M 3425 4513 
L 3425 3897 
Q 3066 4069 2747 4153 
Q 2428 4238 2131 4238 
Q 1616 4238 1336 4038 
Q 1056 3838 1056 3469 
Q 1056 3159 1242 3001 
Q 1428 2844 1947 2747 
L 2328 2669 
Q 3034 2534 3370 2195 
Q 3706 1856 3706 1288 
Q 3706 609 3251 259 
Q 2797 -91 1919 -91 
Q 1588 -91 1214 -16 
Q 841 59 441 206 
L 441 856 
Q 825 641 1194 531 
Q 1563 422 1919 422 
Q 2459 422 2753 634 
Q 3047 847 3047 1241 
Q 3047 1584 2836 1778 
Q 2625 1972 2144 2069 
L 1759 2144 
Q 1053 2284 737 2584 
Q 422 2884 422 3419 
Q 422 4038 858 4394 
Q 1294 4750 2059 4750 
Q 2388 4750 2728 4690 
Q 3069 4631 3425 4513 
z
" transform="scale(0.015625)"/>
       <path id="DejaVuSans-74" d="M 1172 4494 
L 1172 3500 
L 2356 3500 
L 2356 3053 
L 1172 3053 
L 1172 1153 
Q 1172 725 1289 603 
Q 1406 481 1766 481 
L 2356 481 
L 2356 0 
L 1766 0 
Q 1100 0 847 248 
Q 594 497 594 1153 
L 594 3053 
L 172 3053 
L 172 3500 
L 594 3500 
L 594 4494 
L 1172 4494 
z
" transform="scale(0.015625)"/>
       <path id="DejaVuSans-64" d="M 2906 2969 
L 2906 4863 
L 3481 4863 
L 3481 0 
L 2906 0 
L 2906 525 
Q 2725 213 2448 61 
Q 2172 -91 1784 -91 
Q 1150 -91 751 415 
Q 353 922 353 1747 
Q 353 2572 751 3078 
Q 1150 3584 1784 3584 
Q 2172 3584 2448 3432 
Q 2725 3281 2906 2969 
z
M 947 1747 
Q 947 1113 1208 752 
Q 1469 391 1925 391 
Q 2381 391 2643 752 
Q 2906 1113 2906 1747 
Q 2906 2381 2643 2742 
Q 2381 3103 1925 3103 
Q 1469 3103 1208 2742 
Q 947 2381 947 1747 
z
" transform="scale(0.015625)"/>
       <path id="DejaVuSans-4d" d="M 628 4666 
L 1569 4666 
L 2759 1491 
L 3956 4666 
L 4897 4666 
L 4897 0 
L 4281 0 
L 4281 4097 
L 3078 897 
L 2444 897 
L 1241 4097 
L 1241 0 
L 628 0 
L 628 4666 
z
" transform="scale(0.015625)"/>
       <path id="DejaVuSans-6f" d="M 1959 3097 
Q 1497 3097 1228 2736 
Q 959 2375 959 1747 
Q 959 1119 1226 758 
Q 1494 397 1959 397 
Q 2419 397 2687 759 
Q 2956 1122 2956 1747 
Q 2956 2369 2687 2733 
Q 2419 3097 1959 3097 
z
M 1959 3584 
Q 2709 3584 3137 3096 
Q 3566 2609 3566 1747 
Q 3566 888 3137 398 
Q 2709 -91 1959 -91 
Q 1206 -91 779 398 
Q 353 888 353 1747 
Q 353 2609 779 3096 
Q 1206 3584 1959 3584 
z
" transform="scale(0.015625)"/>
       <path id="DejaVuSans-73" d="M 2834 3397 
L 2834 2853 
Q 2591 2978 2328 3040 
Q 2066 3103 1784 3103 
Q 1356 3103 1142 2972 
Q 928 2841 928 2578 
Q 928 2378 1081 2264 
Q 1234 2150 1697 2047 
L 1894 2003 
Q 2506 1872 2764 1633 
Q 3022 1394 3022 966 
Q 3022 478 2636 193 
Q 2250 -91 1575 -91 
Q 1294 -91 989 -36 
Q 684 19 347 128 
L 347 722 
Q 666 556 975 473 
Q 1284 391 1588 391 
Q 1994 391 2212 530 
Q 2431 669 2431 922 
Q 2431 1156 2273 1281 
Q 2116 1406 1581 1522 
L 1381 1569 
Q 847 1681 609 1914 
Q 372 2147 372 2553 
Q 372 3047 722 3315 
Q 1072 3584 1716 3584 
Q 2034 3584 2315 3537 
Q 2597 3491 2834 3397 
z
" transform="scale(0.015625)"/>
       <path id="DejaVuSans-6e" d="M 3513 2113 
L 3513 0 
L 2938 0 
L 2938 2094 
Q 2938 2591 2744 2837 
Q 2550 3084 2163 3084 
Q 1697 3084 1428 2787 
Q 1159 2491 1159 1978 
L 1159 0 
L 581 0 
L 581 3500 
L 1159 3500 
L 1159 2956 
Q 1366 3272 1645 3428 
Q 1925 3584 2291 3584 
Q 2894 3584 3203 3211 
Q 3513 2838 3513 2113 
z
" transform="scale(0.015625)"/>
       <path id="DejaVuSans-76" d="M 191 3500 
L 800 3500 
L 1894 563 
L 2988 3500 
L 3597 3500 
L 2284 0 
L 1503 0 
L 191 3500 
z
" transform="scale(0.015625)"/>
       <path id="DejaVuSans-79" d="M 2059 -325 
Q 1816 -950 1584 -1140 
Q 1353 -1331 966 -1331 
L 506 -1331 
L 506 -850 
L 844 -850 
Q 1081 -850 1212 -737 
Q 1344 -625 1503 -206 
L 1606 56 
L 191 3500 
L 800 3500 
L 1894 763 
L 2988 3500 
L 3597 3500 
L 2059 -325 
z
" transform="scale(0.015625)"/>
       <path id="DejaVuSans-2c" d="M 750 794 
L 1409 794 
L 1409 256 
L 897 -744 
L 494 -744 
L 750 256 
L 750 794 
z
" transform="scale(0.015625)"/>
       <path id="DejaVuSans-Oblique-3c3" d="M 2219 3044 
Q 1744 3044 1422 2700 
Q 1081 2341 969 1747 
Q 844 1119 1044 756 
Q 1241 397 1706 397 
Q 2166 397 2503 759 
Q 2844 1122 2966 1747 
Q 3075 2319 2881 2700 
Q 2700 3044 2219 3044 
z
M 2309 3503 
L 4219 3500 
L 4106 2925 
L 3463 2925 
Q 3706 2438 3575 1747 
Q 3406 888 2884 400 
Q 2359 -91 1609 -91 
Q 856 -91 525 400 
Q 194 888 363 1747 
Q 528 2609 1050 3097 
Q 1484 3503 2309 3503 
z
" transform="scale(0.015625)"/>
      </defs>
      <use xlink:href="#DejaVuSans-53" transform="translate(0 0.015625)"/>
      <use xlink:href="#DejaVuSans-74" transform="translate(63.476562 0.015625)"/>
      <use xlink:href="#DejaVuSans-64" transform="translate(102.685547 0.015625)"/>
      <use xlink:href="#DejaVuSans-2e" transform="translate(166.162109 0.015625)"/>
      <use xlink:href="#DejaVuSans-20" transform="translate(197.949219 0.015625)"/>
      <use xlink:href="#DejaVuSans-4d" transform="translate(229.736328 0.015625)"/>
      <use xlink:href="#DejaVuSans-6f" transform="translate(316.015625 0.015625)"/>
      <use xlink:href="#DejaVuSans-72" transform="translate(377.197266 0.015625)"/>
      <use xlink:href="#DejaVuSans-72" transform="translate(418.310547 0.015625)"/>
      <use xlink:href="#DejaVuSans-69" transform="translate(459.423828 0.015625)"/>
      <use xlink:href="#DejaVuSans-73" transform="translate(487.207031 0.015625)"/>
      <use xlink:href="#DejaVuSans-20" transform="translate(539.306641 0.015625)"/>
      <use xlink:href="#DejaVuSans-53" transform="translate(571.09375 0.015625)"/>
      <use xlink:href="#DejaVuSans-65" transform="translate(634.570312 0.015625)"/>
      <use xlink:href="#DejaVuSans-6e" transform="translate(696.09375 0.015625)"/>
      <use xlink:href="#DejaVuSans-73" transform="translate(759.472656 0.015625)"/>
      <use xlink:href="#DejaVuSans-69" transform="translate(811.572266 0.015625)"/>
      <use xlink:href="#DejaVuSans-74" transform="translate(839.355469 0.015625)"/>
      <use xlink:href="#DejaVuSans-69" transform="translate(878.564453 0.015625)"/>
      <use xlink:href="#DejaVuSans-76" transform="translate(906.347656 0.015625)"/>
      <use xlink:href="#DejaVuSans-69" transform="translate(965.527344 0.015625)"/>
      <use xlink:href="#DejaVuSans-74" transform="translate(993.310547 0.015625)"/>
      <use xlink:href="#DejaVuSans-79" transform="translate(1032.519531 0.015625)"/>
      <use xlink:href="#DejaVuSans-2c" transform="translate(1091.699219 0.015625)"/>
      <use xlink:href="#DejaVuSans-20" transform="translate(1123.486328 0.015625)"/>
      <use xlink:href="#DejaVuSans-Oblique-3c3" transform="translate(1155.273438 0.015625)"/>
     </g>
    </g>
   </g>
   <g id="line2d_11">
    <path d="M 108.157748 264.390983 
L 111.334362 248.836949 
L 114.510976 235.544526 
L 117.68759 229.532739 
L 120.864205 226.410127 
L 124.040819 224.336163 
L 127.217433 222.599095 
L 130.394047 220.918894 
L 133.570661 219.189661 
L 136.747275 217.377213 
L 139.923889 215.476883 
L 143.100504 213.496036 
L 146.277118 211.446817 
L 149.453732 209.343122 
L 152.630346 207.199245 
L 155.80696 205.029188 
L 158.983574 202.846204 
L 162.160189 200.662443 
L 165.336803 198.488668 
L 168.513417 196.334065 
L 171.690031 194.206151 
L 174.866645 192.110802 
L 178.043259 190.052369 
L 181.219873 188.033868 
L 184.396488 186.057208 
L 187.573102 184.123431 
L 190.749716 182.232935 
L 193.92633 180.385669 
L 197.102944 178.581292 
L 200.279558 176.8193 
L 203.456173 175.09911 
L 206.632787 173.420121 
L 209.809401 171.781753 
L 212.986015 170.183458 
L 216.162629 168.624729 
L 219.339243 167.105088 
L 222.515857 165.624072 
L 225.692472 164.18122 
L 228.869086 162.77605 
L 232.0457 161.408044 
L 235.222314 160.076636 
L 238.398928 158.781196 
L 241.575542 157.521027 
L 244.752157 156.295364 
L 247.928771 155.103373 
L 251.105385 153.94416 
L 254.281999 152.816779 
L 257.458613 151.72024 
L 260.635227 150.653528 
L 263.811841 146.9954 
L 266.988456 125.587556 
L 270.16507 94.714607 
L 273.341684 77.698441 
L 276.518298 70.166145 
L 279.694912 65.522715 
L 282.871526 61.331958 
L 286.04814 57.372024 
L 289.224755 53.783681 
L 292.401369 50.700538 
L 295.577983 48.1744 
L 298.754597 46.196274 
L 301.931211 44.726598 
L 305.107825 43.711759 
L 308.28444 43.090675 
L 311.461054 42.797925 
L 314.637668 42.767059 
L 317.814282 42.93507 
L 320.990896 43.247104 
L 324.16751 43.659656 
L 327.344124 44.140781 
L 330.520739 44.667239 
L 333.697353 45.220051 
L 336.873967 45.780662 
L 340.050581 46.329181 
L 343.227195 46.844818 
L 346.403809 47.307547 
L 349.580424 47.699883 
L 352.757038 48.008048 
L 355.933652 48.222364 
L 359.110266 48.337052 
L 362.28688 48.349702 
L 365.463494 48.260654 
L 368.640108 48.072423 
L 371.816723 47.789221 
L 374.993337 47.416586 
L 378.169951 46.961095 
L 381.346565 46.430137 
L 384.523179 45.831733 
L 387.699793 45.174384 
L 390.876408 44.466935 
L 394.053022 43.718456 
L 397.229636 42.93813 
L 400.40625 42.135137 
L 403.582864 41.318542 
L 406.759478 40.497174 
L 409.936092 39.679508 
L 413.112707 38.873543 
" clip-path="url(#p7f337bcf3c)" style="fill: none; stroke: #4c72b0; stroke-width: 2.25; stroke-linecap: round"/>
   </g>
   <g id="line2d_12">
    <path d="M 108.157748 264.390983 
L 111.334362 243.785601 
L 114.510976 221.237089 
L 117.68759 207.955926 
L 120.864205 199.449819 
L 124.040819 193.021421 
L 127.217433 187.554299 
L 130.394047 182.612049 
L 133.570661 178.020982 
L 136.747275 173.700598 
L 139.923889 169.602323 
L 143.100504 165.69044 
L 146.277118 161.936926 
L 149.453732 158.319871 
L 152.630346 154.822456 
L 155.80696 151.43191 
L 158.983574 148.13851 
L 162.160189 144.934703 
L 165.336803 141.814431 
L 168.513417 138.772634 
L 171.690031 135.804933 
L 174.866645 132.907448 
L 178.043259 130.076733 
L 181.219873 127.309766 
L 184.396488 124.603985 
L 187.573102 121.95733 
L 190.749716 119.368268 
L 193.92633 116.835795 
L 197.102944 114.359402 
L 200.279558 111.939017 
L 203.456173 109.574924 
L 206.632787 107.267669 
L 209.809401 105.017964 
L 212.986015 102.8266 
L 216.162629 100.694361 
L 219.339243 98.621965 
L 222.515857 96.610016 
L 225.692472 94.658962 
L 228.869086 92.769075 
L 232.0457 90.940435 
L 235.222314 89.172919 
L 238.398928 87.466202 
L 241.575542 85.819759 
L 244.752157 84.23287 
L 247.928771 82.704627 
L 251.105385 81.233956 
L 254.281999 79.819626 
L 257.458613 78.46027 
L 260.635227 77.154406 
L 263.811841 74.245819 
L 266.988456 62.66618 
L 270.16507 46.091455 
L 273.341684 35.81065 
L 276.518298 42.211876 
L 279.694912 52.071798 
L 282.871526 61.846847 
L 286.04814 69.243146 
L 289.224755 74.581083 
L 292.401369 78.569533 
L 295.577983 81.695144 
L 298.754597 84.253951 
L 301.931211 86.421826 
L 305.107825 88.302384 
L 308.28444 89.956367 
L 311.461054 91.419749 
L 314.637668 92.715098 
L 317.814282 93.858534 
L 320.990896 94.863541 
L 324.16751 95.742484 
L 327.344124 96.506722 
L 330.520739 97.166192 
L 333.697353 97.729137 
L 336.873967 98.202283 
L 340.050581 98.591326 
L 343.227195 98.901476 
L 346.403809 99.137826 
L 349.580424 99.305519 
L 352.757038 99.409765 
L 355.933652 99.4558 
L 359.110266 99.448848 
L 362.28688 99.394109 
L 365.463494 99.296755 
L 368.640108 99.161935 
L 371.816723 98.994757 
L 374.993337 98.800254 
L 378.169951 98.583332 
L 381.346565 98.348699 
L 384.523179 98.100791 
L 387.699793 97.843698 
L 390.876408 97.581103 
L 394.053022 97.316244 
L 397.229636 97.051884 
L 400.40625 96.790316 
L 403.582864 96.533378 
L 406.759478 96.282481 
L 409.936092 96.038657 
L 413.112707 95.802609 
" clip-path="url(#p7f337bcf3c)" style="fill: none; stroke: #dd8452; stroke-width: 2.25; stroke-linecap: round"/>
   </g>
   <g id="line2d_13">
    <path d="M 108.157748 264.390983 
L 111.334362 264.068927 
L 114.510976 263.244381 
L 117.68759 262.334158 
L 120.864205 261.393936 
L 124.040819 260.399806 
L 127.217433 259.327962 
L 130.394047 258.162819 
L 133.570661 256.895188 
L 136.747275 255.52011 
L 139.923889 254.035529 
L 143.100504 252.441605 
L 146.277118 250.740397 
L 149.453732 248.935715 
L 152.630346 247.033018 
L 155.80696 245.039269 
L 158.983574 242.962717 
L 162.160189 240.812592 
L 165.336803 238.59872 
L 168.513417 236.331113 
L 171.690031 234.01956 
L 174.866645 231.673272 
L 178.043259 229.300623 
L 181.219873 226.90897 
L 184.396488 224.504592 
L 187.573102 222.092691 
L 190.749716 219.677466 
L 193.92633 217.262218 
L 197.102944 214.849475 
L 200.279558 212.441125 
L 203.456173 210.03854 
L 206.632787 207.642689 
L 209.809401 205.254239 
L 212.986015 202.873636 
L 216.162629 200.501176 
L 219.339243 198.137058 
L 222.515857 195.78143 
L 225.692472 193.434421 
L 228.869086 191.096166 
L 232.0457 188.766832 
L 235.222314 186.446634 
L 238.398928 184.135853 
L 241.575542 181.834851 
L 244.752157 179.544094 
L 247.928771 177.264159 
L 251.105385 174.995763 
L 254.281999 172.739771 
L 257.458613 170.49721 
L 260.635227 168.269284 
L 263.811841 165.847505 
L 266.988456 166.846969 
L 270.16507 177.823333 
L 273.341684 191.335593 
L 276.518298 197.742994 
L 279.694912 203.876188 
L 282.871526 210.619712 
L 286.04814 214.29835 
L 289.224755 215.147823 
L 292.401369 214.139421 
L 295.577983 211.969924 
L 298.754597 209.093544 
L 301.931211 205.805122 
L 305.107825 202.29438 
L 308.28444 198.68052 
L 311.461054 195.035469 
L 314.637668 191.40009 
L 317.814282 187.795478 
L 320.990896 184.230494 
L 324.16751 180.706458 
L 327.344124 177.21996 
L 330.520739 173.764685 
L 333.697353 170.332868 
L 336.873967 166.916658 
L 340.050581 163.509355 
L 343.227195 160.106379 
L 346.403809 156.705836 
L 349.580424 153.308665 
L 352.757038 149.918419 
L 355.933652 146.540821 
L 359.110266 143.183215 
L 362.28688 139.854002 
L 365.463494 136.56215 
L 368.640108 133.316782 
L 371.816723 130.126865 
L 374.993337 127.000966 
L 378.169951 123.947077 
L 381.346565 120.972458 
L 384.523179 118.083514 
L 387.699793 115.285667 
L 390.876408 112.583246 
L 394.053022 109.979397 
L 397.229636 107.476004 
L 400.40625 105.073664 
L 403.582864 102.771688 
L 406.759478 100.568168 
L 409.936092 98.460084 
L 413.112707 96.443468 
" clip-path="url(#p7f337bcf3c)" style="fill: none; stroke: #55a868; stroke-width: 2.25; stroke-linecap: round"/>
   </g>
   <g id="line2d_14">
    <path d="M 108.157748 264.390983 
L 111.334362 264.390983 
L 114.510976 264.390983 
L 117.68759 264.390983 
L 120.864205 264.390983 
L 124.040819 264.390983 
L 127.217433 264.390983 
L 130.394047 264.390983 
L 133.570661 264.390983 
L 136.747275 264.390983 
L 139.923889 264.390983 
L 143.100504 264.390983 
L 146.277118 264.390983 
L 149.453732 264.390983 
L 152.630346 264.390983 
L 155.80696 264.390983 
L 158.983574 264.390983 
L 162.160189 264.390983 
L 165.336803 264.390983 
L 168.513417 264.390983 
L 171.690031 264.390983 
L 174.866645 264.390983 
L 178.043259 264.390983 
L 181.219873 264.390983 
L 184.396488 264.390983 
L 187.573102 264.390983 
L 190.749716 264.390983 
L 193.92633 264.390983 
L 197.102944 264.390983 
L 200.279558 264.390983 
L 203.456173 264.390983 
L 206.632787 264.390983 
L 209.809401 264.390983 
L 212.986015 264.390983 
L 216.162629 264.390983 
L 219.339243 264.390983 
L 222.515857 264.390983 
L 225.692472 264.390983 
L 228.869086 264.390983 
L 232.0457 264.390983 
L 235.222314 264.390983 
L 238.398928 264.390983 
L 241.575542 264.390983 
L 244.752157 264.390983 
L 247.928771 264.390983 
L 251.105385 264.390983 
L 254.281999 264.390983 
L 257.458613 264.390983 
L 260.635227 264.390983 
L 263.811841 255.168446 
L 266.988456 193.246445 
L 270.16507 120.604348 
L 273.341684 86.51733 
L 276.518298 78.629446 
L 279.694912 81.071499 
L 282.871526 85.311167 
L 286.04814 89.163265 
L 289.224755 92.060551 
L 292.401369 94.15919 
L 295.577983 95.688573 
L 298.754597 96.822753 
L 301.931211 97.678141 
L 305.107825 98.32724 
L 308.28444 98.811341 
L 311.461054 99.151773 
L 314.637668 99.360309 
L 317.814282 99.448041 
L 320.990896 99.431239 
L 324.16751 99.33296 
L 327.344124 99.180457 
L 330.520739 99.000072 
L 333.697353 98.812299 
L 336.873967 98.629242 
L 340.050581 98.455114 
L 343.227195 98.288839 
L 346.403809 98.127245 
L 349.580424 97.967663 
L 352.757038 97.80948 
L 355.933652 97.654721 
L 359.110266 97.507998 
L 362.28688 97.37611 
L 365.463494 97.267527 
L 368.640108 97.191856 
L 371.816723 97.159337 
L 374.993337 97.180363 
L 378.169951 97.265041 
L 381.346565 97.422778 
L 384.523179 97.661917 
L 387.699793 97.98942 
L 390.876408 98.41062 
L 394.053022 98.929054 
L 397.229636 99.54638 
L 400.40625 100.262382 
L 403.582864 101.075052 
L 406.759478 101.980742 
L 409.936092 102.974356 
L 413.112707 104.049588 
" clip-path="url(#p7f337bcf3c)" style="fill: none; stroke: #c44e52; stroke-width: 2.25; stroke-linecap: round"/>
   </g>
   <g id="line2d_15">
    <path d="M 108.157748 264.390983 
L 111.334362 264.390983 
L 114.510976 264.390983 
L 117.68759 264.390983 
L 120.864205 264.390983 
L 124.040819 264.390983 
L 127.217433 264.390983 
L 130.394047 264.390983 
L 133.570661 264.390983 
L 136.747275 264.390983 
L 139.923889 264.390983 
L 143.100504 264.390983 
L 146.277118 264.390983 
L 149.453732 264.390983 
L 152.630346 264.390983 
L 155.80696 264.390983 
L 158.983574 264.390983 
L 162.160189 264.390983 
L 165.336803 264.390983 
L 168.513417 264.390983 
L 171.690031 264.390983 
L 174.866645 264.390983 
L 178.043259 264.390983 
L 181.219873 264.390983 
L 184.396488 264.390983 
L 187.573102 264.390983 
L 190.749716 264.390983 
L 193.92633 264.390983 
L 197.102944 264.390983 
L 200.279558 264.390983 
L 203.456173 264.390983 
L 206.632787 264.390983 
L 209.809401 264.390983 
L 212.986015 264.390983 
L 216.162629 264.390983 
L 219.339243 264.390983 
L 222.515857 264.390983 
L 225.692472 264.390983 
L 228.869086 264.390983 
L 232.0457 264.390983 
L 235.222314 264.390983 
L 238.398928 264.390983 
L 241.575542 264.390983 
L 244.752157 264.390983 
L 247.928771 264.390983 
L 251.105385 264.390983 
L 254.281999 264.390983 
L 257.458613 264.390983 
L 260.635227 264.390983 
L 263.811841 260.551489 
L 266.988456 233.928497 
L 270.16507 202.946854 
L 273.341684 182.634199 
L 276.518298 173.039337 
L 279.694912 169.441897 
L 282.871526 168.068575 
L 286.04814 167.251934 
L 289.224755 166.564481 
L 292.401369 166.041374 
L 295.577983 165.729515 
L 298.754597 165.633764 
L 301.931211 165.733056 
L 305.107825 165.994358 
L 308.28444 166.380171 
L 311.461054 166.852748 
L 314.637668 167.376802 
L 317.814282 167.921238 
L 320.990896 168.460076 
L 324.16751 168.972635 
L 327.344124 169.44321 
L 330.520739 169.860502 
L 333.697353 170.217054 
L 336.873967 170.508798 
L 340.050581 170.734695 
L 343.227195 170.89638 
L 346.403809 170.997716 
L 349.580424 171.044308 
L 352.757038 171.04299 
L 355.933652 171.001377 
L 359.110266 170.927499 
L 362.28688 170.829535 
L 365.463494 170.715621 
L 368.640108 170.593719 
L 371.816723 170.471515 
L 374.993337 170.356329 
L 378.169951 170.255029 
L 381.346565 170.173941 
L 384.523179 170.118763 
L 387.699793 170.094468 
L 390.876408 170.10524 
L 394.053022 170.154409 
L 397.229636 170.244425 
L 400.40625 170.376854 
L 403.582864 170.552406 
L 406.759478 170.770994 
L 409.936092 171.031814 
L 413.112707 171.333445 
" clip-path="url(#p7f337bcf3c)" style="fill: none; stroke: #8172b3; stroke-width: 2.25; stroke-linecap: round"/>
   </g>
   <g id="patch_3">
    <path d="M 92.91 275.82 
L 92.91 24.381634 
" style="fill: none; stroke: #262626; stroke-width: 1.875; stroke-linejoin: miter; stroke-linecap: square"/>
   </g>
   <g id="patch_4">
    <path d="M 92.91 275.82 
L 428.360455 275.82 
" style="fill: none; stroke: #262626; stroke-width: 1.875; stroke-linejoin: miter; stroke-linecap: square"/>
   </g>
  </g>
 </g>
 <defs>
  <clipPath id="p7f337bcf3c">
   <rect x="92.91" y="24.381634" width="335.450455" height="251.438366"/>
  </clipPath>
 </defs>
</svg>
