<?xml version="1.0" encoding="utf-8" standalone="no"?>
<!DOCTYPE svg PUBLIC "-//W3C//DTD SVG 1.1//EN"
  "http://www.w3.org/Graphics/SVG/1.1/DTD/svg11.dtd">
<svg xmlns:xlink="http://www.w3.org/1999/xlink" width="460.8pt" height="345.6pt" viewBox="0 0 460.8 345.6" xmlns="http://www.w3.org/2000/svg" version="1.1">
 <metadata>
  <rdf:RDF xmlns:dc="http://purl.org/dc/elements/1.1/" xmlns:cc="http://creativecommons.org/ns#" xmlns:rdf="http://www.w3.org/1999/02/22-rdf-syntax-ns#">
   <cc:Work>
    <dc:type rdf:resource="http://purl.org/dc/dcmitype/StillImage"/>
    <dc:date>1980-01-01T00:00:00+00:00</dc:date>
    <dc:format>image/svg+xml</dc:format>
    <dc:creator>
     <cc:Agent>
      <dc:title>Matplotlib v3.10.8, https://matplotlib.org/</dc:title>
     </cc:Agent>
    </dc:creator>
   </cc:Work>
  </rdf:RDF>
 </metadata>
 <defs>
  <style type="text/css">*{stroke-linejoin: round; stroke-linecap: butt}</style>
 </defs>
 <g id="figure_1">
  <g id="patch_1">
   <path d="M 0 345.6 
L 460.8 345.6 
L 460.8 0 
L 0 0 
z
" style="fill: #ffffff"/>
  </g>
  <g id="axes_1">
   <g id="patch_2">
    <path d="M 85.404 275.82 
L 428.360455 275.82 
L 428.360455 19.44 
L 85.404 19.44 
z
" style="fill: #ffffff"/>
   </g>
   <g id="matplotlib.axis_1">
    <g id="xtick_1">
     <g id="line2d_1">
      <defs>
       <path id="m3d64951594" d="M 0 0 
L 0 9 
" style="stroke: #262626; stroke-width: 1.875"/>
      </defs>
      <g>
       <use xlink:href="#m3d64951594" x="100.99293" y="275.82" style="fill: #262626; stroke: #262626; stroke-width: 1.875"/>
      </g>
     </g>
     <g id="text_1">
      <!-- 0 -->
      <g style="fill: #262626" transform="translate(95.743867 300.857422) scale(0.165 -0.165)">
       <defs>
        <path id="DejaVuSans-30" d="M 2034 4250 
Q 1547 4250 1301 3770 
Q 1056 3291 1056 2328 
Q 1056 1369 1301 889 
Q 1547 409 2034 409 
Q 2525 409 2770 889 
Q 3016 1369 3016 2328 
Q 3016 3291 2770 3770 
Q 2525 4250 2034 4250 
z
M 2034 4750 
Q 2819 4750 3233 4129 
Q 3647 3509 3647 2328 
Q 3647 1150 3233 529 
Q 2819 -91 2034 -91 
Q 1250 -91 836 529 
Q 422 1150 422 2328 
Q 422 3509 836 4129 
Q 1250 4750 2034 4750 
z
" transform="scale(0.015625)"/>
       </defs>
       <use xlink:href="#DejaVuSans-30"/>
      </g>
     </g>
    </g>
    <g id="xtick_2">
     <g id="line2d_2">
      <g>
       <use xlink:href="#m3d64951594" x="165.946804" y="275.82" style="fill: #262626; stroke: #262626; stroke-width: 1.875"/>
      </g>
     </g>
     <g id="text_2">
      <!-- 20 -->
      <g style="fill: #262626" transform="translate(155.448679 300.857422) scale(0.165 -0.165)">
       <defs>
        <path id="DejaVuSans-32" d="M 1228 531 
L 3431 531 
L 3431 0 
L 469 0 
L 469 531 
Q 828 903 1448 1529 
Q 2069 2156 2228 2338 
Q 2531 2678 2651 2914 
Q 2772 3150 2772 3378 
Q 2772 3750 2511 3984 
Q 2250 4219 1831 4219 
Q 1534 4219 1204 4116 
Q 875 4013 500 3803 
L 500 4441 
Q 881 4594 1212 4672 
Q 1544 4750 1819 4750 
Q 2544 4750 2975 4387 
Q 3406 4025 3406 3419 
Q 3406 3131 3298 2873 
Q 3191 2616 2906 2266 
Q 2828 2175 2409 1742 
Q 1991 1309 1228 531 
z
" transform="scale(0.015625)"/>
       </defs>
       <use xlink:href="#DejaVuSans-32"/>
       <use xlink:href="#DejaVuSans-30" transform="translate(63.623047 0)"/>
      </g>
     </g>
    </g>
    <g id="xtick_3">
     <g id="line2d_3">
      <g>
       <use xlink:href="#m3d64951594" x="230.900678" y="275.82" style="fill: #262626; stroke: #262626; stroke-width: 1.875"/>
      </g>
     </g>
     <g id="text_3">
      <!-- 40 -->
      <g style="fill: #262626" transform="translate(220.402553 300.857422) scale(0.165 -0.165)">
       <defs>
        <path id="DejaVuSans-34" d="M 2419 4116 
L 825 1625 
L 2419 1625 
L 2419 4116 
z
M 2253 4666 
L 3047 4666 
L 3047 1625 
L 3713 1625 
L 3713 1100 
L 3047 1100 
L 3047 0 
L 2419 0 
L 2419 1100 
L 313 1100 
L 313 1709 
L 2253 4666 
z
" transform="scale(0.015625)"/>
       </defs>
       <use xlink:href="#DejaVuSans-34"/>
       <use xlink:href="#DejaVuSans-30" transform="translate(63.623047 0)"/>
      </g>
     </g>
    </g>
    <g id="xtick_4">
     <g id="line2d_4">
      <g>
       <use xlink:href="#m3d64951594" x="295.854552" y="275.82" style="fill: #262626; stroke: #262626; stroke-width: 1.875"/>
      </g>
     </g>
     <g id="text_4">
      <!-- 60 -->
      <g style="fill: #262626" transform="translate(285.356427 300.857422) scale(0.165 -0.165)">
       <defs>
        <path id="DejaVuSans-36" d="M 2113 2584 
Q 1688 2584 1439 2293 
Q 1191 2003 1191 1497 
Q 1191 994 1439 701 
Q 1688 409 2113 409 
Q 2538 409 2786 701 
Q 3034 994 3034 1497 
Q 3034 2003 2786 2293 
Q 2538 2584 2113 2584 
z
M 3366 4563 
L 3366 3988 
Q 3128 4100 2886 4159 
Q 2644 4219 2406 4219 
Q 1781 4219 1451 3797 
Q 1122 3375 1075 2522 
Q 1259 2794 1537 2939 
Q 1816 3084 2150 3084 
Q 2853 3084 3261 2657 
Q 3669 2231 3669 1497 
Q 3669 778 3244 343 
Q 2819 -91 2113 -91 
Q 1303 -91 875 529 
Q 447 1150 447 2328 
Q 447 3434 972 4092 
Q 1497 4750 2381 4750 
Q 2619 4750 2861 4703 
Q 3103 4656 3366 4563 
z
" transform="scale(0.015625)"/>
       </defs>
       <use xlink:href="#DejaVuSans-36"/>
       <use xlink:href="#DejaVuSans-30" transform="translate(63.623047 0)"/>
      </g>
     </g>
    </g>
    <g id="xtick_5">
     <g id="line2d_5">
      <g>
       <use xlink:href="#m3d64951594" x="360.808426" y="275.82" style="fill: #262626; stroke: #262626; stroke-width: 1.875"/>
      </g>
     </g>
     <g id="text_5">
      <!-- 80 -->
      <g style="fill: #262626" transform="translate(350.310301 300.857422) scale(0.165 -0.165)">
       <defs>
        <path id="DejaVuSans-38" d="M 2034 2216 
Q 1584 2216 1326 1975 
Q 1069 1734 1069 1313 
Q 1069 891 1326 650 
Q 1584 409 2034 409 
Q 2484 409 2743 651 
Q 3003 894 3003 1313 
Q 3003 1734 2745 1975 
Q 2488 2216 2034 2216 
z
M 1403 2484 
Q 997 2584 770 2862 
Q 544 3141 544 3541 
Q 544 4100 942 4425 
Q 1341 4750 2034 4750 
Q 2731 4750 3128 4425 
Q 3525 4100 3525 3541 
Q 3525 3141 3298 2862 
Q 3072 2584 2669 2484 
Q 3125 2378 3379 2068 
Q 3634 1759 3634 1313 
Q 3634 634 3220 271 
Q 2806 -91 2034 -91 
Q 1263 -91 848 271 
Q 434 634 434 1313 
Q 434 1759 690 2068 
Q 947 2378 1403 2484 
z
M 1172 3481 
Q 1172 3119 1398 2916 
Q 1625 2713 2034 2713 
Q 2441 2713 2670 2916 
Q 2900 3119 2900 3481 
Q 2900 3844 2670 4047 
Q 2441 4250 2034 4250 
Q 1625 4250 1398 4047 
Q 1172 3844 1172 3481 
z
" transform="scale(0.015625)"/>
       </defs>
       <use xlink:href="#DejaVuSans-38"/>
       <use xlink:href="#DejaVuSans-30" transform="translate(63.623047 0)"/>
      </g>
     </g>
    </g>
    <g id="xtick_6">
     <g id="line2d_6">
      <g>
       <use xlink:href="#m3d64951594" x="425.7623" y="275.82" style="fill: #262626; stroke: #262626; stroke-width: 1.875"/>
      </g>
     </g>
     <g id="text_6">
      <!-- 100 -->
      <g style="fill: #262626" transform="translate(410.015112 300.857422) scale(0.165 -0.165)">
       <defs>
        <path id="DejaVuSans-31" d="M 794 531 
L 1825 531 
L 1825 4091 
L 703 3866 
L 703 4441 
L 1819 4666 
L 2450 4666 
L 2450 531 
L 3481 531 
L 3481 0 
L 794 0 
L 794 531 
z
" transform="scale(0.015625)"/>
       </defs>
       <use xlink:href="#DejaVuSans-31"/>
       <use xlink:href="#DejaVuSans-30" transform="translate(63.623047 0)"/>
       <use xlink:href="#DejaVuSans-30" transform="translate(127.246094 0)"/>
      </g>
     </g>
    </g>
    <g id="text_7">
     <!-- Time (hr) -->
     <g style="fill: #262626" transform="translate(215.57504 321.966094) scale(0.18 -0.18)">
      <defs>
       <path id="DejaVuSans-54" d="M -19 4666 
L 3928 4666 
L 3928 4134 
L 2272 4134 
L 2272 0 
L 1638 0 
L 1638 4134 
L -19 4134 
L -19 4666 
z
" transform="scale(0.015625)"/>
       <path id="DejaVuSans-69" d="M 603 3500 
L 1178 3500 
L 1178 0 
L 603 0 
L 603 3500 
z
M 603 4863 
L 1178 4863 
L 1178 4134 
L 603 4134 
L 603 4863 
z
" transform="scale(0.015625)"/>
       <path id="DejaVuSans-6d" d="M 3328 2828 
Q 3544 3216 3844 3400 
Q 4144 3584 4550 3584 
Q 5097 3584 5394 3201 
Q 5691 2819 5691 2113 
L 5691 0 
L 5113 0 
L 5113 2094 
Q 5113 2597 4934 2840 
Q 4756 3084 4391 3084 
Q 3944 3084 3684 2787 
Q 3425 2491 3425 1978 
L 3425 0 
L 2847 0 
L 2847 2094 
Q 2847 2600 2669 2842 
Q 2491 3084 2119 3084 
Q 1678 3084 1418 2786 
Q 1159 2488 1159 1978 
L 1159 0 
L 581 0 
L 581 3500 
L 1159 3500 
L 1159 2956 
Q 1356 3278 1631 3431 
Q 1906 3584 2284 3584 
Q 2666 3584 2933 3390 
Q 3200 3197 3328 2828 
z
" transform="scale(0.015625)"/>
       <path id="DejaVuSans-65" d="M 3597 1894 
L 3597 1613 
L 953 1613 
Q 991 1019 1311 708 
Q 1631 397 2203 397 
Q 2534 397 2845 478 
Q 3156 559 3463 722 
L 3463 178 
Q 3153 47 2828 -22 
Q 2503 -91 2169 -91 
Q 1331 -91 842 396 
Q 353 884 353 1716 
Q 353 2575 817 3079 
Q 1281 3584 2069 3584 
Q 2775 3584 3186 3129 
Q 3597 2675 3597 1894 
z
M 3022 2063 
Q 3016 2534 2758 2815 
Q 2500 3097 2075 3097 
Q 1594 3097 1305 2825 
Q 1016 2553 972 2059 
L 3022 2063 
z
" transform="scale(0.015625)"/>
       <path id="DejaVuSans-20" transform="scale(0.015625)"/>
       <path id="DejaVuSans-28" d="M 1984 4856 
Q 1566 4138 1362 3434 
Q 1159 2731 1159 2009 
Q 1159 1288 1364 580 
Q 1569 -128 1984 -844 
L 1484 -844 
Q 1016 -109 783 600 
Q 550 1309 550 2009 
Q 550 2706 781 3412 
Q 1013 4119 1484 4856 
L 1984 4856 
z
" transform="scale(0.015625)"/>
       <path id="DejaVuSans-68" d="M 3513 2113 
L 3513 0 
L 2938 0 
L 2938 2094 
Q 2938 2591 2744 2837 
Q 2550 3084 2163 3084 
Q 1697 3084 1428 2787 
Q 1159 2491 1159 1978 
L 1159 0 
L 581 0 
L 581 4863 
L 1159 4863 
L 1159 2956 
Q 1366 3272 1645 3428 
Q 1925 3584 2291 3584 
Q 2894 3584 3203 3211 
Q 3513 2838 3513 2113 
z
" transform="scale(0.015625)"/>
       <path id="DejaVuSans-72" d="M 2631 2963 
Q 2534 3019 2420 3045 
Q 2306 3072 2169 3072 
Q 1681 3072 1420 2755 
Q 1159 2438 1159 1844 
L 1159 0 
L 581 0 
L 581 3500 
L 1159 3500 
L 1159 2956 
Q 1341 3275 1631 3429 
Q 1922 3584 2338 3584 
Q 2397 3584 2469 3576 
Q 2541 3569 2628 3553 
L 2631 2963 
z
" transform="scale(0.015625)"/>
       <path id="DejaVuSans-29" d="M 513 4856 
L 1013 4856 
Q 1481 4119 1714 3412 
Q 1947 2706 1947 2009 
Q 1947 1309 1714 600 
Q 1481 -109 1013 -844 
L 513 -844 
Q 928 -128 1133 580 
Q 1338 1288 1338 2009 
Q 1338 2731 1133 3434 
Q 928 4138 513 4856 
z
" transform="scale(0.015625)"/>
      </defs>
      <use xlink:href="#DejaVuSans-54"/>
      <use xlink:href="#DejaVuSans-69" transform="translate(57.958984 0)"/>
      <use xlink:href="#DejaVuSans-6d" transform="translate(85.742188 0)"/>
      <use xlink:href="#DejaVuSans-65" transform="translate(183.154297 0)"/>
      <use xlink:href="#DejaVuSans-20" transform="translate(244.677734 0)"/>
      <use xlink:href="#DejaVuSans-28" transform="translate(276.464844 0)"/>
      <use xlink:href="#DejaVuSans-68" transform="translate(315.478516 0)"/>
      <use xlink:href="#DejaVuSans-72" transform="translate(378.857422 0)"/>
      <use xlink:href="#DejaVuSans-29" transform="translate(419.970703 0)"/>
     </g>
    </g>
   </g>
   <g id="matplotlib.axis_2">
    <g id="ytick_1">
     <g id="line2d_7">
      <defs>
       <path id="m9f00dab507" d="M 0 0 
L -9 0 
" style="stroke: #262626; stroke-width: 1.875"/>
      </defs>
      <g>
       <use xlink:href="#m9f00dab507" x="85.404" y="264.166364" style="fill: #262626; stroke: #262626; stroke-width: 1.875"/>
      </g>
     </g>
     <g id="text_8">
      <!-- 0.0 -->
      <g style="fill: #262626" transform="translate(46.663844 270.435075) scale(0.165 -0.165)">
       <defs>
        <path id="DejaVuSans-2e" d="M 684 794 
L 1344 794 
L 1344 0 
L 684 0 
L 684 794 
z
" transform="scale(0.015625)"/>
       </defs>
       <use xlink:href="#DejaVuSans-30"/>
       <use xlink:href="#DejaVuSans-2e" transform="translate(63.623047 0)"/>
       <use xlink:href="#DejaVuSans-30" transform="translate(95.410156 0)"/>
      </g>
     </g>
    </g>
    <g id="ytick_2">
     <g id="line2d_8">
      <g>
       <use xlink:href="#m9f00dab507" x="85.404" y="209.473741" style="fill: #262626; stroke: #262626; stroke-width: 1.875"/>
      </g>
     </g>
     <g id="text_9">
      <!-- 0.2 -->
      <g style="fill: #262626" transform="translate(46.663844 215.742452) scale(0.165 -0.165)">
       <use xlink:href="#DejaVuSans-30"/>
       <use xlink:href="#DejaVuSans-2e" transform="translate(63.623047 0)"/>
       <use xlink:href="#DejaVuSans-32" transform="translate(95.410156 0)"/>
      </g>
     </g>
    </g>
    <g id="ytick_3">
     <g id="line2d_9">
      <g>
       <use xlink:href="#m9f00dab507" x="85.404" y="154.781119" style="fill: #262626; stroke: #262626; stroke-width: 1.875"/>
      </g>
     </g>
     <g id="text_10">
      <!-- 0.4 -->
      <g style="fill: #262626" transform="translate(46.663844 161.04983) scale(0.165 -0.165)">
       <use xlink:href="#DejaVuSans-30"/>
       <use xlink:href="#DejaVuSans-2e" transform="translate(63.623047 0)"/>
       <use xlink:href="#DejaVuSans-34" transform="translate(95.410156 0)"/>
      </g>
     </g>
    </g>
    <g id="ytick_4">
     <g id="line2d_10">
      <g>
       <use xlink:href="#m9f00dab507" x="85.404" y="100.088496" style="fill: #262626; stroke: #262626; stroke-width: 1.875"/>
      </g>
     </g>
     <g id="text_11">
      <!-- 0.6 -->
      <g style="fill: #262626" transform="translate(46.663844 106.357207) scale(0.165 -0.165)">
       <use xlink:href="#DejaVuSans-30"/>
       <use xlink:href="#DejaVuSans-2e" transform="translate(63.623047 0)"/>
       <use xlink:href="#DejaVuSans-36" transform="translate(95.410156 0)"/>
      </g>
     </g>
    </g>
    <g id="ytick_5">
     <g id="line2d_11">
      <g>
       <use xlink:href="#m9f00dab507" x="85.404" y="45.395874" style="fill: #262626; stroke: #262626; stroke-width: 1.875"/>
      </g>
     </g>
     <g id="text_12">
      <!-- 0.8 -->
      <g style="fill: #262626" transform="translate(46.663844 51.664585) scale(0.165 -0.165)">
       <use xlink:href="#DejaVuSans-30"/>
       <use xlink:href="#DejaVuSans-2e" transform="translate(63.623047 0)"/>
       <use xlink:href="#DejaVuSans-38" transform="translate(95.410156 0)"/>
      </g>
     </g>
    </g>
    <g id="text_13">
     <!-- Mean Morris Sensitivity, $µ^*$ -->
     <g style="fill: #262626" transform="translate(38.883844 270.3) rotate(-90) scale(0.18 -0.18)">
      <defs>
       <path id="DejaVuSans-4d" d="M 628 4666 
L 1569 4666 
L 2759 1491 
L 3956 4666 
L 4897 4666 
L 4897 0 
L 4281 0 
L 4281 4097 
L 3078 897 
L 2444 897 
L 1241 4097 
L 1241 0 
L 628 0 
L 628 4666 
z
" transform="scale(0.015625)"/>
       <path id="DejaVuSans-61" d="M 2194 1759 
Q 1497 1759 1228 1600 
Q 959 1441 959 1056 
Q 959 750 1161 570 
Q 1363 391 1709 391 
Q 2188 391 2477 730 
Q 2766 1069 2766 1631 
L 2766 1759 
L 2194 1759 
z
M 3341 1997 
L 3341 0 
L 2766 0 
L 2766 531 
Q 2569 213 2275 61 
Q 1981 -91 1556 -91 
Q 1019 -91 701 211 
Q 384 513 384 1019 
Q 384 1609 779 1909 
Q 1175 2209 1959 2209 
L 2766 2209 
L 2766 2266 
Q 2766 2663 2505 2880 
Q 2244 3097 1772 3097 
Q 1472 3097 1187 3025 
Q 903 2953 641 2809 
L 641 3341 
Q 956 3463 1253 3523 
Q 1550 3584 1831 3584 
Q 2591 3584 2966 3190 
Q 3341 2797 3341 1997 
z
" transform="scale(0.015625)"/>
       <path id="DejaVuSans-6e" d="M 3513 2113 
L 3513 0 
L 2938 0 
L 2938 2094 
Q 2938 2591 2744 2837 
Q 2550 3084 2163 3084 
Q 1697 3084 1428 2787 
Q 1159 2491 1159 1978 
L 1159 0 
L 581 0 
L 581 3500 
L 1159 3500 
L 1159 2956 
Q 1366 3272 1645 3428 
Q 1925 3584 2291 3584 
Q 2894 3584 3203 3211 
Q 3513 2838 3513 2113 
z
" transform="scale(0.015625)"/>
       <path id="DejaVuSans-6f" d="M 1959 3097 
Q 1497 3097 1228 2736 
Q 959 2375 959 1747 
Q 959 1119 1226 758 
Q 1494 397 1959 397 
Q 2419 397 2687 759 
Q 2956 1122 2956 1747 
Q 2956 2369 2687 2733 
Q 2419 3097 1959 3097 
z
M 1959 3584 
Q 2709 3584 3137 3096 
Q 3566 2609 3566 1747 
Q 3566 888 3137 398 
Q 2709 -91 1959 -91 
Q 1206 -91 779 398 
Q 353 888 353 1747 
Q 353 2609 779 3096 
Q 1206 3584 1959 3584 
z
" transform="scale(0.015625)"/>
       <path id="DejaVuSans-73" d="M 2834 3397 
L 2834 2853 
Q 2591 2978 2328 3040 
Q 2066 3103 1784 3103 
Q 1356 3103 1142 2972 
Q 928 2841 928 2578 
Q 928 2378 1081 2264 
Q 1234 2150 1697 2047 
L 1894 2003 
Q 2506 1872 2764 1633 
Q 3022 1394 3022 966 
Q 3022 478 2636 193 
Q 2250 -91 1575 -91 
Q 1294 -91 989 -36 
Q 684 19 347 128 
L 347 722 
Q 666 556 975 473 
Q 1284 391 1588 391 
Q 1994 391 2212 530 
Q 2431 669 2431 922 
Q 2431 1156 2273 1281 
Q 2116 1406 1581 1522 
L 1381 1569 
Q 847 1681 609 1914 
Q 372 2147 372 2553 
Q 372 3047 722 3315 
Q 1072 3584 1716 3584 
Q 2034 3584 2315 3537 
Q 2597 3491 2834 3397 
z
" transform="scale(0.015625)"/>
       <path id="DejaVuSans-53" d="M 3425 4513 
L 3425 3897 
Q 3066 4069 2747 4153 
Q 2428 4238 2131 4238 
Q 1616 4238 1336 4038 
Q 1056 3838 1056 3469 
Q 1056 3159 1242 3001 
Q 1428 2844 1947 2747 
L 2328 2669 
Q 3034 2534 3370 2195 
Q 3706 1856 3706 1288 
Q 3706 609 3251 259 
Q 2797 -91 1919 -91 
Q 1588 -91 1214 -16 
Q 841 59 441 206 
L 441 856 
Q 825 641 1194 531 
Q 1563 422 1919 422 
Q 2459 422 2753 634 
Q 3047 847 3047 1241 
Q 3047 1584 2836 1778 
Q 2625 1972 2144 2069 
L 1759 2144 
Q 1053 2284 737 2584 
Q 422 2884 422 3419 
Q 422 4038 858 4394 
Q 1294 4750 2059 4750 
Q 2388 4750 2728 4690 
Q 3069 4631 3425 4513 
z
" transform="scale(0.015625)"/>
       <path id="DejaVuSans-74" d="M 1172 4494 
L 1172 3500 
L 2356 3500 
L 2356 3053 
L 1172 3053 
L 1172 1153 
Q 1172 725 1289 603 
Q 1406 481 1766 481 
L 2356 481 
L 2356 0 
L 1766 0 
Q 1100 0 847 248 
Q 594 497 594 1153 
L 594 3053 
L 172 3053 
L 172 3500 
L 594 3500 
L 594 4494 
L 1172 4494 
z
" transform="scale(0.015625)"/>
       <path id="DejaVuSans-76" d="M 191 3500 
L 800 3500 
L 1894 563 
L 2988 3500 
L 3597 3500 
L 2284 0 
L 1503 0 
L 191 3500 
z
" transform="scale(0.015625)"/>
       <path id="DejaVuSans-79" d="M 2059 -325 
Q 1816 -950 1584 -1140 
Q 1353 -1331 966 -1331 
L 506 -1331 
L 506 -850 
L 844 -850 
Q 1081 -850 1212 -737 
Q 1344 -625 1503 -206 
L 1606 56 
L 191 3500 
L 800 3500 
L 1894 763 
L 2988 3500 
L 3597 3500 
L 2059 -325 
z
" transform="scale(0.015625)"/>
       <path id="DejaVuSans-2c" d="M 750 794 
L 1409 794 
L 1409 256 
L 897 -744 
L 494 -744 
L 750 256 
L 750 794 
z
" transform="scale(0.015625)"/>
       <path id="DejaVuSans-Oblique-b5" d="M -84 -1331 
L 856 3500 
L 1434 3500 
L 1009 1322 
Q 997 1256 987 1175 
Q 978 1094 978 1013 
Q 978 722 1161 565 
Q 1344 409 1684 409 
Q 2147 409 2431 671 
Q 2716 934 2816 1459 
L 3213 3500 
L 3788 3500 
L 3266 809 
Q 3253 750 3248 706 
Q 3244 663 3244 628 
Q 3244 531 3283 486 
Q 3322 441 3406 441 
Q 3438 441 3492 456 
Q 3547 472 3647 513 
L 3559 50 
Q 3422 -19 3297 -55 
Q 3172 -91 3053 -91 
Q 2847 -91 2730 40 
Q 2613 172 2613 403 
Q 2438 153 2195 31 
Q 1953 -91 1625 -91 
Q 1334 -91 1117 43 
Q 900 178 831 397 
L 494 -1331 
L -84 -1331 
z
" transform="scale(0.015625)"/>
       <path id="DejaVuSans-2a" d="M 3009 3897 
L 1888 3291 
L 3009 2681 
L 2828 2375 
L 1778 3009 
L 1778 1831 
L 1422 1831 
L 1422 3009 
L 372 2375 
L 191 2681 
L 1313 3291 
L 191 3897 
L 372 4206 
L 1422 3572 
L 1422 4750 
L 1778 4750 
L 1778 3572 
L 2828 4206 
L 3009 3897 
z
" transform="scale(0.015625)"/>
      </defs>
      <use xlink:href="#DejaVuSans-4d" transform="translate(0 0.765625)"/>
      <use xlink:href="#DejaVuSans-65" transform="translate(86.279297 0.765625)"/>
      <use xlink:href="#DejaVuSans-61" transform="translate(147.802734 0.765625)"/>
      <use xlink:href="#DejaVuSans-6e" transform="translate(209.082031 0.765625)"/>
      <use xlink:href="#DejaVuSans-20" transform="translate(272.460938 0.765625)"/>
      <use xlink:href="#DejaVuSans-4d" transform="translate(304.248047 0.765625)"/>
      <use xlink:href="#DejaVuSans-6f" transform="translate(390.527344 0.765625)"/>
      <use xlink:href="#DejaVuSans-72" transform="translate(451.708984 0.765625)"/>
      <use xlink:href="#DejaVuSans-72" transform="translate(492.822266 0.765625)"/>
      <use xlink:href="#DejaVuSans-69" transform="translate(533.935547 0.765625)"/>
      <use xlink:href="#DejaVuSans-73" transform="translate(561.71875 0.765625)"/>
      <use xlink:href="#DejaVuSans-20" transform="translate(613.818359 0.765625)"/>
      <use xlink:href="#DejaVuSans-53" transform="translate(645.605469 0.765625)"/>
      <use xlink:href="#DejaVuSans-65" transform="translate(709.082031 0.765625)"/>
      <use xlink:href="#DejaVuSans-6e" transform="translate(770.605469 0.765625)"/>
      <use xlink:href="#DejaVuSans-73" transform="translate(833.984375 0.765625)"/>
      <use xlink:href="#DejaVuSans-69" transform="translate(886.083984 0.765625)"/>
      <use xlink:href="#DejaVuSans-74" transform="translate(913.867188 0.765625)"/>
      <use xlink:href="#DejaVuSans-69" transform="translate(953.076172 0.765625)"/>
      <use xlink:href="#DejaVuSans-76" transform="translate(980.859375 0.765625)"/>
      <use xlink:href="#DejaVuSans-69" transform="translate(1040.039062 0.765625)"/>
      <use xlink:href="#DejaVuSans-74" transform="translate(1067.822266 0.765625)"/>
      <use xlink:href="#DejaVuSans-79" transform="translate(1107.03125 0.765625)"/>
      <use xlink:href="#DejaVuSans-2c" transform="translate(1166.210938 0.765625)"/>
      <use xlink:href="#DejaVuSans-20" transform="translate(1197.998047 0.765625)"/>
      <use xlink:href="#DejaVuSans-Oblique-b5" transform="translate(1229.785156 0.765625)"/>
      <use xlink:href="#DejaVuSans-2a" transform="translate(1311.512044 39.046875) scale(0.7)"/>
     </g>
    </g>
   </g>
   <g id="FillBetweenPolyCollection_1">
    <defs>
     <path id="m51f542aaa3" d="M 100.99293 -81.433636 
L 100.99293 -81.433636 
L 104.240623 -83.956199 
L 107.488317 -86.769116 
L 110.736011 -88.254733 
L 113.983705 -89.595955 
L 117.231398 -90.204801 
L 120.479092 -90.997848 
L 123.726786 -91.678496 
L 126.974479 -92.515759 
L 130.222173 -92.973745 
L 133.469867 -93.350806 
L 136.71756 -94.141536 
L 139.965254 -94.341306 
L 143.212948 -95.186399 
L 146.460642 -95.459191 
L 149.708335 -96.24701 
L 152.956029 -96.180362 
L 156.203723 -97.498104 
L 159.451416 -98.515593 
L 162.69911 -98.550211 
L 165.946804 -99.245399 
L 169.194497 -99.749257 
L 172.442191 -100.354352 
L 175.689885 -100.794344 
L 178.937579 -101.397936 
L 182.185272 -102.069712 
L 185.432966 -102.471262 
L 188.68066 -102.552931 
L 191.928353 -103.319555 
L 195.176047 -104.69164 
L 198.423741 -105.055207 
L 201.671434 -105.946388 
L 204.919128 -105.817099 
L 208.166822 -106.228813 
L 211.414515 -107.026659 
L 214.662209 -108.03987 
L 217.909903 -108.156086 
L 221.157597 -108.253925 
L 224.40529 -108.460141 
L 227.652984 -109.407287 
L 230.900678 -109.485243 
L 234.148371 -109.689719 
L 237.396065 -110.975653 
L 240.643759 -110.829506 
L 243.891452 -110.823445 
L 247.139146 -111.707827 
L 250.38684 -112.747403 
L 253.634534 -112.690502 
L 256.882227 -113.355152 
L 260.129921 -114.923136 
L 263.377615 -126.126065 
L 266.625308 -146.166034 
L 269.873002 -164.394451 
L 273.120696 -177.932885 
L 276.368389 -188.766385 
L 279.616083 -199.586006 
L 282.863777 -207.936899 
L 286.111471 -214.589648 
L 289.359164 -221.728806 
L 292.606858 -227.952194 
L 295.854552 -234.133888 
L 299.102245 -239.327093 
L 302.349939 -244.843701 
L 305.597633 -248.561907 
L 308.845326 -253.862405 
L 312.09302 -258.064324 
L 315.340714 -261.415133 
L 318.588408 -265.810377 
L 321.836101 -268.608158 
L 325.083795 -271.053939 
L 328.331489 -274.3297 
L 331.579182 -277.480147 
L 334.826876 -279.706832 
L 338.07457 -280.116408 
L 341.322263 -283.464485 
L 344.569957 -284.753826 
L 347.817651 -287.293197 
L 351.065345 -288.393289 
L 354.313038 -289.013063 
L 357.560732 -289.025395 
L 360.808426 -292.01693 
L 364.056119 -290.333431 
L 367.303813 -292.524714 
L 370.551507 -291.182658 
L 373.7992 -293.568863 
L 377.046894 -293.28167 
L 380.294588 -292.27033 
L 383.542282 -292.207421 
L 386.789975 -291.310822 
L 390.037669 -291.69982 
L 393.285363 -292.437789 
L 396.533056 -290.441261 
L 399.78075 -290.311286 
L 403.028444 -289.278877 
L 406.276137 -287.050126 
L 409.523831 -287.23731 
L 412.771525 -287.475395 
L 412.771525 -310.031534 
L 412.771525 -310.031534 
L 409.523831 -311.600765 
L 406.276137 -313.037085 
L 403.028444 -311.967919 
L 399.78075 -311.997368 
L 396.533056 -312.822621 
L 393.285363 -311.664979 
L 390.037669 -313.114874 
L 386.789975 -314.077224 
L 383.542282 -313.602697 
L 380.294588 -313.796703 
L 377.046894 -312.861994 
L 373.7992 -312.454719 
L 370.551507 -314.506364 
L 367.303813 -312.59617 
L 364.056119 -313.965335 
L 360.808426 -311.184113 
L 357.560732 -312.779594 
L 354.313038 -311.073862 
L 351.065345 -309.629146 
L 347.817651 -308.293399 
L 344.569957 -308.000451 
L 341.322263 -306.036015 
L 338.07457 -305.684518 
L 334.826876 -301.925648 
L 331.579182 -299.493965 
L 328.331489 -297.477921 
L 325.083795 -295.064374 
L 321.836101 -291.287092 
L 318.588408 -287.320414 
L 315.340714 -284.404225 
L 312.09302 -279.891098 
L 308.845326 -275.66834 
L 305.597633 -271.968745 
L 302.349939 -266.0851 
L 299.102245 -261.352378 
L 295.854552 -255.572412 
L 292.606858 -249.934552 
L 289.359164 -243.304788 
L 286.111471 -236.291297 
L 282.863777 -227.158772 
L 279.616083 -217.759361 
L 276.368389 -208.595297 
L 273.120696 -196.65945 
L 269.873002 -182.3844 
L 266.625308 -163.000645 
L 263.377615 -140.005867 
L 260.129921 -125.839826 
L 256.882227 -123.478686 
L 253.634534 -123.33782 
L 250.38684 -122.452959 
L 247.139146 -122.641632 
L 243.891452 -122.651688 
L 240.643759 -121.747411 
L 237.396065 -120.67872 
L 234.148371 -121.017373 
L 230.900678 -120.249467 
L 227.652984 -119.329619 
L 224.40529 -119.253283 
L 221.157597 -118.410145 
L 217.909903 -117.432647 
L 214.662209 -116.447521 
L 211.414515 -116.333458 
L 208.166822 -115.978289 
L 204.919128 -115.211555 
L 201.671434 -113.878828 
L 198.423741 -113.542169 
L 195.176047 -112.654237 
L 191.928353 -112.752074 
L 188.68066 -112.22279 
L 185.432966 -110.988169 
L 182.185272 -110.054533 
L 178.937579 -109.37393 
L 175.689885 -108.609887 
L 172.442191 -107.66918 
L 169.194497 -106.882958 
L 165.946804 -105.987603 
L 162.69911 -105.278669 
L 159.451416 -103.907492 
L 156.203723 -103.520951 
L 152.956029 -103.44 
L 149.708335 -101.983583 
L 146.460642 -101.39399 
L 143.212948 -100.304771 
L 139.965254 -99.805551 
L 136.71756 -98.679726 
L 133.469867 -98.162464 
L 130.222173 -97.244442 
L 126.974479 -96.40934 
L 123.726786 -95.933376 
L 120.479092 -95.237328 
L 117.231398 -94.504987 
L 113.983705 -93.267995 
L 110.736011 -92.084422 
L 107.488317 -89.596168 
L 104.240623 -85.583698 
L 100.99293 -81.433636 
z
" style="stroke: #ffffff; stroke-opacity: 0.25; stroke-width: 1.5"/>
    </defs>
    <g clip-path="url(#pa68a96e890)">
     <use xlink:href="#m51f542aaa3" x="0" y="345.6" style="fill: #4c72b0; fill-opacity: 0.25; stroke: #ffffff; stroke-opacity: 0.25; stroke-width: 1.5"/>
    </g>
   </g>
   <g id="FillBetweenPolyCollection_2">
    <defs>
     <path id="m90258aeed1" d="M 100.99293 -81.433636 
L 100.99293 -81.433636 
L 104.240623 -86.610797 
L 107.488317 -92.398868 
L 110.736011 -95.698373 
L 113.983705 -97.671147 
L 117.231398 -99.028469 
L 120.479092 -100.998064 
L 123.726786 -102.130234 
L 126.974479 -102.803293 
L 130.222173 -104.233092 
L 133.469867 -105.914916 
L 136.71756 -107.104175 
L 139.965254 -107.602096 
L 143.212948 -108.745646 
L 146.460642 -109.293872 
L 149.708335 -111.296187 
L 152.956029 -112.410704 
L 156.203723 -113.030198 
L 159.451416 -114.67626 
L 162.69911 -115.304077 
L 165.946804 -116.984844 
L 169.194497 -118.124203 
L 172.442191 -119.44791 
L 175.689885 -119.997233 
L 178.937579 -121.621914 
L 182.185272 -122.544635 
L 185.432966 -122.887546 
L 188.68066 -124.477542 
L 191.928353 -125.067759 
L 195.176047 -127.17177 
L 198.423741 -126.626785 
L 201.671434 -128.940091 
L 204.919128 -128.887892 
L 208.166822 -131.293205 
L 211.414515 -131.849679 
L 214.662209 -131.270719 
L 217.909903 -133.320599 
L 221.157597 -132.521319 
L 224.40529 -134.336457 
L 227.652984 -136.486127 
L 230.900678 -136.154604 
L 234.148371 -136.723822 
L 237.396065 -138.163411 
L 240.643759 -138.686125 
L 243.891452 -138.974994 
L 247.139146 -141.311799 
L 250.38684 -141.474175 
L 253.634534 -141.164917 
L 256.882227 -140.832052 
L 260.129921 -145.287375 
L 263.377615 -160.466492 
L 266.625308 -192.455875 
L 269.873002 -213.652957 
L 273.120696 -220.821794 
L 276.368389 -220.872647 
L 279.616083 -221.908895 
L 282.863777 -219.520308 
L 286.111471 -217.389399 
L 289.359164 -214.689109 
L 292.606858 -211.91285 
L 295.854552 -210.898455 
L 299.102245 -208.864748 
L 302.349939 -207.424898 
L 305.597633 -205.943437 
L 308.845326 -203.531042 
L 312.09302 -201.033894 
L 315.340714 -199.481502 
L 318.588408 -199.660266 
L 321.836101 -197.505205 
L 325.083795 -195.703933 
L 328.331489 -195.489135 
L 331.579182 -193.629606 
L 334.826876 -191.912172 
L 338.07457 -191.780539 
L 341.322263 -189.469581 
L 344.569957 -189.318996 
L 347.817651 -188.265948 
L 351.065345 -188.058912 
L 354.313038 -187.179554 
L 357.560732 -186.54617 
L 360.808426 -185.839384 
L 364.056119 -185.126257 
L 367.303813 -185.212903 
L 370.551507 -185.1128 
L 373.7992 -184.494574 
L 377.046894 -184.666989 
L 380.294588 -184.274538 
L 383.542282 -184.404628 
L 386.789975 -185.207526 
L 390.037669 -183.936291 
L 393.285363 -184.567804 
L 396.533056 -185.742282 
L 399.78075 -184.673149 
L 403.028444 -185.643627 
L 406.276137 -185.266891 
L 409.523831 -185.184219 
L 412.771525 -185.724045 
L 412.771525 -203.143881 
L 412.771525 -203.143881 
L 409.523831 -203.164118 
L 406.276137 -202.588901 
L 403.028444 -201.752732 
L 399.78075 -202.303537 
L 396.533056 -200.861728 
L 393.285363 -201.718353 
L 390.037669 -202.095226 
L 386.789975 -200.641486 
L 383.542282 -201.343413 
L 380.294588 -201.463872 
L 377.046894 -201.163253 
L 373.7992 -201.539286 
L 370.551507 -201.246865 
L 367.303813 -201.605082 
L 364.056119 -202.292658 
L 360.808426 -202.332763 
L 357.560732 -202.540611 
L 354.313038 -202.991574 
L 351.065345 -203.373597 
L 347.817651 -204.61108 
L 344.569957 -205.190361 
L 341.322263 -206.862924 
L 338.07457 -206.567089 
L 334.826876 -208.641719 
L 331.579182 -209.318831 
L 328.331489 -210.037345 
L 325.083795 -212.577605 
L 321.836101 -213.700538 
L 318.588408 -214.62993 
L 315.340714 -218.043848 
L 312.09302 -219.867623 
L 308.845326 -220.87864 
L 305.597633 -222.099391 
L 302.349939 -224.373008 
L 299.102245 -226.813696 
L 295.854552 -228.799047 
L 292.606858 -231.967129 
L 289.359164 -233.572019 
L 286.111471 -235.482119 
L 282.863777 -238.158339 
L 279.616083 -240.48213 
L 276.368389 -244.91917 
L 273.120696 -243.189364 
L 269.873002 -235.05785 
L 266.625308 -212.877433 
L 263.377615 -184.577253 
L 260.129921 -162.843366 
L 256.882227 -161.19918 
L 253.634534 -159.50875 
L 250.38684 -157.797524 
L 247.139146 -156.512432 
L 243.891452 -157.355216 
L 240.643759 -156.102511 
L 237.396065 -155.035171 
L 234.148371 -154.835376 
L 230.900678 -153.715133 
L 227.652984 -151.64344 
L 224.40529 -152.001728 
L 221.157597 -151.973929 
L 217.909903 -149.279981 
L 214.662209 -149.383479 
L 211.414515 -146.806658 
L 208.166822 -145.314252 
L 204.919128 -145.620381 
L 201.671434 -143.419667 
L 198.423741 -143.536371 
L 195.176047 -140.748218 
L 191.928353 -140.56429 
L 188.68066 -138.823864 
L 185.432966 -138.042843 
L 182.185272 -135.976956 
L 178.937579 -134.455945 
L 175.689885 -133.605061 
L 172.442191 -131.65034 
L 169.194497 -130.445127 
L 165.946804 -129.034542 
L 162.69911 -128.148411 
L 159.451416 -126.196618 
L 156.203723 -125.254684 
L 152.956029 -123.28205 
L 149.708335 -121.804274 
L 146.460642 -121.217473 
L 143.212948 -119.182003 
L 139.965254 -117.747739 
L 136.71756 -115.671402 
L 133.469867 -114.283297 
L 130.222173 -113.37114 
L 126.974479 -112.165495 
L 123.726786 -110.116786 
L 120.479092 -108.357757 
L 117.231398 -107.105063 
L 113.983705 -104.577837 
L 110.736011 -101.29911 
L 107.488317 -96.479187 
L 104.240623 -88.797955 
L 100.99293 -81.433636 
z
" style="stroke: #ffffff; stroke-opacity: 0.25; stroke-width: 1.5"/>
    </defs>
    <g clip-path="url(#pa68a96e890)">
     <use xlink:href="#m90258aeed1" x="0" y="345.6" style="fill: #dd8452; fill-opacity: 0.25; stroke: #ffffff; stroke-opacity: 0.25; stroke-width: 1.5"/>
    </g>
   </g>
   <g id="FillBetweenPolyCollection_3">
    <defs>
     <path id="m8b0e3f8ad2" d="M 100.99293 -81.433636 
L 100.99293 -81.433636 
L 104.240623 -81.497542 
L 107.488317 -81.672302 
L 110.736011 -81.886633 
L 113.983705 -82.113952 
L 117.231398 -82.363036 
L 120.479092 -82.67256 
L 123.726786 -82.912051 
L 126.974479 -83.204801 
L 130.222173 -83.539605 
L 133.469867 -83.976556 
L 136.71756 -84.300635 
L 139.965254 -84.727538 
L 143.212948 -85.244413 
L 146.460642 -85.648592 
L 149.708335 -86.157077 
L 152.956029 -86.853046 
L 156.203723 -87.394504 
L 159.451416 -87.719843 
L 162.69911 -88.590113 
L 165.946804 -89.295128 
L 169.194497 -89.807271 
L 172.442191 -90.500881 
L 175.689885 -91.202777 
L 178.937579 -91.4628 
L 182.185272 -92.554696 
L 185.432966 -93.277206 
L 188.68066 -94.168427 
L 191.928353 -94.899339 
L 195.176047 -95.355336 
L 198.423741 -96.516684 
L 201.671434 -97.069087 
L 204.919128 -97.940991 
L 208.166822 -99.069138 
L 211.414515 -99.6963 
L 214.662209 -100.298355 
L 217.909903 -100.941624 
L 221.157597 -102.091297 
L 224.40529 -103.126165 
L 227.652984 -103.014153 
L 230.900678 -104.544451 
L 234.148371 -105.273957 
L 237.396065 -106.325671 
L 240.643759 -106.571098 
L 243.891452 -108.027409 
L 247.139146 -108.623159 
L 250.38684 -108.976673 
L 253.634534 -109.945396 
L 256.882227 -110.791419 
L 260.129921 -112.090189 
L 263.377615 -113.250282 
L 266.625308 -112.814034 
L 269.873002 -110.469 
L 273.120696 -108.336503 
L 276.368389 -107.451444 
L 279.616083 -107.270858 
L 282.863777 -108.404804 
L 286.111471 -109.317259 
L 289.359164 -110.637529 
L 292.606858 -112.20204 
L 295.854552 -113.806681 
L 299.102245 -115.564887 
L 302.349939 -116.845313 
L 305.597633 -119.039328 
L 308.845326 -120.769494 
L 312.09302 -122.92204 
L 315.340714 -124.518644 
L 318.588408 -126.348071 
L 321.836101 -128.184075 
L 325.083795 -129.12977 
L 328.331489 -130.862707 
L 331.579182 -131.829189 
L 334.826876 -133.49413 
L 338.07457 -135.846349 
L 341.322263 -136.747949 
L 344.569957 -138.659962 
L 347.817651 -140.338901 
L 351.065345 -142.268532 
L 354.313038 -143.822659 
L 357.560732 -146.240924 
L 360.808426 -147.441272 
L 364.056119 -149.297676 
L 367.303813 -151.574408 
L 370.551507 -153.683346 
L 373.7992 -155.593991 
L 377.046894 -158.150422 
L 380.294588 -159.611539 
L 383.542282 -162.268781 
L 386.789975 -164.299423 
L 390.037669 -166.758819 
L 393.285363 -168.992382 
L 396.533056 -172.2247 
L 399.78075 -174.295054 
L 403.028444 -177.029808 
L 406.276137 -179.839988 
L 409.523831 -181.126333 
L 412.771525 -183.6159 
L 412.771525 -200.695382 
L 412.771525 -200.695382 
L 409.523831 -198.116348 
L 406.276137 -194.320212 
L 403.028444 -192.045 
L 399.78075 -189.702667 
L 396.533056 -186.715581 
L 393.285363 -184.921453 
L 390.037669 -182.170774 
L 386.789975 -179.699052 
L 383.542282 -176.86216 
L 380.294588 -174.725286 
L 377.046894 -171.474724 
L 373.7992 -169.40994 
L 370.551507 -166.796688 
L 367.303813 -164.484539 
L 364.056119 -162.446955 
L 360.808426 -160.098064 
L 357.560732 -157.202515 
L 354.313038 -155.63261 
L 351.065345 -153.302429 
L 347.817651 -151.445417 
L 344.569957 -149.42673 
L 341.322263 -147.718992 
L 338.07457 -145.065093 
L 334.826876 -143.910127 
L 331.579182 -142.098241 
L 328.331489 -139.598792 
L 325.083795 -137.856437 
L 321.836101 -135.297353 
L 318.588408 -133.580242 
L 315.340714 -131.792062 
L 312.09302 -129.694888 
L 308.845326 -128.072592 
L 305.597633 -125.951787 
L 302.349939 -124.237501 
L 299.102245 -121.590322 
L 295.854552 -119.466079 
L 292.606858 -117.334066 
L 289.359164 -115.457669 
L 286.111471 -113.849224 
L 282.863777 -112.648515 
L 279.616083 -112.888958 
L 276.368389 -113.467774 
L 273.120696 -115.180642 
L 269.873002 -117.765351 
L 266.625308 -121.553801 
L 263.377615 -122.898339 
L 260.129921 -121.236394 
L 256.882227 -120.218846 
L 253.634534 -119.326397 
L 250.38684 -118.539526 
L 247.139146 -117.12133 
L 243.891452 -115.930344 
L 240.643759 -115.586066 
L 237.396065 -114.018313 
L 234.148371 -113.245617 
L 230.900678 -112.140944 
L 227.652984 -111.828862 
L 224.40529 -109.867947 
L 221.157597 -109.049183 
L 217.909903 -108.342407 
L 214.662209 -107.128443 
L 211.414515 -105.874636 
L 208.166822 -104.649589 
L 204.919128 -103.931584 
L 201.671434 -102.965924 
L 198.423741 -101.692006 
L 195.176047 -101.041057 
L 191.928353 -99.701681 
L 188.68066 -98.657163 
L 185.432966 -97.796036 
L 182.185272 -96.792525 
L 178.937579 -96.188071 
L 175.689885 -94.784853 
L 172.442191 -93.860121 
L 169.194497 -92.967273 
L 165.946804 -91.936694 
L 162.69911 -91.146264 
L 159.451416 -90.571825 
L 156.203723 -89.506499 
L 152.956029 -88.714436 
L 149.708335 -88.136829 
L 146.460642 -87.434119 
L 143.212948 -86.691479 
L 139.965254 -86.1274 
L 136.71756 -85.540139 
L 133.469867 -84.917149 
L 130.222173 -84.473739 
L 126.974479 -83.993721 
L 123.726786 -83.535069 
L 120.479092 -83.08322 
L 117.231398 -82.756433 
L 113.983705 -82.417017 
L 110.736011 -82.09467 
L 107.488317 -81.794046 
L 104.240623 -81.529724 
L 100.99293 -81.433636 
z
" style="stroke: #ffffff; stroke-opacity: 0.25; stroke-width: 1.5"/>
    </defs>
    <g clip-path="url(#pa68a96e890)">
     <use xlink:href="#m8b0e3f8ad2" x="0" y="345.6" style="fill: #55a868; fill-opacity: 0.25; stroke: #ffffff; stroke-opacity: 0.25; stroke-width: 1.5"/>
    </g>
   </g>
   <g id="FillBetweenPolyCollection_4">
    <defs>
     <path id="mf846f7837c" d="M 100.99293 -81.433636 
L 100.99293 -81.433636 
L 104.240623 -81.433636 
L 107.488317 -81.433636 
L 110.736011 -81.433636 
L 113.983705 -81.433636 
L 117.231398 -81.433636 
L 120.479092 -81.433636 
L 123.726786 -81.433636 
L 126.974479 -81.433636 
L 130.222173 -81.433636 
L 133.469867 -81.433636 
L 136.71756 -81.433636 
L 139.965254 -81.433636 
L 143.212948 -81.433636 
L 146.460642 -81.433636 
L 149.708335 -81.433636 
L 152.956029 -81.433636 
L 156.203723 -81.433636 
L 159.451416 -81.433636 
L 162.69911 -81.433636 
L 165.946804 -81.433636 
L 169.194497 -81.433636 
L 172.442191 -81.433636 
L 175.689885 -81.433636 
L 178.937579 -81.433636 
L 182.185272 -81.433636 
L 185.432966 -81.433636 
L 188.68066 -81.433636 
L 191.928353 -81.433636 
L 195.176047 -81.433636 
L 198.423741 -81.433636 
L 201.671434 -81.433636 
L 204.919128 -81.433636 
L 208.166822 -81.433636 
L 211.414515 -81.433636 
L 214.662209 -81.433636 
L 217.909903 -81.433636 
L 221.157597 -81.433636 
L 224.40529 -81.433636 
L 227.652984 -81.433636 
L 230.900678 -81.433636 
L 234.148371 -81.433636 
L 237.396065 -81.433636 
L 240.643759 -81.433636 
L 243.891452 -81.433636 
L 247.139146 -81.433636 
L 250.38684 -81.433636 
L 253.634534 -81.433636 
L 256.882227 -81.433636 
L 260.129921 -83.725117 
L 263.377615 -103.679383 
L 266.625308 -143.987859 
L 269.873002 -177.849553 
L 273.120696 -194.751103 
L 276.368389 -201.769402 
L 279.616083 -206.44819 
L 282.863777 -205.089008 
L 286.111471 -205.334747 
L 289.359164 -205.554586 
L 292.606858 -203.54465 
L 295.854552 -202.273442 
L 299.102245 -201.25182 
L 302.349939 -199.958431 
L 305.597633 -197.913566 
L 308.845326 -195.487277 
L 312.09302 -194.609521 
L 315.340714 -192.701398 
L 318.588408 -191.438415 
L 321.836101 -189.862457 
L 325.083795 -187.482154 
L 328.331489 -187.329643 
L 331.579182 -185.27287 
L 334.826876 -185.787487 
L 338.07457 -183.692026 
L 341.322263 -182.228033 
L 344.569957 -180.832921 
L 347.817651 -180.995527 
L 351.065345 -179.536611 
L 354.313038 -179.749667 
L 357.560732 -178.180891 
L 360.808426 -177.164472 
L 364.056119 -176.023919 
L 367.303813 -177.036251 
L 370.551507 -175.580276 
L 373.7992 -174.891593 
L 377.046894 -174.162793 
L 380.294588 -174.004388 
L 383.542282 -173.578663 
L 386.789975 -173.778882 
L 390.037669 -173.260186 
L 393.285363 -173.192513 
L 396.533056 -173.100115 
L 399.78075 -171.160712 
L 403.028444 -170.717506 
L 406.276137 -170.62581 
L 409.523831 -169.735805 
L 412.771525 -170.248522 
L 412.771525 -186.438738 
L 412.771525 -186.438738 
L 409.523831 -187.811926 
L 406.276137 -187.765163 
L 403.028444 -188.501875 
L 399.78075 -188.875444 
L 396.533056 -187.74526 
L 393.285363 -188.459536 
L 390.037669 -189.201975 
L 386.789975 -189.503795 
L 383.542282 -190.542878 
L 380.294588 -190.983239 
L 377.046894 -191.727872 
L 373.7992 -191.949535 
L 370.551507 -192.26981 
L 367.303813 -191.89277 
L 364.056119 -194.065685 
L 360.808426 -194.178987 
L 357.560732 -194.520979 
L 354.313038 -194.425808 
L 351.065345 -196.237321 
L 347.817651 -196.510033 
L 344.569957 -198.544063 
L 341.322263 -199.164768 
L 338.07457 -199.8633 
L 334.826876 -200.07697 
L 331.579182 -203.044837 
L 328.331489 -203.580713 
L 325.083795 -206.15347 
L 321.836101 -206.622221 
L 318.588408 -208.007859 
L 315.340714 -209.804627 
L 312.09302 -211.035873 
L 308.845326 -213.353382 
L 305.597633 -214.148383 
L 302.349939 -215.313749 
L 299.102245 -217.173311 
L 295.854552 -219.187577 
L 292.606858 -220.751342 
L 289.359164 -221.242903 
L 286.111471 -223.391502 
L 282.863777 -224.508965 
L 279.616083 -221.899232 
L 276.368389 -220.73332 
L 273.120696 -211.883256 
L 269.873002 -192.893275 
L 266.625308 -157.764183 
L 263.377615 -111.540809 
L 260.129921 -84.683557 
L 256.882227 -81.433636 
L 253.634534 -81.433636 
L 250.38684 -81.433636 
L 247.139146 -81.433636 
L 243.891452 -81.433636 
L 240.643759 -81.433636 
L 237.396065 -81.433636 
L 234.148371 -81.433636 
L 230.900678 -81.433636 
L 227.652984 -81.433636 
L 224.40529 -81.433636 
L 221.157597 -81.433636 
L 217.909903 -81.433636 
L 214.662209 -81.433636 
L 211.414515 -81.433636 
L 208.166822 -81.433636 
L 204.919128 -81.433636 
L 201.671434 -81.433636 
L 198.423741 -81.433636 
L 195.176047 -81.433636 
L 191.928353 -81.433636 
L 188.68066 -81.433636 
L 185.432966 -81.433636 
L 182.185272 -81.433636 
L 178.937579 -81.433636 
L 175.689885 -81.433636 
L 172.442191 -81.433636 
L 169.194497 -81.433636 
L 165.946804 -81.433636 
L 162.69911 -81.433636 
L 159.451416 -81.433636 
L 156.203723 -81.433636 
L 152.956029 -81.433636 
L 149.708335 -81.433636 
L 146.460642 -81.433636 
L 143.212948 -81.433636 
L 139.965254 -81.433636 
L 136.71756 -81.433636 
L 133.469867 -81.433636 
L 130.222173 -81.433636 
L 126.974479 -81.433636 
L 123.726786 -81.433636 
L 120.479092 -81.433636 
L 117.231398 -81.433636 
L 113.983705 -81.433636 
L 110.736011 -81.433636 
L 107.488317 -81.433636 
L 104.240623 -81.433636 
L 100.99293 -81.433636 
z
" style="stroke: #ffffff; stroke-opacity: 0.25; stroke-width: 1.5"/>
    </defs>
    <g clip-path="url(#pa68a96e890)">
     <use xlink:href="#mf846f7837c" x="0" y="345.6" style="fill: #c44e52; fill-opacity: 0.25; stroke: #ffffff; stroke-opacity: 0.25; stroke-width: 1.5"/>
    </g>
   </g>
   <g id="FillBetweenPolyCollection_5">
    <defs>
     <path id="meebbb06d1b" d="M 100.99293 -81.433636 
L 100.99293 -81.433636 
L 104.240623 -81.433636 
L 107.488317 -81.433636 
L 110.736011 -81.433636 
L 113.983705 -81.433636 
L 117.231398 -81.433636 
L 120.479092 -81.433636 
L 123.726786 -81.433636 
L 126.974479 -81.433636 
L 130.222173 -81.433636 
L 133.469867 -81.433636 
L 136.71756 -81.433636 
L 139.965254 -81.433636 
L 143.212948 -81.433636 
L 146.460642 -81.433636 
L 149.708335 -81.433636 
L 152.956029 -81.433636 
L 156.203723 -81.433636 
L 159.451416 -81.433636 
L 162.69911 -81.433636 
L 165.946804 -81.433636 
L 169.194497 -81.433636 
L 172.442191 -81.433636 
L 175.689885 -81.433636 
L 178.937579 -81.433636 
L 182.185272 -81.433636 
L 185.432966 -81.433636 
L 188.68066 -81.433636 
L 191.928353 -81.433636 
L 195.176047 -81.433636 
L 198.423741 -81.433636 
L 201.671434 -81.433636 
L 204.919128 -81.433636 
L 208.166822 -81.433636 
L 211.414515 -81.433636 
L 214.662209 -81.433636 
L 217.909903 -81.433636 
L 221.157597 -81.433636 
L 224.40529 -81.433636 
L 227.652984 -81.433636 
L 230.900678 -81.433636 
L 234.148371 -81.433636 
L 237.396065 -81.433636 
L 240.643759 -81.433636 
L 243.891452 -81.433636 
L 247.139146 -81.433636 
L 250.38684 -81.433636 
L 253.634534 -81.433636 
L 256.882227 -81.433636 
L 260.129921 -82.251874 
L 263.377615 -89.590897 
L 266.625308 -103.216887 
L 269.873002 -115.434067 
L 273.120696 -123.01518 
L 276.368389 -126.874257 
L 279.616083 -129.866609 
L 282.863777 -131.830614 
L 286.111471 -133.115574 
L 289.359164 -133.812805 
L 292.606858 -134.346148 
L 295.854552 -133.271925 
L 299.102245 -134.480301 
L 302.349939 -133.724391 
L 305.597633 -133.842304 
L 308.845326 -133.368628 
L 312.09302 -132.345357 
L 315.340714 -133.047802 
L 318.588408 -132.015211 
L 321.836101 -131.437774 
L 325.083795 -131.570492 
L 328.331489 -130.81942 
L 331.579182 -129.87091 
L 334.826876 -129.435437 
L 338.07457 -129.232707 
L 341.322263 -128.174924 
L 344.569957 -128.084164 
L 347.817651 -128.627448 
L 351.065345 -127.930867 
L 354.313038 -127.520663 
L 357.560732 -127.216537 
L 360.808426 -126.88212 
L 364.056119 -126.42505 
L 367.303813 -125.886601 
L 370.551507 -125.712055 
L 373.7992 -125.363927 
L 377.046894 -125.835894 
L 380.294588 -125.056398 
L 383.542282 -125.07841 
L 386.789975 -124.970511 
L 390.037669 -125.428103 
L 393.285363 -124.998748 
L 396.533056 -124.489208 
L 399.78075 -125.017797 
L 403.028444 -124.407091 
L 406.276137 -123.667311 
L 409.523831 -123.626439 
L 412.771525 -124.041278 
L 412.771525 -132.993647 
L 412.771525 -132.993647 
L 409.523831 -133.755609 
L 406.276137 -134.04971 
L 403.028444 -133.633982 
L 399.78075 -133.338012 
L 396.533056 -134.174025 
L 393.285363 -133.96703 
L 390.037669 -133.838209 
L 386.789975 -134.597633 
L 383.542282 -134.796606 
L 380.294588 -135.134669 
L 377.046894 -134.684906 
L 373.7992 -135.505091 
L 370.551507 -135.528696 
L 367.303813 -135.754566 
L 364.056119 -135.650411 
L 360.808426 -135.666616 
L 357.560732 -135.849324 
L 354.313038 -136.110666 
L 351.065345 -136.318206 
L 347.817651 -136.294828 
L 344.569957 -137.568993 
L 341.322263 -138.2678 
L 338.07457 -138.057815 
L 334.826876 -138.758919 
L 331.579182 -139.279121 
L 328.331489 -139.33167 
L 325.083795 -139.618034 
L 321.836101 -140.812665 
L 318.588408 -141.306331 
L 315.340714 -141.334666 
L 312.09302 -143.063459 
L 308.845326 -143.001238 
L 305.597633 -143.384531 
L 302.349939 -144.206007 
L 299.102245 -143.936639 
L 295.854552 -145.330898 
L 292.606858 -144.029723 
L 289.359164 -143.771276 
L 286.111471 -142.908921 
L 282.863777 -141.609416 
L 279.616083 -139.649211 
L 276.368389 -136.842915 
L 273.120696 -131.5976 
L 269.873002 -123.411421 
L 266.625308 -109.231565 
L 263.377615 -92.165358 
L 260.129921 -82.641624 
L 256.882227 -81.433636 
L 253.634534 -81.433636 
L 250.38684 -81.433636 
L 247.139146 -81.433636 
L 243.891452 -81.433636 
L 240.643759 -81.433636 
L 237.396065 -81.433636 
L 234.148371 -81.433636 
L 230.900678 -81.433636 
L 227.652984 -81.433636 
L 224.40529 -81.433636 
L 221.157597 -81.433636 
L 217.909903 -81.433636 
L 214.662209 -81.433636 
L 211.414515 -81.433636 
L 208.166822 -81.433636 
L 204.919128 -81.433636 
L 201.671434 -81.433636 
L 198.423741 -81.433636 
L 195.176047 -81.433636 
L 191.928353 -81.433636 
L 188.68066 -81.433636 
L 185.432966 -81.433636 
L 182.185272 -81.433636 
L 178.937579 -81.433636 
L 175.689885 -81.433636 
L 172.442191 -81.433636 
L 169.194497 -81.433636 
L 165.946804 -81.433636 
L 162.69911 -81.433636 
L 159.451416 -81.433636 
L 156.203723 -81.433636 
L 152.956029 -81.433636 
L 149.708335 -81.433636 
L 146.460642 -81.433636 
L 143.212948 -81.433636 
L 139.965254 -81.433636 
L 136.71756 -81.433636 
L 133.469867 -81.433636 
L 130.222173 -81.433636 
L 126.974479 -81.433636 
L 123.726786 -81.433636 
L 120.479092 -81.433636 
L 117.231398 -81.433636 
L 113.983705 -81.433636 
L 110.736011 -81.433636 
L 107.488317 -81.433636 
L 104.240623 -81.433636 
L 100.99293 -81.433636 
z
" style="stroke: #ffffff; stroke-opacity: 0.25; stroke-width: 1.5"/>
    </defs>
    <g clip-path="url(#pa68a96e890)">
     <use xlink:href="#meebbb06d1b" x="0" y="345.6" style="fill: #8172b3; fill-opacity: 0.25; stroke: #ffffff; stroke-opacity: 0.25; stroke-width: 1.5"/>
    </g>
   </g>
   <g id="line2d_12">
    <path d="M 100.99293 264.166364 
L 104.240623 260.830051 
L 107.488317 257.417358 
L 110.736011 255.430423 
L 113.983705 254.168025 
L 117.231398 253.245106 
L 120.479092 252.482412 
L 123.726786 251.794064 
L 126.974479 251.137451 
L 130.222173 250.490906 
L 133.469867 249.843365 
L 136.71756 249.189369 
L 139.965254 248.526571 
L 143.212948 247.854415 
L 146.460642 247.173409 
L 149.708335 246.484704 
L 152.956029 245.789819 
L 156.203723 245.090472 
L 159.451416 244.388457 
L 162.69911 243.68556 
L 165.946804 242.983499 
L 169.194497 242.283893 
L 172.442191 241.588234 
L 175.689885 240.897884 
L 178.937579 240.214067 
L 182.185272 239.537877 
L 185.432966 238.870284 
L 188.68066 238.21214 
L 191.928353 237.564185 
L 195.176047 236.927061 
L 198.423741 236.301312 
L 201.671434 235.687392 
L 204.919128 235.085673 
L 208.166822 234.496449 
L 211.414515 233.919941 
L 214.662209 233.356305 
L 217.909903 232.805633 
L 221.157597 232.267965 
L 224.40529 231.743288 
L 227.652984 231.231547 
L 230.900678 230.732645 
L 234.148371 230.246454 
L 237.396065 229.772813 
L 240.643759 229.311541 
L 243.891452 228.862434 
L 247.139146 228.42527 
L 250.38684 227.999819 
L 253.634534 227.585839 
L 256.882227 227.183081 
L 260.129921 225.218519 
L 263.377615 212.534034 
L 266.625308 191.016661 
L 269.873002 172.210575 
L 273.120696 158.303833 
L 276.368389 146.919159 
L 279.616083 136.927316 
L 282.863777 128.052165 
L 286.111471 120.159528 
L 289.359164 113.083203 
L 292.606858 106.656627 
L 295.854552 100.74685 
L 299.102245 95.260264 
L 302.349939 90.1356 
L 305.597633 85.334674 
L 308.845326 80.834628 
L 312.09302 76.622289 
L 315.340714 72.690321 
L 318.588408 69.034604 
L 321.836101 65.652375 
L 325.083795 62.540843 
L 328.331489 59.69619 
L 331.579182 57.112944 
L 334.826876 54.78376 
L 338.07457 52.699537 
L 341.322263 50.84975 
L 344.569957 49.222862 
L 347.817651 47.806702 
L 351.065345 46.588783 
L 354.313038 45.556538 
L 357.560732 44.697506 
L 360.808426 43.999478 
L 364.056119 43.450617 
L 367.303813 43.039558 
L 370.551507 42.755489 
L 373.7992 42.588209 
L 377.046894 42.528168 
L 380.294588 42.566484 
L 383.542282 42.694941 
L 386.789975 42.905977 
L 390.037669 43.192653 
L 393.285363 43.548616 
L 396.533056 43.968059 
L 399.78075 44.445673 
L 403.028444 44.976602 
L 406.276137 45.556395 
L 409.523831 46.180963 
L 412.771525 46.846536 
" clip-path="url(#pa68a96e890)" style="fill: none; stroke: #4c72b0; stroke-width: 2.25; stroke-linecap: round"/>
   </g>
   <g id="line2d_13">
    <path d="M 100.99293 264.166364 
L 104.240623 257.895624 
L 107.488317 251.160972 
L 110.736011 247.101259 
L 113.983705 244.475508 
L 117.231398 242.533234 
L 120.479092 240.92209 
L 123.726786 239.47649 
L 126.974479 238.115606 
L 130.222173 236.797884 
L 133.469867 235.500893 
L 136.71756 234.212212 
L 139.965254 232.925082 
L 143.212948 231.636175 
L 146.460642 230.344328 
L 149.708335 229.04977 
L 152.956029 227.753623 
L 156.203723 226.457559 
L 159.451416 225.163561 
L 162.69911 223.873756 
L 165.946804 222.590307 
L 169.194497 221.315335 
L 172.442191 220.050875 
L 175.689885 218.798853 
L 178.937579 217.56107 
L 182.185272 216.339204 
L 185.432966 215.134805 
L 188.68066 213.949297 
L 191.928353 212.783975 
L 195.176047 211.640006 
L 198.423741 210.518422 
L 201.671434 209.420121 
L 204.919128 208.345863 
L 208.166822 207.296271 
L 211.414515 206.271832 
L 214.662209 205.272901 
L 217.909903 204.29971 
L 221.157597 203.352376 
L 224.40529 202.430907 
L 227.652984 201.535217 
L 230.900678 200.665131 
L 234.148371 199.820401 
L 237.396065 199.000709 
L 240.643759 198.205682 
L 243.891452 197.434895 
L 247.139146 196.687884 
L 250.38684 195.96415 
L 253.634534 195.263166 
L 256.882227 194.584384 
L 260.129921 191.53463 
L 263.377615 173.078128 
L 266.625308 142.933346 
L 269.873002 121.244596 
L 273.120696 113.594421 
L 276.368389 112.704092 
L 279.616083 114.404487 
L 282.863777 116.760677 
L 286.111471 119.164241 
L 289.359164 121.469436 
L 292.606858 123.660011 
L 295.854552 125.751249 
L 299.102245 127.760778 
L 302.349939 129.701047 
L 305.597633 131.578586 
L 308.845326 133.395159 
L 312.09302 135.149241 
L 315.340714 136.837325 
L 318.588408 138.454902 
L 321.836101 139.997129 
L 325.083795 141.459231 
L 328.331489 142.83676 
L 331.579182 144.125781 
L 334.826876 145.323054 
L 338.07457 146.426186 
L 341.322263 147.433748 
L 344.569957 148.345322 
L 347.817651 149.161486 
L 351.065345 149.883746 
L 354.313038 150.514436 
L 357.560732 151.05661 
L 360.808426 151.513926 
L 364.056119 151.890542 
L 367.303813 152.191008 
L 370.551507 152.420167 
L 373.7992 152.58307 
L 377.046894 152.684879 
L 380.294588 152.730795 
L 383.542282 152.72598 
L 386.789975 152.675494 
L 390.037669 152.584241 
L 393.285363 152.456921 
L 396.533056 152.297995 
L 399.78075 152.111657 
L 403.028444 151.90182 
L 406.276137 151.672104 
L 409.523831 151.425832 
L 412.771525 151.166037 
" clip-path="url(#pa68a96e890)" style="fill: none; stroke: #dd8452; stroke-width: 2.25; stroke-linecap: round"/>
   </g>
   <g id="line2d_14">
    <path d="M 100.99293 264.166364 
L 104.240623 264.086367 
L 107.488317 263.866826 
L 110.736011 263.609349 
L 113.983705 263.334516 
L 117.231398 263.040265 
L 120.479092 262.72211 
L 123.726786 262.37644 
L 126.974479 262.000739 
L 130.222173 261.593328 
L 133.469867 261.153148 
L 136.71756 260.679613 
L 139.965254 260.172531 
L 143.212948 259.632054 
L 146.460642 259.058644 
L 149.708335 258.453047 
L 152.956029 257.816259 
L 156.203723 257.149498 
L 159.451416 256.454166 
L 162.69911 255.731811 
L 165.946804 254.984089 
L 169.194497 254.212728 
L 172.442191 253.419499 
L 175.689885 252.606185 
L 178.937579 251.774565 
L 182.185272 250.92639 
L 185.432966 250.063379 
L 188.68066 249.187205 
L 191.928353 248.29949 
L 195.176047 247.401803 
L 198.423741 246.495655 
L 201.671434 245.582495 
L 204.919128 244.663712 
L 208.166822 243.740636 
L 211.414515 242.814532 
L 214.662209 241.886601 
L 217.909903 240.957984 
L 221.157597 240.02976 
L 224.40529 239.102944 
L 227.652984 238.178493 
L 230.900678 237.257303 
L 234.148371 236.340213 
L 237.396065 235.428008 
L 240.643759 234.521418 
L 243.891452 233.621123 
L 247.139146 232.727755 
L 250.38684 231.841901 
L 253.634534 230.964104 
L 256.882227 230.094867 
L 260.129921 228.936709 
L 263.377615 227.525689 
L 266.625308 228.416082 
L 269.873002 231.482824 
L 273.120696 233.841427 
L 276.368389 235.140391 
L 279.616083 235.520092 
L 282.863777 235.073341 
L 286.111471 234.016759 
L 289.359164 232.552401 
L 292.606858 230.831947 
L 295.854552 228.96362 
L 299.102245 227.022396 
L 302.349939 225.058593 
L 305.597633 223.104442 
L 308.845326 221.178957 
L 312.09302 219.291536 
L 315.340714 217.444647 
L 318.588408 215.635844 
L 321.836101 213.859286 
L 325.083795 212.106896 
L 328.331489 210.369251 
L 331.579182 208.636285 
L 334.826876 206.897871 
L 338.07457 205.144279 
L 341.322263 203.36653 
L 344.569957 201.556654 
L 347.817651 199.707841 
L 351.065345 197.814519 
L 354.313038 195.872366 
L 357.560732 193.878281 
L 360.808426 191.830332 
L 364.056119 189.727685 
L 367.303813 187.570527 
L 370.551507 185.359983 
L 373.7992 183.098034 
L 377.046894 180.787427 
L 380.294588 178.431588 
L 383.542282 176.034529 
L 386.789975 173.600762 
L 390.037669 171.135203 
L 393.285363 168.643082 
L 396.533056 166.129859 
L 399.78075 163.601139 
L 403.028444 161.062596 
L 406.276137 158.5199 
L 409.523831 155.978659 
L 412.771525 153.444359 
" clip-path="url(#pa68a96e890)" style="fill: none; stroke: #55a868; stroke-width: 2.25; stroke-linecap: round"/>
   </g>
   <g id="line2d_15">
    <path d="M 100.99293 264.166364 
L 104.240623 264.166364 
L 107.488317 264.166364 
L 110.736011 264.166364 
L 113.983705 264.166364 
L 117.231398 264.166364 
L 120.479092 264.166364 
L 123.726786 264.166364 
L 126.974479 264.166364 
L 130.222173 264.166364 
L 133.469867 264.166364 
L 136.71756 264.166364 
L 139.965254 264.166364 
L 143.212948 264.166364 
L 146.460642 264.166364 
L 149.708335 264.166364 
L 152.956029 264.166364 
L 156.203723 264.166364 
L 159.451416 264.166364 
L 162.69911 264.166364 
L 165.946804 264.166364 
L 169.194497 264.166364 
L 172.442191 264.166364 
L 175.689885 264.166364 
L 178.937579 264.166364 
L 182.185272 264.166364 
L 185.432966 264.166364 
L 188.68066 264.166364 
L 191.928353 264.166364 
L 195.176047 264.166364 
L 198.423741 264.166364 
L 201.671434 264.166364 
L 204.919128 264.166364 
L 208.166822 264.166364 
L 211.414515 264.166364 
L 214.662209 264.166364 
L 217.909903 264.166364 
L 221.157597 264.166364 
L 224.40529 264.166364 
L 227.652984 264.166364 
L 230.900678 264.166364 
L 234.148371 264.166364 
L 237.396065 264.166364 
L 240.643759 264.166364 
L 243.891452 264.166364 
L 247.139146 264.166364 
L 250.38684 264.166364 
L 253.634534 264.166364 
L 256.882227 264.166364 
L 260.129921 261.395663 
L 263.377615 237.989904 
L 266.625308 194.723979 
L 269.873002 160.228586 
L 273.120696 142.28282 
L 276.368389 134.348639 
L 279.616083 131.426289 
L 282.863777 130.801014 
L 286.111471 131.236875 
L 289.359164 132.201255 
L 292.606858 133.452004 
L 295.854552 134.86949 
L 299.102245 136.387434 
L 302.349939 137.96391 
L 305.597633 139.569026 
L 308.845326 141.179671 
L 312.09302 142.777303 
L 315.340714 144.346987 
L 318.588408 145.876863 
L 321.836101 147.357661 
L 325.083795 148.782188 
L 328.331489 150.144822 
L 331.579182 151.441146 
L 334.826876 152.667771 
L 338.07457 153.822337 
L 341.322263 154.9036 
L 344.569957 155.911508 
L 347.817651 156.84722 
L 351.065345 157.713034 
L 354.313038 158.512262 
L 357.560732 159.249065 
L 360.808426 159.92827 
L 364.056119 160.555198 
L 367.303813 161.13549 
L 370.551507 161.674957 
L 373.7992 162.179436 
L 377.046894 162.654668 
L 380.294588 163.106187 
L 383.542282 163.53923 
L 386.789975 163.958661 
L 390.037669 164.368919 
L 393.285363 164.773975 
L 396.533056 165.177313 
L 399.78075 165.581922 
L 403.028444 165.990309 
L 406.276137 166.404513 
L 409.523831 166.826135 
L 412.771525 167.25637 
" clip-path="url(#pa68a96e890)" style="fill: none; stroke: #c44e52; stroke-width: 2.25; stroke-linecap: round"/>
   </g>
   <g id="line2d_16">
    <path d="M 100.99293 264.166364 
L 104.240623 264.166364 
L 107.488317 264.166364 
L 110.736011 264.166364 
L 113.983705 264.166364 
L 117.231398 264.166364 
L 120.479092 264.166364 
L 123.726786 264.166364 
L 126.974479 264.166364 
L 130.222173 264.166364 
L 133.469867 264.166364 
L 136.71756 264.166364 
L 139.965254 264.166364 
L 143.212948 264.166364 
L 146.460642 264.166364 
L 149.708335 264.166364 
L 152.956029 264.166364 
L 156.203723 264.166364 
L 159.451416 264.166364 
L 162.69911 264.166364 
L 165.946804 264.166364 
L 169.194497 264.166364 
L 172.442191 264.166364 
L 175.689885 264.166364 
L 178.937579 264.166364 
L 182.185272 264.166364 
L 185.432966 264.166364 
L 188.68066 264.166364 
L 191.928353 264.166364 
L 195.176047 264.166364 
L 198.423741 264.166364 
L 201.671434 264.166364 
L 204.919128 264.166364 
L 208.166822 264.166364 
L 211.414515 264.166364 
L 214.662209 264.166364 
L 217.909903 264.166364 
L 221.157597 264.166364 
L 224.40529 264.166364 
L 227.652984 264.166364 
L 230.900678 264.166364 
L 234.148371 264.166364 
L 237.396065 264.166364 
L 240.643759 264.166364 
L 243.891452 264.166364 
L 247.139146 264.166364 
L 250.38684 264.166364 
L 253.634534 264.166364 
L 256.882227 264.166364 
L 260.129921 263.153251 
L 263.377615 254.721872 
L 266.625308 239.375774 
L 269.873002 226.177256 
L 273.120696 218.29361 
L 276.368389 213.741414 
L 279.616083 210.84209 
L 282.863777 208.879985 
L 286.111471 207.587752 
L 289.359164 206.80796 
L 292.606858 206.412064 
L 295.854552 206.298589 
L 299.102245 206.39153 
L 302.349939 206.634801 
L 305.597633 206.986583 
L 308.845326 207.415067 
L 312.09302 207.895592 
L 315.340714 208.408766 
L 318.588408 208.939229 
L 321.836101 209.474781 
L 325.083795 210.005737 
L 328.331489 210.524455 
L 331.579182 211.024984 
L 334.826876 211.502822 
L 338.07457 211.954739 
L 341.322263 212.378638 
L 344.569957 212.773422 
L 347.817651 213.138862 
L 351.065345 213.475463 
L 354.313038 213.784335 
L 357.560732 214.067069 
L 360.808426 214.325632 
L 364.056119 214.562269 
L 367.303813 214.779416 
L 370.551507 214.979624 
L 373.7992 215.165491 
L 377.046894 215.3396 
L 380.294588 215.504467 
L 383.542282 215.662492 
L 386.789975 215.815928 
L 390.037669 215.966844 
L 393.285363 216.117111 
L 396.533056 216.268384 
L 399.78075 216.422096 
L 403.028444 216.579463 
L 406.276137 216.74149 
L 409.523831 216.908976 
L 412.771525 217.082537 
" clip-path="url(#pa68a96e890)" style="fill: none; stroke: #8172b3; stroke-width: 2.25; stroke-linecap: round"/>
   </g>
   <g id="patch_3">
    <path d="M 85.404 275.82 
L 85.404 19.44 
" style="fill: none; stroke: #262626; stroke-width: 1.875; stroke-linejoin: miter; stroke-linecap: square"/>
   </g>
   <g id="patch_4">
    <path d="M 85.404 275.82 
L 428.360455 275.82 
" style="fill: none; stroke: #262626; stroke-width: 1.875; stroke-linejoin: miter; stroke-linecap: square"/>
   </g>
   <g id="legend_1">
    <g id="line2d_17">
     <path d="M 100.254 41.052422 
L 116.754 41.052422 
L 133.254 41.052422 
" style="fill: none; stroke: #4c72b0; stroke-width: 2.25; stroke-linecap: round"/>
    </g>
    <g id="text_14">
     <!-- $k_{RMA}$ -->
     <g style="fill: #262626" transform="translate(146.454 46.827422) scale(0.165 -0.165)">
      <defs>
       <path id="DejaVuSans-Oblique-6b" d="M 1172 4863 
L 1747 4863 
L 1197 2028 
L 3169 3500 
L 3916 3500 
L 1716 1825 
L 3322 0 
L 2625 0 
L 1131 1709 
L 800 0 
L 225 0 
L 1172 4863 
z
" transform="scale(0.015625)"/>
       <path id="DejaVuSans-Oblique-52" d="M 1613 4147 
L 1294 2491 
L 2106 2491 
Q 2584 2491 2879 2755 
Q 3175 3019 3175 3444 
Q 3175 3784 2976 3965 
Q 2778 4147 2406 4147 
L 1613 4147 
z
M 2772 2241 
Q 2972 2194 3105 2009 
Q 3238 1825 3413 1275 
L 3809 0 
L 3144 0 
L 2778 1197 
Q 2638 1659 2453 1815 
Q 2269 1972 1888 1972 
L 1191 1972 
L 806 0 
L 172 0 
L 1081 4666 
L 2503 4666 
Q 3150 4666 3495 4373 
Q 3841 4081 3841 3531 
Q 3841 3044 3547 2687 
Q 3253 2331 2772 2241 
z
" transform="scale(0.015625)"/>
       <path id="DejaVuSans-Oblique-4d" d="M 1081 4666 
L 2028 4666 
L 2572 1522 
L 4378 4666 
L 5350 4666 
L 4441 0 
L 3828 0 
L 4622 4091 
L 2791 897 
L 2175 897 
L 1581 4103 
L 788 0 
L 172 0 
L 1081 4666 
z
" transform="scale(0.015625)"/>
       <path id="DejaVuSans-Oblique-41" d="M 2356 4666 
L 3072 4666 
L 3938 0 
L 3278 0 
L 3084 1197 
L 984 1197 
L 325 0 
L -341 0 
L 2356 4666 
z
M 2584 4044 
L 1275 1722 
L 2988 1722 
L 2584 4044 
z
" transform="scale(0.015625)"/>
      </defs>
      <use xlink:href="#DejaVuSans-Oblique-6b" transform="translate(0 0.015625)"/>
      <use xlink:href="#DejaVuSans-Oblique-52" transform="translate(57.910156 -16.390625) scale(0.7)"/>
      <use xlink:href="#DejaVuSans-Oblique-4d" transform="translate(106.547852 -16.390625) scale(0.7)"/>
      <use xlink:href="#DejaVuSans-Oblique-41" transform="translate(166.943359 -16.390625) scale(0.7)"/>
     </g>
    </g>
    <g id="line2d_18">
     <path d="M 100.254 65.271328 
L 116.754 65.271328 
L 133.254 65.271328 
" style="fill: none; stroke: #dd8452; stroke-width: 2.25; stroke-linecap: round"/>
    </g>
    <g id="text_15">
     <!-- $K_{D_{tTA}}$ -->
     <g style="fill: #262626" transform="translate(146.454 71.046328) scale(0.165 -0.165)">
      <defs>
       <path id="DejaVuSans-Oblique-4b" d="M 1081 4666 
L 1716 4666 
L 1331 2700 
L 3781 4666 
L 4622 4666 
L 1850 2438 
L 3878 0 
L 3109 0 
L 1247 2272 
L 806 0 
L 172 0 
L 1081 4666 
z
" transform="scale(0.015625)"/>
       <path id="DejaVuSans-Oblique-44" d="M 1081 4666 
L 2438 4666 
Q 3519 4666 4070 4208 
Q 4622 3750 4622 2847 
Q 4622 2250 4412 1698 
Q 4203 1147 3834 769 
Q 3463 381 2891 190 
Q 2319 0 1538 0 
L 172 0 
L 1081 4666 
z
M 1613 4147 
L 909 519 
L 1734 519 
Q 2794 519 3375 1128 
Q 3956 1738 3956 2847 
Q 3956 3519 3581 3833 
Q 3206 4147 2406 4147 
L 1613 4147 
z
" transform="scale(0.015625)"/>
       <path id="DejaVuSans-Oblique-74" d="M 2706 3500 
L 2619 3053 
L 1472 3053 
L 1100 1153 
Q 1081 1047 1072 975 
Q 1063 903 1063 863 
Q 1063 663 1183 572 
Q 1303 481 1569 481 
L 2150 481 
L 2053 0 
L 1503 0 
Q 991 0 739 200 
Q 488 400 488 806 
Q 488 878 497 964 
Q 506 1050 525 1153 
L 897 3053 
L 409 3053 
L 500 3500 
L 978 3500 
L 1172 4494 
L 1747 4494 
L 1556 3500 
L 2706 3500 
z
" transform="scale(0.015625)"/>
       <path id="DejaVuSans-Oblique-54" d="M 378 4666 
L 4325 4666 
L 4225 4134 
L 2559 4134 
L 1759 0 
L 1125 0 
L 1925 4134 
L 275 4134 
L 378 4666 
z
" transform="scale(0.015625)"/>
      </defs>
      <use xlink:href="#DejaVuSans-Oblique-4b" transform="translate(0 0.09375)"/>
      <use xlink:href="#DejaVuSans-Oblique-44" transform="translate(65.576172 -16.3125) scale(0.7)"/>
      <use xlink:href="#DejaVuSans-Oblique-74" transform="translate(119.477539 -27.796875) scale(0.49)"/>
      <use xlink:href="#DejaVuSans-Oblique-54" transform="translate(138.689941 -27.796875) scale(0.49)"/>
      <use xlink:href="#DejaVuSans-Oblique-41" transform="translate(168.621094 -27.796875) scale(0.49)"/>
     </g>
    </g>
    <g id="line2d_19">
     <path d="M 100.254 90.67875 
L 116.754 90.67875 
L 133.254 90.67875 
" style="fill: none; stroke: #55a868; stroke-width: 2.25; stroke-linecap: round"/>
    </g>
    <g id="text_16">
     <!-- $\gamma_{tTA}$ -->
     <g style="fill: #262626" transform="translate(146.454 96.45375) scale(0.165 -0.165)">
      <defs>
       <path id="DejaVuSans-Oblique-3b3" d="M 1491 2950 
L 1838 788 
L 3456 3500 
L 4066 3500 
L 1972 0 
L 1713 -1331 
L 1138 -1331 
L 1397 0 
L 988 2613 
Q 925 3006 628 3006 
L 475 3006 
L 569 3500 
L 788 3500 
Q 1403 3500 1491 2950 
z
" transform="scale(0.015625)"/>
      </defs>
      <use xlink:href="#DejaVuSans-Oblique-3b3" transform="translate(0 0.3125)"/>
      <use xlink:href="#DejaVuSans-Oblique-74" transform="translate(59.179688 -16.09375) scale(0.7)"/>
      <use xlink:href="#DejaVuSans-Oblique-54" transform="translate(86.625977 -16.09375) scale(0.7)"/>
      <use xlink:href="#DejaVuSans-Oblique-41" transform="translate(129.384766 -16.09375) scale(0.7)"/>
     </g>
    </g>
    <g id="line2d_20">
     <path d="M 100.254 114.931172 
L 116.754 114.931172 
L 133.254 114.931172 
" style="fill: none; stroke: #c44e52; stroke-width: 2.25; stroke-linecap: round"/>
    </g>
    <g id="text_17">
     <!-- $k_{tTA}$ -->
     <g style="fill: #262626" transform="translate(146.454 120.706172) scale(0.165 -0.165)">
      <use xlink:href="#DejaVuSans-Oblique-6b" transform="translate(0 0.015625)"/>
      <use xlink:href="#DejaVuSans-Oblique-74" transform="translate(57.910156 -16.390625) scale(0.7)"/>
      <use xlink:href="#DejaVuSans-Oblique-54" transform="translate(85.356445 -16.390625) scale(0.7)"/>
      <use xlink:href="#DejaVuSans-Oblique-41" transform="translate(128.115234 -16.390625) scale(0.7)"/>
     </g>
    </g>
    <g id="line2d_21">
     <path d="M 100.254 139.152656 
L 116.754 139.152656 
L 133.254 139.152656 
" style="fill: none; stroke: #8172b3; stroke-width: 2.25; stroke-linecap: round"/>
    </g>
    <g id="text_18">
     <!-- $[Dq]_{ss}$ -->
     <g style="fill: #262626" transform="translate(146.454 144.927656) scale(0.165 -0.165)">
      <defs>
       <path id="DejaVuSans-5b" d="M 550 4863 
L 1875 4863 
L 1875 4416 
L 1125 4416 
L 1125 -397 
L 1875 -397 
L 1875 -844 
L 550 -844 
L 550 4863 
z
" transform="scale(0.015625)"/>
       <path id="DejaVuSans-Oblique-71" d="M 2669 525 
Q 2438 222 2123 65 
Q 1809 -91 1428 -91 
Q 897 -91 595 267 
Q 294 625 294 1253 
Q 294 1759 480 2231 
Q 666 2703 1013 3078 
Q 1238 3322 1530 3453 
Q 1822 3584 2144 3584 
Q 2531 3584 2781 3431 
Q 3031 3278 3144 2969 
L 3244 3494 
L 3822 3494 
L 2888 -1319 
L 2309 -1319 
L 2669 525 
z
M 891 1338 
Q 891 875 1084 633 
Q 1278 391 1644 391 
Q 2188 391 2572 911 
Q 2956 1431 2956 2175 
Q 2956 2625 2757 2864 
Q 2559 3103 2188 3103 
Q 1916 3103 1684 2976 
Q 1453 2850 1281 2606 
Q 1100 2350 995 2006 
Q 891 1663 891 1338 
z
" transform="scale(0.015625)"/>
       <path id="DejaVuSans-5d" d="M 1947 4863 
L 1947 -844 
L 622 -844 
L 622 -397 
L 1369 -397 
L 1369 4416 
L 622 4416 
L 622 4863 
L 1947 4863 
z
" transform="scale(0.015625)"/>
       <path id="DejaVuSans-Oblique-73" d="M 3200 3397 
L 3091 2853 
Q 2863 2978 2609 3040 
Q 2356 3103 2088 3103 
Q 1634 3103 1373 2948 
Q 1113 2794 1113 2528 
Q 1113 2219 1719 2053 
Q 1766 2041 1788 2034 
L 1972 1978 
Q 2547 1819 2739 1644 
Q 2931 1469 2931 1166 
Q 2931 609 2489 259 
Q 2047 -91 1331 -91 
Q 1053 -91 747 -37 
Q 441 16 72 128 
L 184 722 
Q 500 559 806 475 
Q 1113 391 1394 391 
Q 1816 391 2080 572 
Q 2344 753 2344 1031 
Q 2344 1331 1650 1516 
L 1591 1531 
L 1394 1581 
Q 956 1697 753 1886 
Q 550 2075 550 2369 
Q 550 2928 970 3256 
Q 1391 3584 2113 3584 
Q 2397 3584 2667 3537 
Q 2938 3491 3200 3397 
z
" transform="scale(0.015625)"/>
      </defs>
      <use xlink:href="#DejaVuSans-5b" transform="translate(0 0.015625)"/>
      <use xlink:href="#DejaVuSans-Oblique-44" transform="translate(39.013672 0.015625)"/>
      <use xlink:href="#DejaVuSans-Oblique-71" transform="translate(116.015625 0.015625)"/>
      <use xlink:href="#DejaVuSans-5d" transform="translate(179.492188 0.015625)"/>
      <use xlink:href="#DejaVuSans-Oblique-73" transform="translate(219.462891 -16.390625) scale(0.7)"/>
      <use xlink:href="#DejaVuSans-Oblique-73" transform="translate(255.932617 -16.390625) scale(0.7)"/>
     </g>
    </g>
   </g>
  </g>
 </g>
 <defs>
  <clipPath id="pa68a96e890">
   <rect x="85.404" y="19.44" width="342.956455" height="256.38"/>
  </clipPath>
 </defs>
</svg>
