<?xml version="1.0" encoding="utf-8" standalone="no"?>
<!DOCTYPE svg PUBLIC "-//W3C//DTD SVG 1.1//EN"
  "http://www.w3.org/Graphics/SVG/1.1/DTD/svg11.dtd">
<svg xmlns:xlink="http://www.w3.org/1999/xlink" width="460.8pt" height="345.6pt" viewBox="0 0 460.8 345.6" xmlns="http://www.w3.org/2000/svg" version="1.1">
 <metadata>
  <rdf:RDF xmlns:dc="http://purl.org/dc/elements/1.1/" xmlns:cc="http://creativecommons.org/ns#" xmlns:rdf="http://www.w3.org/1999/02/22-rdf-syntax-ns#">
   <cc:Work>
    <dc:type rdf:resource="http://purl.org/dc/dcmitype/StillImage"/>
    <dc:date>1980-01-01T00:00:00+00:00</dc:date>
    <dc:format>image/svg+xml</dc:format>
    <dc:creator>
     <cc:Agent>
      <dc:title>Matplotlib v3.10.8, https://matplotlib.org/</dc:title>
     </cc:Agent>
    </dc:creator>
   </cc:Work>
  </rdf:RDF>
 </metadata>
 <defs>
  <style type="text/css">*{stroke-linejoin: round; stroke-linecap: butt}</style>
 </defs>
 <g id="figure_1">
  <g id="patch_1">
   <path d="M 0 345.6 
L 460.8 345.6 
L 460.8 0 
L 0 0 
z
" style="fill: #ffffff"/>
  </g>
  <g id="axes_1">
   <g id="patch_2">
    <path d="M 74.19 275.82 
L 428.499322 275.82 
L 428.499322 19.44 
L 74.19 19.44 
z
" style="fill: #ffffff"/>
   </g>
   <g id="matplotlib.axis_1">
    <g id="xtick_1">
     <g id="line2d_1">
      <defs>
       <path id="mafcc292f8c" d="M 0 0 
L 0 9 
" style="stroke: #262626; stroke-width: 1.875"/>
      </defs>
      <g>
       <use xlink:href="#mafcc292f8c" x="90.294969" y="275.82" style="fill: #262626; stroke: #262626; stroke-width: 1.875"/>
      </g>
     </g>
     <g id="text_1">
      <!-- 0 -->
      <g style="fill: #262626" transform="translate(85.045907 300.857422) scale(0.165 -0.165)">
       <defs>
        <path id="DejaVuSans-30" d="M 2034 4250 
Q 1547 4250 1301 3770 
Q 1056 3291 1056 2328 
Q 1056 1369 1301 889 
Q 1547 409 2034 409 
Q 2525 409 2770 889 
Q 3016 1369 3016 2328 
Q 3016 3291 2770 3770 
Q 2525 4250 2034 4250 
z
M 2034 4750 
Q 2819 4750 3233 4129 
Q 3647 3509 3647 2328 
Q 3647 1150 3233 529 
Q 2819 -91 2034 -91 
Q 1250 -91 836 529 
Q 422 1150 422 2328 
Q 422 3509 836 4129 
Q 1250 4750 2034 4750 
z
" transform="scale(0.015625)"/>
       </defs>
       <use xlink:href="#DejaVuSans-30"/>
      </g>
     </g>
    </g>
    <g id="xtick_2">
     <g id="line2d_2">
      <g>
       <use xlink:href="#mafcc292f8c" x="157.399007" y="275.82" style="fill: #262626; stroke: #262626; stroke-width: 1.875"/>
      </g>
     </g>
     <g id="text_2">
      <!-- 20 -->
      <g style="fill: #262626" transform="translate(146.900882 300.857422) scale(0.165 -0.165)">
       <defs>
        <path id="DejaVuSans-32" d="M 1228 531 
L 3431 531 
L 3431 0 
L 469 0 
L 469 531 
Q 828 903 1448 1529 
Q 2069 2156 2228 2338 
Q 2531 2678 2651 2914 
Q 2772 3150 2772 3378 
Q 2772 3750 2511 3984 
Q 2250 4219 1831 4219 
Q 1534 4219 1204 4116 
Q 875 4013 500 3803 
L 500 4441 
Q 881 4594 1212 4672 
Q 1544 4750 1819 4750 
Q 2544 4750 2975 4387 
Q 3406 4025 3406 3419 
Q 3406 3131 3298 2873 
Q 3191 2616 2906 2266 
Q 2828 2175 2409 1742 
Q 1991 1309 1228 531 
z
" transform="scale(0.015625)"/>
       </defs>
       <use xlink:href="#DejaVuSans-32"/>
       <use xlink:href="#DejaVuSans-30" transform="translate(63.623047 0)"/>
      </g>
     </g>
    </g>
    <g id="xtick_3">
     <g id="line2d_3">
      <g>
       <use xlink:href="#mafcc292f8c" x="224.503046" y="275.82" style="fill: #262626; stroke: #262626; stroke-width: 1.875"/>
      </g>
     </g>
     <g id="text_3">
      <!-- 40 -->
      <g style="fill: #262626" transform="translate(214.004921 300.857422) scale(0.165 -0.165)">
       <defs>
        <path id="DejaVuSans-34" d="M 2419 4116 
L 825 1625 
L 2419 1625 
L 2419 4116 
z
M 2253 4666 
L 3047 4666 
L 3047 1625 
L 3713 1625 
L 3713 1100 
L 3047 1100 
L 3047 0 
L 2419 0 
L 2419 1100 
L 313 1100 
L 313 1709 
L 2253 4666 
z
" transform="scale(0.015625)"/>
       </defs>
       <use xlink:href="#DejaVuSans-34"/>
       <use xlink:href="#DejaVuSans-30" transform="translate(63.623047 0)"/>
      </g>
     </g>
    </g>
    <g id="xtick_4">
     <g id="line2d_4">
      <g>
       <use xlink:href="#mafcc292f8c" x="291.607084" y="275.82" style="fill: #262626; stroke: #262626; stroke-width: 1.875"/>
      </g>
     </g>
     <g id="text_4">
      <!-- 60 -->
      <g style="fill: #262626" transform="translate(281.108959 300.857422) scale(0.165 -0.165)">
       <defs>
        <path id="DejaVuSans-36" d="M 2113 2584 
Q 1688 2584 1439 2293 
Q 1191 2003 1191 1497 
Q 1191 994 1439 701 
Q 1688 409 2113 409 
Q 2538 409 2786 701 
Q 3034 994 3034 1497 
Q 3034 2003 2786 2293 
Q 2538 2584 2113 2584 
z
M 3366 4563 
L 3366 3988 
Q 3128 4100 2886 4159 
Q 2644 4219 2406 4219 
Q 1781 4219 1451 3797 
Q 1122 3375 1075 2522 
Q 1259 2794 1537 2939 
Q 1816 3084 2150 3084 
Q 2853 3084 3261 2657 
Q 3669 2231 3669 1497 
Q 3669 778 3244 343 
Q 2819 -91 2113 -91 
Q 1303 -91 875 529 
Q 447 1150 447 2328 
Q 447 3434 972 4092 
Q 1497 4750 2381 4750 
Q 2619 4750 2861 4703 
Q 3103 4656 3366 4563 
z
" transform="scale(0.015625)"/>
       </defs>
       <use xlink:href="#DejaVuSans-36"/>
       <use xlink:href="#DejaVuSans-30" transform="translate(63.623047 0)"/>
      </g>
     </g>
    </g>
    <g id="xtick_5">
     <g id="line2d_5">
      <g>
       <use xlink:href="#mafcc292f8c" x="358.711122" y="275.82" style="fill: #262626; stroke: #262626; stroke-width: 1.875"/>
      </g>
     </g>
     <g id="text_5">
      <!-- 80 -->
      <g style="fill: #262626" transform="translate(348.212997 300.857422) scale(0.165 -0.165)">
       <defs>
        <path id="DejaVuSans-38" d="M 2034 2216 
Q 1584 2216 1326 1975 
Q 1069 1734 1069 1313 
Q 1069 891 1326 650 
Q 1584 409 2034 409 
Q 2484 409 2743 651 
Q 3003 894 3003 1313 
Q 3003 1734 2745 1975 
Q 2488 2216 2034 2216 
z
M 1403 2484 
Q 997 2584 770 2862 
Q 544 3141 544 3541 
Q 544 4100 942 4425 
Q 1341 4750 2034 4750 
Q 2731 4750 3128 4425 
Q 3525 4100 3525 3541 
Q 3525 3141 3298 2862 
Q 3072 2584 2669 2484 
Q 3125 2378 3379 2068 
Q 3634 1759 3634 1313 
Q 3634 634 3220 271 
Q 2806 -91 2034 -91 
Q 1263 -91 848 271 
Q 434 634 434 1313 
Q 434 1759 690 2068 
Q 947 2378 1403 2484 
z
M 1172 3481 
Q 1172 3119 1398 2916 
Q 1625 2713 2034 2713 
Q 2441 2713 2670 2916 
Q 2900 3119 2900 3481 
Q 2900 3844 2670 4047 
Q 2441 4250 2034 4250 
Q 1625 4250 1398 4047 
Q 1172 3844 1172 3481 
z
" transform="scale(0.015625)"/>
       </defs>
       <use xlink:href="#DejaVuSans-38"/>
       <use xlink:href="#DejaVuSans-30" transform="translate(63.623047 0)"/>
      </g>
     </g>
    </g>
    <g id="xtick_6">
     <g id="line2d_6">
      <g>
       <use xlink:href="#mafcc292f8c" x="425.81516" y="275.82" style="fill: #262626; stroke: #262626; stroke-width: 1.875"/>
      </g>
     </g>
     <g id="text_6">
      <!-- 100 -->
      <g style="fill: #262626" transform="translate(410.067973 300.857422) scale(0.165 -0.165)">
       <defs>
        <path id="DejaVuSans-31" d="M 794 531 
L 1825 531 
L 1825 4091 
L 703 3866 
L 703 4441 
L 1819 4666 
L 2450 4666 
L 2450 531 
L 3481 531 
L 3481 0 
L 794 0 
L 794 531 
z
" transform="scale(0.015625)"/>
       </defs>
       <use xlink:href="#DejaVuSans-31"/>
       <use xlink:href="#DejaVuSans-30" transform="translate(63.623047 0)"/>
       <use xlink:href="#DejaVuSans-30" transform="translate(127.246094 0)"/>
      </g>
     </g>
    </g>
    <g id="text_7">
     <!-- Time (hr) -->
     <g style="fill: #262626" transform="translate(210.037473 321.966094) scale(0.18 -0.18)">
      <defs>
       <path id="DejaVuSans-54" d="M -19 4666 
L 3928 4666 
L 3928 4134 
L 2272 4134 
L 2272 0 
L 1638 0 
L 1638 4134 
L -19 4134 
L -19 4666 
z
" transform="scale(0.015625)"/>
       <path id="DejaVuSans-69" d="M 603 3500 
L 1178 3500 
L 1178 0 
L 603 0 
L 603 3500 
z
M 603 4863 
L 1178 4863 
L 1178 4134 
L 603 4134 
L 603 4863 
z
" transform="scale(0.015625)"/>
       <path id="DejaVuSans-6d" d="M 3328 2828 
Q 3544 3216 3844 3400 
Q 4144 3584 4550 3584 
Q 5097 3584 5394 3201 
Q 5691 2819 5691 2113 
L 5691 0 
L 5113 0 
L 5113 2094 
Q 5113 2597 4934 2840 
Q 4756 3084 4391 3084 
Q 3944 3084 3684 2787 
Q 3425 2491 3425 1978 
L 3425 0 
L 2847 0 
L 2847 2094 
Q 2847 2600 2669 2842 
Q 2491 3084 2119 3084 
Q 1678 3084 1418 2786 
Q 1159 2488 1159 1978 
L 1159 0 
L 581 0 
L 581 3500 
L 1159 3500 
L 1159 2956 
Q 1356 3278 1631 3431 
Q 1906 3584 2284 3584 
Q 2666 3584 2933 3390 
Q 3200 3197 3328 2828 
z
" transform="scale(0.015625)"/>
       <path id="DejaVuSans-65" d="M 3597 1894 
L 3597 1613 
L 953 1613 
Q 991 1019 1311 708 
Q 1631 397 2203 397 
Q 2534 397 2845 478 
Q 3156 559 3463 722 
L 3463 178 
Q 3153 47 2828 -22 
Q 2503 -91 2169 -91 
Q 1331 -91 842 396 
Q 353 884 353 1716 
Q 353 2575 817 3079 
Q 1281 3584 2069 3584 
Q 2775 3584 3186 3129 
Q 3597 2675 3597 1894 
z
M 3022 2063 
Q 3016 2534 2758 2815 
Q 2500 3097 2075 3097 
Q 1594 3097 1305 2825 
Q 1016 2553 972 2059 
L 3022 2063 
z
" transform="scale(0.015625)"/>
       <path id="DejaVuSans-20" transform="scale(0.015625)"/>
       <path id="DejaVuSans-28" d="M 1984 4856 
Q 1566 4138 1362 3434 
Q 1159 2731 1159 2009 
Q 1159 1288 1364 580 
Q 1569 -128 1984 -844 
L 1484 -844 
Q 1016 -109 783 600 
Q 550 1309 550 2009 
Q 550 2706 781 3412 
Q 1013 4119 1484 4856 
L 1984 4856 
z
" transform="scale(0.015625)"/>
       <path id="DejaVuSans-68" d="M 3513 2113 
L 3513 0 
L 2938 0 
L 2938 2094 
Q 2938 2591 2744 2837 
Q 2550 3084 2163 3084 
Q 1697 3084 1428 2787 
Q 1159 2491 1159 1978 
L 1159 0 
L 581 0 
L 581 4863 
L 1159 4863 
L 1159 2956 
Q 1366 3272 1645 3428 
Q 1925 3584 2291 3584 
Q 2894 3584 3203 3211 
Q 3513 2838 3513 2113 
z
" transform="scale(0.015625)"/>
       <path id="DejaVuSans-72" d="M 2631 2963 
Q 2534 3019 2420 3045 
Q 2306 3072 2169 3072 
Q 1681 3072 1420 2755 
Q 1159 2438 1159 1844 
L 1159 0 
L 581 0 
L 581 3500 
L 1159 3500 
L 1159 2956 
Q 1341 3275 1631 3429 
Q 1922 3584 2338 3584 
Q 2397 3584 2469 3576 
Q 2541 3569 2628 3553 
L 2631 2963 
z
" transform="scale(0.015625)"/>
       <path id="DejaVuSans-29" d="M 513 4856 
L 1013 4856 
Q 1481 4119 1714 3412 
Q 1947 2706 1947 2009 
Q 1947 1309 1714 600 
Q 1481 -109 1013 -844 
L 513 -844 
Q 928 -128 1133 580 
Q 1338 1288 1338 2009 
Q 1338 2731 1133 3434 
Q 928 4138 513 4856 
z
" transform="scale(0.015625)"/>
      </defs>
      <use xlink:href="#DejaVuSans-54"/>
      <use xlink:href="#DejaVuSans-69" transform="translate(57.958984 0)"/>
      <use xlink:href="#DejaVuSans-6d" transform="translate(85.742188 0)"/>
      <use xlink:href="#DejaVuSans-65" transform="translate(183.154297 0)"/>
      <use xlink:href="#DejaVuSans-20" transform="translate(244.677734 0)"/>
      <use xlink:href="#DejaVuSans-28" transform="translate(276.464844 0)"/>
      <use xlink:href="#DejaVuSans-68" transform="translate(315.478516 0)"/>
      <use xlink:href="#DejaVuSans-72" transform="translate(378.857422 0)"/>
      <use xlink:href="#DejaVuSans-29" transform="translate(419.970703 0)"/>
     </g>
    </g>
   </g>
   <g id="matplotlib.axis_2">
    <g id="ytick_1">
     <g id="line2d_7">
      <defs>
       <path id="m31937af5d3" d="M 0 0 
L -9 0 
" style="stroke: #262626; stroke-width: 1.875"/>
      </defs>
      <g>
       <use xlink:href="#m31937af5d3" x="74.19" y="264.910213" style="fill: #262626; stroke: #262626; stroke-width: 1.875"/>
      </g>
     </g>
     <g id="text_8">
      <!-- 0 -->
      <g style="fill: #262626" transform="translate(51.191875 271.178924) scale(0.165 -0.165)">
       <use xlink:href="#DejaVuSans-30"/>
      </g>
     </g>
    </g>
    <g id="ytick_2">
     <g id="line2d_8">
      <g>
       <use xlink:href="#m31937af5d3" x="74.19" y="210.361277" style="fill: #262626; stroke: #262626; stroke-width: 1.875"/>
      </g>
     </g>
     <g id="text_9">
      <!-- 10 -->
      <g style="fill: #262626" transform="translate(40.69375 216.629988) scale(0.165 -0.165)">
       <use xlink:href="#DejaVuSans-31"/>
       <use xlink:href="#DejaVuSans-30" transform="translate(63.623047 0)"/>
      </g>
     </g>
    </g>
    <g id="ytick_3">
     <g id="line2d_9">
      <g>
       <use xlink:href="#m31937af5d3" x="74.19" y="155.81234" style="fill: #262626; stroke: #262626; stroke-width: 1.875"/>
      </g>
     </g>
     <g id="text_10">
      <!-- 20 -->
      <g style="fill: #262626" transform="translate(40.69375 162.081051) scale(0.165 -0.165)">
       <use xlink:href="#DejaVuSans-32"/>
       <use xlink:href="#DejaVuSans-30" transform="translate(63.623047 0)"/>
      </g>
     </g>
    </g>
    <g id="ytick_4">
     <g id="line2d_10">
      <g>
       <use xlink:href="#m31937af5d3" x="74.19" y="101.263404" style="fill: #262626; stroke: #262626; stroke-width: 1.875"/>
      </g>
     </g>
     <g id="text_11">
      <!-- 30 -->
      <g style="fill: #262626" transform="translate(40.69375 107.532115) scale(0.165 -0.165)">
       <defs>
        <path id="DejaVuSans-33" d="M 2597 2516 
Q 3050 2419 3304 2112 
Q 3559 1806 3559 1356 
Q 3559 666 3084 287 
Q 2609 -91 1734 -91 
Q 1441 -91 1130 -33 
Q 819 25 488 141 
L 488 750 
Q 750 597 1062 519 
Q 1375 441 1716 441 
Q 2309 441 2620 675 
Q 2931 909 2931 1356 
Q 2931 1769 2642 2001 
Q 2353 2234 1838 2234 
L 1294 2234 
L 1294 2753 
L 1863 2753 
Q 2328 2753 2575 2939 
Q 2822 3125 2822 3475 
Q 2822 3834 2567 4026 
Q 2313 4219 1838 4219 
Q 1578 4219 1281 4162 
Q 984 4106 628 3988 
L 628 4550 
Q 988 4650 1302 4700 
Q 1616 4750 1894 4750 
Q 2613 4750 3031 4423 
Q 3450 4097 3450 3541 
Q 3450 3153 3228 2886 
Q 3006 2619 2597 2516 
z
" transform="scale(0.015625)"/>
       </defs>
       <use xlink:href="#DejaVuSans-33"/>
       <use xlink:href="#DejaVuSans-30" transform="translate(63.623047 0)"/>
      </g>
     </g>
    </g>
    <g id="ytick_5">
     <g id="line2d_11">
      <g>
       <use xlink:href="#m31937af5d3" x="74.19" y="46.714468" style="fill: #262626; stroke: #262626; stroke-width: 1.875"/>
      </g>
     </g>
     <g id="text_12">
      <!-- 40 -->
      <g style="fill: #262626" transform="translate(40.69375 52.983179) scale(0.165 -0.165)">
       <use xlink:href="#DejaVuSans-34"/>
       <use xlink:href="#DejaVuSans-30" transform="translate(63.623047 0)"/>
      </g>
     </g>
    </g>
    <g id="text_13">
     <!-- Plasma RMA (nM) -->
     <g style="fill: #262626" transform="translate(32.950313 226.430625) rotate(-90) scale(0.18 -0.18)">
      <defs>
       <path id="DejaVuSans-50" d="M 1259 4147 
L 1259 2394 
L 2053 2394 
Q 2494 2394 2734 2622 
Q 2975 2850 2975 3272 
Q 2975 3691 2734 3919 
Q 2494 4147 2053 4147 
L 1259 4147 
z
M 628 4666 
L 2053 4666 
Q 2838 4666 3239 4311 
Q 3641 3956 3641 3272 
Q 3641 2581 3239 2228 
Q 2838 1875 2053 1875 
L 1259 1875 
L 1259 0 
L 628 0 
L 628 4666 
z
" transform="scale(0.015625)"/>
       <path id="DejaVuSans-6c" d="M 603 4863 
L 1178 4863 
L 1178 0 
L 603 0 
L 603 4863 
z
" transform="scale(0.015625)"/>
       <path id="DejaVuSans-61" d="M 2194 1759 
Q 1497 1759 1228 1600 
Q 959 1441 959 1056 
Q 959 750 1161 570 
Q 1363 391 1709 391 
Q 2188 391 2477 730 
Q 2766 1069 2766 1631 
L 2766 1759 
L 2194 1759 
z
M 3341 1997 
L 3341 0 
L 2766 0 
L 2766 531 
Q 2569 213 2275 61 
Q 1981 -91 1556 -91 
Q 1019 -91 701 211 
Q 384 513 384 1019 
Q 384 1609 779 1909 
Q 1175 2209 1959 2209 
L 2766 2209 
L 2766 2266 
Q 2766 2663 2505 2880 
Q 2244 3097 1772 3097 
Q 1472 3097 1187 3025 
Q 903 2953 641 2809 
L 641 3341 
Q 956 3463 1253 3523 
Q 1550 3584 1831 3584 
Q 2591 3584 2966 3190 
Q 3341 2797 3341 1997 
z
" transform="scale(0.015625)"/>
       <path id="DejaVuSans-73" d="M 2834 3397 
L 2834 2853 
Q 2591 2978 2328 3040 
Q 2066 3103 1784 3103 
Q 1356 3103 1142 2972 
Q 928 2841 928 2578 
Q 928 2378 1081 2264 
Q 1234 2150 1697 2047 
L 1894 2003 
Q 2506 1872 2764 1633 
Q 3022 1394 3022 966 
Q 3022 478 2636 193 
Q 2250 -91 1575 -91 
Q 1294 -91 989 -36 
Q 684 19 347 128 
L 347 722 
Q 666 556 975 473 
Q 1284 391 1588 391 
Q 1994 391 2212 530 
Q 2431 669 2431 922 
Q 2431 1156 2273 1281 
Q 2116 1406 1581 1522 
L 1381 1569 
Q 847 1681 609 1914 
Q 372 2147 372 2553 
Q 372 3047 722 3315 
Q 1072 3584 1716 3584 
Q 2034 3584 2315 3537 
Q 2597 3491 2834 3397 
z
" transform="scale(0.015625)"/>
       <path id="DejaVuSans-52" d="M 2841 2188 
Q 3044 2119 3236 1894 
Q 3428 1669 3622 1275 
L 4263 0 
L 3584 0 
L 2988 1197 
Q 2756 1666 2539 1819 
Q 2322 1972 1947 1972 
L 1259 1972 
L 1259 0 
L 628 0 
L 628 4666 
L 2053 4666 
Q 2853 4666 3247 4331 
Q 3641 3997 3641 3322 
Q 3641 2881 3436 2590 
Q 3231 2300 2841 2188 
z
M 1259 4147 
L 1259 2491 
L 2053 2491 
Q 2509 2491 2742 2702 
Q 2975 2913 2975 3322 
Q 2975 3731 2742 3939 
Q 2509 4147 2053 4147 
L 1259 4147 
z
" transform="scale(0.015625)"/>
       <path id="DejaVuSans-4d" d="M 628 4666 
L 1569 4666 
L 2759 1491 
L 3956 4666 
L 4897 4666 
L 4897 0 
L 4281 0 
L 4281 4097 
L 3078 897 
L 2444 897 
L 1241 4097 
L 1241 0 
L 628 0 
L 628 4666 
z
" transform="scale(0.015625)"/>
       <path id="DejaVuSans-41" d="M 2188 4044 
L 1331 1722 
L 3047 1722 
L 2188 4044 
z
M 1831 4666 
L 2547 4666 
L 4325 0 
L 3669 0 
L 3244 1197 
L 1141 1197 
L 716 0 
L 50 0 
L 1831 4666 
z
" transform="scale(0.015625)"/>
       <path id="DejaVuSans-6e" d="M 3513 2113 
L 3513 0 
L 2938 0 
L 2938 2094 
Q 2938 2591 2744 2837 
Q 2550 3084 2163 3084 
Q 1697 3084 1428 2787 
Q 1159 2491 1159 1978 
L 1159 0 
L 581 0 
L 581 3500 
L 1159 3500 
L 1159 2956 
Q 1366 3272 1645 3428 
Q 1925 3584 2291 3584 
Q 2894 3584 3203 3211 
Q 3513 2838 3513 2113 
z
" transform="scale(0.015625)"/>
      </defs>
      <use xlink:href="#DejaVuSans-50"/>
      <use xlink:href="#DejaVuSans-6c" transform="translate(60.302734 0)"/>
      <use xlink:href="#DejaVuSans-61" transform="translate(88.085938 0)"/>
      <use xlink:href="#DejaVuSans-73" transform="translate(149.365234 0)"/>
      <use xlink:href="#DejaVuSans-6d" transform="translate(201.464844 0)"/>
      <use xlink:href="#DejaVuSans-61" transform="translate(298.876953 0)"/>
      <use xlink:href="#DejaVuSans-20" transform="translate(360.15625 0)"/>
      <use xlink:href="#DejaVuSans-52" transform="translate(391.943359 0)"/>
      <use xlink:href="#DejaVuSans-4d" transform="translate(461.425781 0)"/>
      <use xlink:href="#DejaVuSans-41" transform="translate(547.705078 0)"/>
      <use xlink:href="#DejaVuSans-20" transform="translate(616.113281 0)"/>
      <use xlink:href="#DejaVuSans-28" transform="translate(647.900391 0)"/>
      <use xlink:href="#DejaVuSans-6e" transform="translate(686.914062 0)"/>
      <use xlink:href="#DejaVuSans-4d" transform="translate(750.292969 0)"/>
      <use xlink:href="#DejaVuSans-29" transform="translate(836.572266 0)"/>
     </g>
    </g>
   </g>
   <g id="FillBetweenPolyCollection_1">
    <defs>
     <path id="ma92d445117" d="M 90.294969 -80.689787 
L 90.294969 -80.689787 
L 93.685121 -80.697971 
L 97.075273 -80.718614 
L 100.465425 -80.747317 
L 103.855577 -80.780403 
L 107.245729 -80.81658 
L 110.635881 -80.853829 
L 114.026033 -80.896379 
L 117.416185 -80.934419 
L 120.806337 -80.976761 
L 124.196488 -81.018291 
L 127.58664 -81.059147 
L 130.976792 -81.102248 
L 134.366944 -81.152135 
L 137.757096 -81.198005 
L 141.147248 -81.255256 
L 144.5374 -81.309428 
L 147.927552 -81.369793 
L 151.317704 -81.42849 
L 154.707856 -81.497767 
L 158.098008 -81.567351 
L 161.48816 -81.627664 
L 164.878312 -81.6974 
L 168.268464 -81.797188 
L 171.658615 -81.874615 
L 175.048767 -81.968668 
L 178.438919 -82.071797 
L 181.829071 -82.172181 
L 185.219223 -82.256648 
L 188.609375 -82.368835 
L 191.999527 -82.498308 
L 195.389679 -82.59737 
L 198.779831 -82.702043 
L 202.169983 -82.861324 
L 205.560135 -82.973149 
L 208.950287 -83.067676 
L 212.340439 -83.172265 
L 215.730591 -83.290987 
L 219.120742 -83.45372 
L 222.510894 -83.602904 
L 225.901046 -83.687311 
L 229.291198 -83.863684 
L 232.68135 -84.025249 
L 236.071502 -84.162911 
L 239.461654 -84.298477 
L 242.851806 -84.437414 
L 246.241958 -84.58232 
L 249.63211 -84.672639 
L 253.022262 -84.820262 
L 256.412414 -85.211307 
L 259.802566 -86.066496 
L 263.192718 -87.496443 
L 266.582869 -88.816482 
L 269.973021 -90.51628 
L 273.363173 -92.030242 
L 276.753325 -93.983543 
L 280.143477 -95.560904 
L 283.533629 -97.408957 
L 286.923781 -99.171253 
L 290.313933 -100.802854 
L 293.704085 -102.488147 
L 297.094237 -104.15761 
L 300.484389 -105.808366 
L 303.874541 -107.779417 
L 307.264693 -109.593639 
L 310.654845 -110.94276 
L 314.044996 -112.716794 
L 317.435148 -114.211108 
L 320.8253 -115.824484 
L 324.215452 -117.32534 
L 327.605604 -118.771946 
L 330.995756 -120.511323 
L 334.385908 -122.067021 
L 337.77606 -123.519833 
L 341.166212 -125.032894 
L 344.556364 -126.404275 
L 347.946516 -127.856218 
L 351.336668 -129.258724 
L 354.72682 -130.909151 
L 358.116972 -132.403225 
L 361.507124 -134.009588 
L 364.897275 -135.461128 
L 368.287427 -136.942485 
L 371.677579 -138.267045 
L 375.067731 -139.71076 
L 378.457883 -141.0231 
L 381.848035 -142.404291 
L 385.238187 -143.612949 
L 388.628339 -144.895955 
L 392.018491 -146.05597 
L 395.408643 -147.678339 
L 398.798795 -148.836392 
L 402.188947 -149.700793 
L 405.579099 -151.249205 
L 408.969251 -152.356624 
L 412.359402 -153.290642 
L 412.359402 -267.634292 
L 412.359402 -267.634292 
L 408.969251 -264.82389 
L 405.579099 -261.839254 
L 402.188947 -258.386041 
L 398.798795 -255.583538 
L 395.408643 -252.415922 
L 392.018491 -248.776626 
L 388.628339 -245.525021 
L 385.238187 -242.161659 
L 381.848035 -238.809746 
L 378.457883 -235.248788 
L 375.067731 -231.757126 
L 371.677579 -228.130512 
L 368.287427 -224.57858 
L 364.897275 -220.828758 
L 361.507124 -217.057277 
L 358.116972 -213.141451 
L 354.72682 -209.293993 
L 351.336668 -205.263531 
L 347.946516 -201.473742 
L 344.556364 -197.631839 
L 341.166212 -193.838975 
L 337.77606 -189.861456 
L 334.385908 -185.935779 
L 330.995756 -181.903205 
L 327.605604 -177.668053 
L 324.215452 -173.736176 
L 320.8253 -169.722399 
L 317.435148 -165.583759 
L 314.044996 -161.564775 
L 310.654845 -157.242932 
L 307.264693 -153.351173 
L 303.874541 -148.994977 
L 300.484389 -144.457781 
L 297.094237 -140.230532 
L 293.704085 -135.995818 
L 290.313933 -131.778497 
L 286.923781 -127.610488 
L 283.533629 -123.353519 
L 280.143477 -119.01591 
L 276.753325 -115.018021 
L 273.363173 -110.683854 
L 269.973021 -106.862431 
L 266.582869 -103.055109 
L 263.192718 -99.839944 
L 259.802566 -96.811641 
L 256.412414 -94.856358 
L 253.022262 -93.853409 
L 249.63211 -93.269562 
L 246.241958 -92.749475 
L 242.851806 -92.175168 
L 239.461654 -91.624789 
L 236.071502 -91.080692 
L 232.68135 -90.53516 
L 229.291198 -89.980803 
L 225.901046 -89.416268 
L 222.510894 -88.950525 
L 219.120742 -88.421039 
L 215.730591 -87.89857 
L 212.340439 -87.424529 
L 208.950287 -86.974537 
L 205.560135 -86.550794 
L 202.169983 -86.124556 
L 198.779831 -85.667626 
L 195.389679 -85.271874 
L 191.999527 -84.898396 
L 188.609375 -84.507155 
L 185.219223 -84.157611 
L 181.829071 -83.855028 
L 178.438919 -83.550095 
L 175.048767 -83.263101 
L 171.658615 -83.005272 
L 168.268464 -82.782746 
L 164.878312 -82.559567 
L 161.48816 -82.383238 
L 158.098008 -82.230379 
L 154.707856 -82.08355 
L 151.317704 -81.951409 
L 147.927552 -81.838383 
L 144.5374 -81.732508 
L 141.147248 -81.640351 
L 137.757096 -81.549063 
L 134.366944 -81.472313 
L 130.976792 -81.393786 
L 127.58664 -81.32294 
L 124.196488 -81.254806 
L 120.806337 -81.186089 
L 117.416185 -81.116705 
L 114.026033 -81.051865 
L 110.635881 -80.98241 
L 107.245729 -80.918697 
L 103.855577 -80.856641 
L 100.465425 -80.798573 
L 97.075273 -80.746654 
L 93.685121 -80.706854 
L 90.294969 -80.689787 
z
" style="stroke: #1a1a1a; stroke-opacity: 0.25; stroke-width: 1.5"/>
    </defs>
    <g clip-path="url(#p3dda1d140b)">
     <use xlink:href="#ma92d445117" x="0" y="345.6" style="fill: #1a1a1a; fill-opacity: 0.25; stroke: #1a1a1a; stroke-opacity: 0.25; stroke-width: 1.5"/>
    </g>
   </g>
   <g id="PathCollection_1">
    <defs>
     <path id="mcbc24d849a" d="M 0 4.5 
C 1.193414 4.5 2.338109 4.025852 3.181981 3.181981 
C 4.025852 2.338109 4.5 1.193414 4.5 0 
C 4.5 -1.193414 4.025852 -2.338109 3.181981 -3.181981 
C 2.338109 -4.025852 1.193414 -4.5 0 -4.5 
C -1.193414 -4.5 -2.338109 -4.025852 -3.181981 -3.181981 
C -4.025852 -2.338109 -4.5 -1.193414 -4.5 0 
C -4.5 1.193414 -4.025852 2.338109 -3.181981 3.181981 
C -2.338109 4.025852 -1.193414 4.5 0 4.5 
z
" style="stroke: #e89a2a; stroke-opacity: 0.25; stroke-width: 1.5"/>
    </defs>
    <g clip-path="url(#p3dda1d140b)">
     <use xlink:href="#mcbc24d849a" x="251.344661" y="251.466528" style="fill: #e89a2a; fill-opacity: 0.25; stroke: #e89a2a; stroke-opacity: 0.25; stroke-width: 1.5"/>
     <use xlink:href="#mcbc24d849a" x="251.344661" y="253.218591" style="fill: #e89a2a; fill-opacity: 0.25; stroke: #e89a2a; stroke-opacity: 0.25; stroke-width: 1.5"/>
     <use xlink:href="#mcbc24d849a" x="251.344661" y="254.085919" style="fill: #e89a2a; fill-opacity: 0.25; stroke: #e89a2a; stroke-opacity: 0.25; stroke-width: 1.5"/>
     <use xlink:href="#mcbc24d849a" x="251.344661" y="255.293186" style="fill: #e89a2a; fill-opacity: 0.25; stroke: #e89a2a; stroke-opacity: 0.25; stroke-width: 1.5"/>
     <use xlink:href="#mcbc24d849a" x="251.344661" y="254.985083" style="fill: #e89a2a; fill-opacity: 0.25; stroke: #e89a2a; stroke-opacity: 0.25; stroke-width: 1.5"/>
     <use xlink:href="#mcbc24d849a" x="251.344661" y="254.560197" style="fill: #e89a2a; fill-opacity: 0.25; stroke: #e89a2a; stroke-opacity: 0.25; stroke-width: 1.5"/>
     <use xlink:href="#mcbc24d849a" x="251.344661" y="253.720986" style="fill: #e89a2a; fill-opacity: 0.25; stroke: #e89a2a; stroke-opacity: 0.25; stroke-width: 1.5"/>
     <use xlink:href="#mcbc24d849a" x="331.869507" y="197.922334" style="fill: #e89a2a; fill-opacity: 0.25; stroke: #e89a2a; stroke-opacity: 0.25; stroke-width: 1.5"/>
     <use xlink:href="#mcbc24d849a" x="331.869507" y="191.349832" style="fill: #e89a2a; fill-opacity: 0.25; stroke: #e89a2a; stroke-opacity: 0.25; stroke-width: 1.5"/>
     <use xlink:href="#mcbc24d849a" x="331.869507" y="228.910047" style="fill: #e89a2a; fill-opacity: 0.25; stroke: #e89a2a; stroke-opacity: 0.25; stroke-width: 1.5"/>
     <use xlink:href="#mcbc24d849a" x="331.869507" y="221.247509" style="fill: #e89a2a; fill-opacity: 0.25; stroke: #e89a2a; stroke-opacity: 0.25; stroke-width: 1.5"/>
     <use xlink:href="#mcbc24d849a" x="331.869507" y="227.697722" style="fill: #e89a2a; fill-opacity: 0.25; stroke: #e89a2a; stroke-opacity: 0.25; stroke-width: 1.5"/>
     <use xlink:href="#mcbc24d849a" x="331.869507" y="215.536979" style="fill: #e89a2a; fill-opacity: 0.25; stroke: #e89a2a; stroke-opacity: 0.25; stroke-width: 1.5"/>
     <use xlink:href="#mcbc24d849a" x="331.869507" y="207.871316" style="fill: #e89a2a; fill-opacity: 0.25; stroke: #e89a2a; stroke-opacity: 0.25; stroke-width: 1.5"/>
     <use xlink:href="#mcbc24d849a" x="412.394352" y="58.413727" style="fill: #e89a2a; fill-opacity: 0.25; stroke: #e89a2a; stroke-opacity: 0.25; stroke-width: 1.5"/>
     <use xlink:href="#mcbc24d849a" x="412.394352" y="92.651912" style="fill: #e89a2a; fill-opacity: 0.25; stroke: #e89a2a; stroke-opacity: 0.25; stroke-width: 1.5"/>
     <use xlink:href="#mcbc24d849a" x="412.394352" y="170.192233" style="fill: #e89a2a; fill-opacity: 0.25; stroke: #e89a2a; stroke-opacity: 0.25; stroke-width: 1.5"/>
     <use xlink:href="#mcbc24d849a" x="412.394352" y="145.672288" style="fill: #e89a2a; fill-opacity: 0.25; stroke: #e89a2a; stroke-opacity: 0.25; stroke-width: 1.5"/>
     <use xlink:href="#mcbc24d849a" x="412.394352" y="182.287667" style="fill: #e89a2a; fill-opacity: 0.25; stroke: #e89a2a; stroke-opacity: 0.25; stroke-width: 1.5"/>
     <use xlink:href="#mcbc24d849a" x="412.394352" y="160.672304" style="fill: #e89a2a; fill-opacity: 0.25; stroke: #e89a2a; stroke-opacity: 0.25; stroke-width: 1.5"/>
     <use xlink:href="#mcbc24d849a" x="412.394352" y="127.635583" style="fill: #e89a2a; fill-opacity: 0.25; stroke: #e89a2a; stroke-opacity: 0.25; stroke-width: 1.5"/>
    </g>
   </g>
   <g id="line2d_12">
    <path d="M 90.294969 264.910213 
L 93.685121 264.897726 
L 97.075273 264.867731 
L 100.465425 264.827687 
L 103.855577 264.781839 
L 107.245729 264.7326 
L 110.635881 264.681322 
L 114.026033 264.628724 
L 117.416185 264.575129 
L 120.806337 264.520592 
L 124.196488 264.464971 
L 127.58664 264.407956 
L 130.976792 264.349088 
L 134.366944 264.287764 
L 137.757096 264.223247 
L 141.147248 264.154676 
L 144.5374 264.081089 
L 147.927552 264.001446 
L 151.317704 263.91467 
L 154.707856 263.819683 
L 158.098008 263.715456 
L 161.48816 263.601046 
L 164.878312 263.475637 
L 168.268464 263.338565 
L 171.658615 263.189343 
L 175.048767 263.027662 
L 178.438919 262.853392 
L 181.829071 262.666571 
L 185.219223 262.467387 
L 188.609375 262.256155 
L 191.999527 262.033292 
L 195.389679 261.799297 
L 198.779831 261.554723 
L 202.169983 261.30016 
L 205.560135 261.036218 
L 208.950287 260.763508 
L 212.340439 260.482634 
L 215.730591 260.194184 
L 219.120742 259.898723 
L 222.510894 259.596789 
L 225.901046 259.288889 
L 229.291198 258.975502 
L 232.68135 258.657072 
L 236.071502 258.334014 
L 239.461654 258.006715 
L 242.851806 257.675532 
L 246.241958 257.340795 
L 249.63211 257.002812 
L 253.022262 256.661865 
L 256.412414 256.068023 
L 259.802566 254.717108 
L 263.192718 252.790886 
L 266.582869 250.506302 
L 269.973021 248.006699 
L 273.363173 245.381077 
L 276.753325 242.684031 
L 280.143477 239.94891 
L 283.533629 237.195999 
L 286.923781 234.43762 
L 290.313933 231.681292 
L 293.704085 228.931656 
L 297.094237 226.191633 
L 300.484389 223.463122 
L 303.874541 220.747413 
L 307.264693 218.045444 
L 310.654845 215.357944 
L 314.044996 212.685534 
L 317.435148 210.028775 
L 320.8253 207.388212 
L 324.215452 204.764388 
L 327.605604 202.157866 
L 330.995756 199.569231 
L 334.385908 196.999103 
L 337.77606 194.448138 
L 341.166212 191.917029 
L 344.556364 189.406512 
L 347.946516 186.917368 
L 351.336668 184.450418 
L 354.72682 182.006529 
L 358.116972 179.586611 
L 361.507124 177.191616 
L 364.897275 174.822538 
L 368.287427 172.480411 
L 371.677579 170.166303 
L 375.067731 167.881319 
L 378.457883 165.62659 
L 381.848035 163.403273 
L 385.238187 161.212546 
L 388.628339 159.055597 
L 392.018491 156.933625 
L 395.408643 154.847825 
L 398.798795 152.799385 
L 402.188947 150.789477 
L 405.579099 148.819247 
L 408.969251 146.889806 
L 412.359402 145.002225 
" clip-path="url(#p3dda1d140b)" style="fill: none; stroke: #1a1a1a; stroke-width: 2.25; stroke-linecap: round"/>
   </g>
   <g id="LineCollection_1">
    <path d="M 251.344661 255.19579 
L 251.344661 252.612921 
" clip-path="url(#p3dda1d140b)" style="fill: none; stroke: #e89a2a; stroke-width: 2.25"/>
    <path d="M 331.869507 227.459222 
L 331.869507 198.408132 
" clip-path="url(#p3dda1d140b)" style="fill: none; stroke: #e89a2a; stroke-width: 2.25"/>
    <path d="M 412.394352 178.565292 
L 412.394352 89.299198 
" clip-path="url(#p3dda1d140b)" style="fill: none; stroke: #e89a2a; stroke-width: 2.25"/>
   </g>
   <g id="line2d_13">
    <defs>
     <path id="md919775b7b" d="M -4.5 4.5 
L 4.5 4.5 
L 4.5 -4.5 
L -4.5 -4.5 
z
" style="stroke: #e89a2a; stroke-linejoin: miter"/>
    </defs>
    <g clip-path="url(#p3dda1d140b)">
     <use xlink:href="#md919775b7b" x="251.344661" y="253.904356" style="fill: #e89a2a; stroke: #e89a2a; stroke-linejoin: miter"/>
     <use xlink:href="#md919775b7b" x="331.869507" y="212.933677" style="fill: #e89a2a; stroke: #e89a2a; stroke-linejoin: miter"/>
     <use xlink:href="#md919775b7b" x="412.394352" y="133.932245" style="fill: #e89a2a; stroke: #e89a2a; stroke-linejoin: miter"/>
    </g>
   </g>
   <g id="patch_3">
    <path d="M 74.19 275.82 
L 74.19 19.44 
" style="fill: none; stroke: #262626; stroke-width: 1.875; stroke-linejoin: miter; stroke-linecap: square"/>
   </g>
   <g id="patch_4">
    <path d="M 74.19 275.82 
L 428.499322 275.82 
" style="fill: none; stroke: #262626; stroke-width: 1.875; stroke-linejoin: miter; stroke-linecap: square"/>
   </g>
  </g>
 </g>
 <defs>
  <clipPath id="p3dda1d140b">
   <rect x="74.19" y="19.44" width="354.309322" height="256.38"/>
  </clipPath>
 </defs>
</svg>
